<?xml version="1.0" encoding="utf-8"?>
<!-- Generator: Adobe Illustrator 22.1.0, SVG Export Plug-In . SVG Version: 6.00 Build 0)  -->
<svg version="1.1" id="Layer_1" xmlns="http://www.w3.org/2000/svg" xmlns:xlink="http://www.w3.org/1999/xlink" x="0px" y="0px"
	 viewBox="0 0 550 550" style="enable-background:new 0 0 550 550;" xml:space="preserve">
<style type="text/css">
	.st0{fill:#110F10;}
	.st1{fill:#2A2AEA;}
	.st2{fill:#CEFF00;}
	.st3{font-family:'Pretendard-ExtraBold';}
	.st4{font-size:17.0668px;}
	.st5{fill:url(#SVGID_1_);}
	.st6{fill:url(#SVGID_2_);}
	.st7{fill:url(#SVGID_3_);}
	.st8{fill:url(#SVGID_4_);}
	.st9{opacity:0.71;fill:#2A2AEA;}
	.st10{fill:#FFFFFF;stroke:#2A2AEA;stroke-miterlimit:10;}
	.st11{fill:#F6A9A3;}
	.st12{fill:#DB6356;}
	.st13{fill:#BDD0FB;}
	.st14{opacity:0.5;fill:#BDD0FB;}
	.st15{fill:#1D0C8C;}
	.st16{fill:#3131FF;}
	.st17{opacity:0.7;fill:url(#SVGID_5_);}
	.st18{fill:#FFFFFF;}
</style>
<g>
	<g>
		<path class="st0" d="M269.8,234.6c0-0.2-0.1-0.5-0.1-0.6c-0.1-0.4-0.4-0.7-0.9-0.9c-1.8-0.6-3.7-0.3-5.5,0.1
			c-0.5,0.1-0.8,0.4-0.9,0.8c-0.1,0.2-0.2,0.4-0.2,0.7c0.1,9.6,0.6,19.1,1,28.6c0.1,1.1,1.1,1.5,1.9,1.3c0.7,0.1,1.4,0.1,2.1,0.1
			c0.4,0,0.7,0,1-0.3c0,0,0.1-0.1,0.1-0.1c0.1-0.1,0.1-0.1,0.1-0.2c0.2-0.3,0.9-10.3,1-14.7C269.5,244.5,269.8,239.5,269.8,234.6z"
			/>
		<path class="st0" d="M251.9,245c-0.2,0-0.5,0.1-0.6,0.1c-0.4,0.1-0.7,0.4-0.9,0.9c-0.6,1.8-0.3,3.7,0.1,5.5
			c0.1,0.5,0.4,0.8,0.8,0.9c0.2,0.1,0.4,0.2,0.7,0.2c9.6-0.1,19.1-1,28.6-1c1.5,0,1.3-1.9,1.3-1.9l0.1-3.4c0,0,0-0.7-0.3-1
			c0,0-0.1-0.1-0.1-0.1c-0.1-0.1-0.1-0.1-0.2-0.1c-0.3-0.2-10.3,0.4-14.7,0.4C261.8,245.2,256.9,245,251.9,245z"/>
		<path class="st0" d="M284,309.3c0.2,0,0.5-0.1,0.6-0.1c0.4-0.1,0.7-0.4,0.9-0.9c0.6-1.8,0.3-3.7-0.1-5.5c-0.1-0.5-0.4-0.8-0.8-0.9
			c-0.2-0.1-0.4-0.2-0.7-0.2c-9.6,0.1-19.1,0.6-28.6,1c-1.1,0.1-1.5,1.1-1.3,1.9c-0.1,0.7-0.1,1.4-0.1,2.1c0,0.4,0,0.7,0.3,1
			c0,0,0.1,0.1,0.1,0.1c0.1,0.1,0.1,0.1,0.2,0.1c0.3,0.2,10.3,0.9,14.7,1C274,309,279,309.3,284,309.3z"/>
		<path class="st0" d="M273.6,291.4c0-0.2-0.1-0.5-0.1-0.6c-0.1-0.4-0.4-0.7-0.9-0.9c-1.8-0.6-3.7-0.3-5.5,0.1
			c-0.5,0.1-0.8,0.4-0.9,0.8c-0.1,0.2-0.2,0.4-0.2,0.7c0.1,9.6,1,19.1,1,28.6c0,1.5,1.9,1.3,1.9,1.3l3.4,0.1c0,0,0.7,0,1-0.3
			c0,0,0.1-0.1,0.1-0.1c0.1-0.1,0.1-0.1,0.1-0.2c0.2-0.3-0.4-10.3-0.4-14.7C273.3,301.3,273.6,296.3,273.6,291.4z"/>
		<path class="st0" d="M225.3,295.1c0-0.2-0.1-0.5-0.1-0.6c-0.1-0.4-0.4-0.7-0.9-0.9c-1.8-0.6-3.7-0.3-5.5,0.1
			c-0.5,0.1-0.8,0.4-0.9,0.8c-0.1,0.2-0.2,0.4-0.2,0.7c0.1,9.6,0.6,19.1,1,28.6c0.1,1.1,1.1,1.5,1.9,1.3c0.7,0.1,1.4,0.1,2.1,0.1
			c0.4,0,0.7,0,1-0.3c0,0,0.1-0.1,0.1-0.1c0.1-0.1,0.1-0.1,0.1-0.2c0.2-0.3,0.9-10.3,1-14.7C225.1,305.1,225.3,300.1,225.3,295.1z"
			/>
		<path class="st0" d="M207.4,305.5c-0.2,0-0.5,0.1-0.6,0.1c-0.4,0.1-0.7,0.4-0.9,0.9c-0.6,1.8-0.3,3.7,0.1,5.5
			c0.1,0.5,0.4,0.8,0.8,0.9c0.2,0.1,0.4,0.2,0.7,0.2c9.6-0.1,19.1-1,28.6-1c1.5,0,1.3-1.9,1.3-1.9l0.1-3.4c0,0,0-0.7-0.3-1
			c0,0-0.1-0.1-0.1-0.1c-0.1-0.1-0.1-0.1-0.2-0.1c-0.3-0.2-10.3,0.4-14.7,0.4C217.3,305.8,212.4,305.5,207.4,305.5z"/>
		<path class="st0" d="M296.9,262c0-0.2-0.1-0.5-0.1-0.6c-0.1-0.4-0.4-0.7-0.9-0.9c-1.8-0.6-3.7-0.3-5.5,0.1
			c-0.5,0.1-0.8,0.4-0.9,0.8c-0.1,0.2-0.2,0.4-0.2,0.7c0.1,9.6,0.6,19.1,1,28.6c0.1,1.1,1.1,1.5,1.9,1.3c0.7,0.1,1.4,0.1,2.1,0.1
			c0.4,0,0.7,0,1-0.3c0,0,0.1-0.1,0.1-0.1c0.1-0.1,0.1-0.1,0.1-0.2c0.2-0.3,0.9-10.3,1-14.7C296.6,272,296.9,267,296.9,262z"/>
		<path class="st0" d="M307.3,279.9c0.2,0,0.5-0.1,0.6-0.1c0.4-0.1,0.7-0.4,0.9-0.9c0.6-1.8,0.3-3.7-0.1-5.5
			c-0.1-0.5-0.4-0.8-0.8-0.9c-0.2-0.1-0.4-0.2-0.7-0.2c-9.6,0.1-19.1,1-28.6,1c-1.5,0-1.3,1.9-1.3,1.9l-0.1,3.4c0,0,0,0.7,0.3,1
			c0,0,0.1,0.1,0.1,0.1c0.1,0.1,0.1,0.1,0.2,0.1c0.3,0.2,10.3-0.4,14.7-0.4C297.3,279.6,302.3,279.9,307.3,279.9z"/>
		<path class="st0" d="M236.7,289c0,0.2,0.1,0.5,0.1,0.6c0.1,0.4,0.4,0.7,0.9,0.9c1.8,0.6,3.7,0.3,5.5-0.1c0.5-0.1,0.8-0.4,0.9-0.8
			c0.1-0.2,0.2-0.4,0.2-0.7c-0.1-9.6-0.6-19.1-1-28.6c-0.1-1.1-1.1-1.5-1.9-1.3c-0.7-0.1-1.4-0.1-2.1-0.1c-0.4,0-0.7,0-1,0.3
			c0,0-0.1,0.1-0.1,0.1c-0.1,0.1-0.1,0.1-0.1,0.2c-0.2,0.3-0.9,10.3-1,14.7C237,279.1,236.8,284,236.7,289z"/>
		<path class="st0" d="M254.3,279.8c0.2,0,0.5,0,0.6-0.1c0.4-0.1,0.7-0.4,0.9-0.8c0.8-1.7,0.7-3.7,0.3-5.5c-0.1-0.5-0.4-0.8-0.7-1
			c-0.2-0.1-0.4-0.2-0.6-0.2c-9.6-0.7-19.1-0.6-28.6-1.5c-1.5-0.1-1.5,1.7-1.5,1.7l-0.4,3.4c0,0,0,0.7,0.2,1c0,0,0.1,0.1,0.1,0.1
			c0.1,0.1,0.1,0.1,0.2,0.2c0.3,0.2,10.3,0.5,14.6,0.9C244.4,278.7,249.3,279.3,254.3,279.8z"/>
		<path class="st0" d="M188.4,294c0,0.2,0.1,0.5,0.1,0.6c0.1,0.4,0.4,0.7,0.9,0.9c1.8,0.6,3.7,0.3,5.5-0.1c0.5-0.1,0.8-0.4,0.9-0.8
			c0.1-0.2,0.2-0.4,0.2-0.7c-0.1-9.6-0.6-19.1-1-28.6c-0.1-1.1-1.1-1.5-1.9-1.3c-0.7-0.1-1.4-0.1-2.1-0.1c-0.4,0-0.7,0-1,0.3
			c0,0-0.1,0.1-0.1,0.1c-0.1,0.1-0.1,0.1-0.1,0.2c-0.2,0.3-0.9,10.3-1,14.7C188.7,284,188.5,289,188.4,294z"/>
		<path class="st0" d="M206,284.8c0.2,0,0.5,0,0.6-0.1c0.4-0.1,0.7-0.4,0.9-0.8c0.8-1.7,0.7-3.7,0.3-5.5c-0.1-0.5-0.4-0.8-0.7-1
			c-0.2-0.1-0.4-0.2-0.6-0.2c-9.6-0.7-19.1-0.6-28.6-1.5c-1.5-0.1-1.5,1.7-1.5,1.7l-0.4,3.4c0,0,0,0.7,0.2,1c0,0,0.1,0.1,0.1,0.1
			c0.1,0.1,0.1,0.1,0.2,0.2c0.3,0.2,10.3,0.5,14.6,0.9C196.1,283.6,201,284.3,206,284.8z"/>
		<path class="st0" d="M226.4,248.6c0.2,0,0.5-0.1,0.6-0.1c0.4-0.1,0.7-0.4,0.9-0.9c0.6-1.8,0.3-3.7-0.1-5.5
			c-0.1-0.5-0.4-0.8-0.8-0.9c-0.2-0.1-0.4-0.2-0.7-0.2c-9.6,0.1-19.1,0.6-28.6,1c-1.1,0.1-1.5,1.1-1.3,1.9c-0.1,0.7-0.1,1.4-0.1,2.1
			c0,0.4,0,0.7,0.3,1c0,0,0.1,0.1,0.1,0.1c0.1,0.1,0.1,0.1,0.2,0.1c0.3,0.2,10.3,0.9,14.7,1C216.4,248.3,221.4,248.5,226.4,248.6z"
			/>
		<path class="st0" d="M217.1,231c0-0.2,0-0.5-0.1-0.6c-0.1-0.4-0.4-0.7-0.8-0.9c-1.7-0.8-3.7-0.7-5.5-0.3c-0.5,0.1-0.8,0.4-1,0.7
			c-0.1,0.2-0.2,0.4-0.2,0.6c-0.7,9.6-0.6,19.1-1.5,28.6c-0.1,1.5,1.7,1.5,1.7,1.5l3.4,0.4c0,0,0.7,0,1-0.2c0,0,0.1-0.1,0.1-0.1
			c0.1-0.1,0.1-0.1,0.2-0.2c0.2-0.3,0.5-10.3,0.9-14.6C216,240.9,216.7,236,217.1,231z"/>
	</g>
</g>
<g>
	<g>
		<path class="st0" d="M402.2,252.8c0-0.2-0.1-0.5-0.1-0.6c-0.1-0.4-0.4-0.7-0.9-0.9c-1.8-0.6-3.7-0.3-5.5,0.1
			c-0.5,0.1-0.8,0.4-0.9,0.8c-0.1,0.2-0.2,0.4-0.2,0.7c0.1,9.6,0.6,19.1,1,28.6c0.1,1.1,1.1,1.5,1.9,1.3c0.7,0.1,1.4,0.1,2.1,0.1
			c0.4,0,0.7,0,1-0.3c0,0,0.1-0.1,0.1-0.1c0.1-0.1,0.1-0.1,0.1-0.2c0.2-0.3,0.9-10.3,1-14.7C401.9,262.8,402.2,257.8,402.2,252.8z"
			/>
		<path class="st0" d="M384.3,263.2c-0.2,0-0.5,0.1-0.6,0.1c-0.4,0.1-0.7,0.4-0.9,0.9c-0.6,1.8-0.3,3.7,0.1,5.5
			c0.1,0.5,0.4,0.8,0.8,0.9c0.2,0.1,0.4,0.2,0.7,0.2c9.6-0.1,19.1-1,28.6-1c1.5,0,1.3-1.9,1.3-1.9l0.1-3.4c0,0,0-0.7-0.3-1
			c0,0-0.1-0.1-0.1-0.1c-0.1-0.1-0.1-0.1-0.2-0.1c-0.3-0.2-10.3,0.4-14.7,0.4C394.2,263.5,389.2,263.3,384.3,263.2z"/>
		<path class="st0" d="M416.4,327.6c0.2,0,0.5-0.1,0.6-0.1c0.4-0.1,0.7-0.4,0.9-0.9c0.6-1.8,0.3-3.7-0.1-5.5
			c-0.1-0.5-0.4-0.8-0.8-0.9c-0.2-0.1-0.4-0.2-0.7-0.2c-9.6,0.1-19.1,0.6-28.6,1c-1.1,0.1-1.5,1.1-1.3,1.9c-0.1,0.7-0.1,1.4-0.1,2.1
			c0,0.4,0,0.7,0.3,1c0,0,0.1,0.1,0.1,0.1c0.1,0.1,0.1,0.1,0.2,0.1c0.3,0.2,10.3,0.9,14.7,1C406.4,327.3,411.4,327.5,416.4,327.6z"
			/>
		<path class="st0" d="M406,309.6c0-0.2-0.1-0.5-0.1-0.6c-0.1-0.4-0.4-0.7-0.9-0.9c-1.8-0.6-3.7-0.3-5.5,0.1
			c-0.5,0.1-0.8,0.4-0.9,0.8c-0.1,0.2-0.2,0.4-0.2,0.7c0.1,9.6,1,19.1,1,28.6c0,1.5,1.9,1.3,1.9,1.3l3.4,0.1c0,0,0.7,0,1-0.3
			c0,0,0.1-0.1,0.1-0.1c0.1-0.1,0.1-0.1,0.1-0.2c0.2-0.3-0.4-10.3-0.4-14.7C405.7,319.6,406,314.6,406,309.6z"/>
		<path class="st0" d="M357.7,313.4c0-0.2-0.1-0.5-0.1-0.6c-0.1-0.4-0.4-0.7-0.9-0.9c-1.8-0.6-3.7-0.3-5.5,0.1
			c-0.5,0.1-0.8,0.4-0.9,0.8c-0.1,0.2-0.2,0.4-0.2,0.7c0.1,9.6,0.6,19.1,1,28.6c0.1,1.1,1.1,1.5,1.9,1.3c0.7,0.1,1.4,0.1,2.1,0.1
			c0.4,0,0.7,0,1-0.3c0,0,0.1-0.1,0.1-0.1c0.1-0.1,0.1-0.1,0.1-0.2c0.2-0.3,0.9-10.3,1-14.7C357.4,323.3,357.7,318.4,357.7,313.4z"
			/>
		<path class="st0" d="M339.8,323.8c-0.2,0-0.5,0.1-0.6,0.1c-0.4,0.1-0.7,0.4-0.9,0.9c-0.6,1.8-0.3,3.7,0.1,5.5
			c0.1,0.5,0.4,0.8,0.8,0.9c0.2,0.1,0.4,0.2,0.7,0.2c9.6-0.1,19.1-1,28.6-1c1.5,0,1.3-1.9,1.3-1.9l0.1-3.4c0,0,0-0.7-0.3-1
			c0,0-0.1-0.1-0.1-0.1c-0.1-0.1-0.1-0.1-0.2-0.1c-0.3-0.2-10.3,0.4-14.7,0.4C349.7,324.1,344.7,323.8,339.8,323.8z"/>
		<path class="st0" d="M429.3,280.3c0-0.2-0.1-0.5-0.1-0.6c-0.1-0.4-0.4-0.7-0.9-0.9c-1.8-0.6-3.7-0.3-5.5,0.1
			c-0.5,0.1-0.8,0.4-0.9,0.8c-0.1,0.2-0.2,0.4-0.2,0.7c0.1,9.6,0.6,19.1,1,28.6c0.1,1.1,1.1,1.5,1.9,1.3c0.7,0.1,1.4,0.1,2.1,0.1
			c0.4,0,0.7,0,1-0.3c0,0,0.1-0.1,0.1-0.1c0.1-0.1,0.1-0.1,0.1-0.2c0.2-0.3,0.9-10.3,1-14.7C429,290.2,429.2,285.3,429.3,280.3z"/>
		<path class="st0" d="M439.6,298.2c0.2,0,0.5-0.1,0.6-0.1c0.4-0.1,0.7-0.4,0.9-0.9c0.6-1.8,0.3-3.7-0.1-5.5
			c-0.1-0.5-0.4-0.8-0.8-0.9c-0.2-0.1-0.4-0.2-0.7-0.2c-9.6,0.1-19.1,1-28.6,1c-1.5,0-1.3,1.9-1.3,1.9l-0.1,3.4c0,0,0,0.7,0.3,1
			c0,0,0.1,0.1,0.1,0.1c0.1,0.1,0.1,0.1,0.2,0.1c0.3,0.2,10.3-0.4,14.7-0.4C429.7,297.9,434.6,298.2,439.6,298.2z"/>
		<path class="st0" d="M369.1,307.3c0,0.2,0.1,0.5,0.1,0.6c0.1,0.4,0.4,0.7,0.9,0.9c1.8,0.6,3.7,0.3,5.5-0.1
			c0.5-0.1,0.8-0.4,0.9-0.8c0.1-0.2,0.2-0.4,0.2-0.7c-0.1-9.6-0.6-19.1-1-28.6c-0.1-1.1-1.1-1.5-1.9-1.3c-0.7-0.1-1.4-0.1-2.1-0.1
			c-0.4,0-0.7,0-1,0.3c0,0-0.1,0.1-0.1,0.1c-0.1,0.1-0.1,0.1-0.1,0.2c-0.2,0.3-0.9,10.3-1,14.7C369.4,297.3,369.1,302.3,369.1,307.3
			z"/>
		<path class="st0" d="M386.6,298.1c0.2,0,0.5,0,0.6-0.1c0.4-0.1,0.7-0.4,0.9-0.8c0.8-1.7,0.7-3.7,0.3-5.5c-0.1-0.5-0.4-0.8-0.7-1
			c-0.2-0.1-0.4-0.2-0.6-0.2c-9.6-0.7-19.1-0.6-28.6-1.5c-1.5-0.1-1.5,1.7-1.5,1.7l-0.4,3.4c0,0,0,0.7,0.2,1c0,0,0.1,0.1,0.1,0.1
			c0.1,0.1,0.1,0.1,0.2,0.2c0.3,0.2,10.3,0.5,14.6,0.9C376.7,296.9,381.7,297.6,386.6,298.1z"/>
		<path class="st0" d="M320.8,312.2c0,0.2,0.1,0.5,0.1,0.6c0.1,0.4,0.4,0.7,0.9,0.9c1.8,0.6,3.7,0.3,5.5-0.1
			c0.5-0.1,0.8-0.4,0.9-0.8c0.1-0.2,0.2-0.4,0.2-0.7c-0.1-9.6-0.6-19.1-1-28.6c-0.1-1.1-1.1-1.5-1.9-1.3c-0.7-0.1-1.4-0.1-2.1-0.1
			c-0.4,0-0.7,0-1,0.3c0,0-0.1,0.1-0.1,0.1c-0.1,0.1-0.1,0.1-0.1,0.2c-0.2,0.3-0.9,10.3-1,14.7C321.1,302.3,320.8,307.3,320.8,312.2
			z"/>
		<path class="st0" d="M338.3,303c0.2,0,0.5,0,0.6-0.1c0.4-0.1,0.7-0.4,0.9-0.8c0.8-1.7,0.7-3.7,0.3-5.5c-0.1-0.5-0.4-0.8-0.7-1
			c-0.2-0.1-0.4-0.2-0.6-0.2c-9.6-0.7-19.1-0.6-28.6-1.5c-1.5-0.1-1.5,1.7-1.5,1.7l-0.4,3.4c0,0,0,0.7,0.2,1c0,0,0.1,0.1,0.1,0.1
			c0.1,0.1,0.1,0.1,0.2,0.2c0.3,0.2,10.3,0.5,14.6,0.9C328.5,301.9,333.4,302.6,338.3,303z"/>
		<path class="st0" d="M358.7,266.8c0.2,0,0.5-0.1,0.6-0.1c0.4-0.1,0.7-0.4,0.9-0.9c0.6-1.8,0.3-3.7-0.1-5.5
			c-0.1-0.5-0.4-0.8-0.8-0.9c-0.2-0.1-0.4-0.2-0.7-0.2c-9.6,0.1-19.1,0.6-28.6,1c-1.1,0.1-1.5,1.1-1.3,1.9c-0.1,0.7-0.1,1.4-0.1,2.1
			c0,0.4,0,0.7,0.3,1c0,0,0.1,0.1,0.1,0.1c0.1,0.1,0.1,0.1,0.2,0.1c0.3,0.2,10.3,0.9,14.7,1C348.8,266.5,353.7,266.8,358.7,266.8z"
			/>
		<path class="st0" d="M349.5,249.3c0-0.2,0-0.5-0.1-0.6c-0.1-0.4-0.4-0.7-0.8-0.9c-1.7-0.8-3.7-0.7-5.5-0.3c-0.5,0.1-0.8,0.4-1,0.7
			c-0.1,0.2-0.2,0.4-0.2,0.6c-0.7,9.6-0.6,19.1-1.5,28.6c-0.1,1.5,1.7,1.5,1.7,1.5l3.4,0.4c0,0,0.7,0,1-0.2c0,0,0.1-0.1,0.1-0.1
			c0.1-0.1,0.1-0.1,0.2-0.2c0.2-0.3,0.5-10.3,0.9-14.6C348.4,259.2,349,254.3,349.5,249.3z"/>
	</g>
</g>
<path class="st1" d="M428.6,390.7L266.3,301c-6.1-3.4-8.4-11.1-5-17.2v0c5.5-9.9,1.9-22.3-8-27.8l-74-40.9c-9.9-5.5-22.3-1.9-27.8,8
	L61.3,386.5c-5.5,9.9-1.9,22.3,8,27.8l19.5,10.8l65.6,36.2l180.2,99.6c9.9,5.5,22.3,1.9,27.8-8l74.3-134.4
	C442.1,408.6,438.5,396.1,428.6,390.7z"/>
<path d="M321.1,555.8L112.2,390.4c-8.2-6.5-9.6-18.6-3.1-26.8l87.5-110.6c6.5-8.2,18.6-9.6,26.8-3.1l208.9,165.3
	c8.2,6.5,9.6,18.6,3.1,26.8l-87.5,110.6C341.3,560.9,329.3,562.3,321.1,555.8z"/>
<text transform="matrix(0.7841 0.6206 -0.6206 0.7841 202.4591 295.3974)"><tspan x="0" y="0" class="st2 st3 st4">플라스틱 스페셜 이슈 </tspan><tspan x="0" y="20.5" class="st2 st3 st4">모아보기</tspan></text>
<g>
	
		<linearGradient id="SVGID_1_" gradientUnits="userSpaceOnUse" x1="318.7662" y1="104.2749" x2="330.4899" y2="104.2749" gradientTransform="matrix(0.8931 0.4499 -0.4499 0.8931 67.6462 258.6418)">
		<stop  offset="0" style="stop-color:#070FB4"/>
		<stop  offset="6.965739e-02" style="stop-color:#0F16C1"/>
		<stop  offset="0.2032" style="stop-color:#1B1FD3"/>
		<stop  offset="0.3618" style="stop-color:#2425E0"/>
		<stop  offset="0.5684" style="stop-color:#2929E8"/>
		<stop  offset="1" style="stop-color:#2A2AEA"/>
	</linearGradient>
	<path class="st5" d="M316.6,497.4c-0.1-1-0.4-1.8-1-2.6c-0.6-0.8-1.4-1.5-2.5-2c-0.8-0.4-1.7-0.6-2.7-0.6c-1,0-1.9,0.2-2.8,0.7
		c-0.9,0.5-1.6,1.2-2.1,2.2c-0.5,0.9-0.7,1.9-0.6,2.9c0.1,1,0.4,2,0.9,2.9c0.6,0.9,1.3,1.6,2.3,2.1c1,0.5,2,0.7,3,0.6
		c1-0.1,2-0.4,2.8-0.9c0.9-0.6,1.5-1.3,2-2.3C316.5,499.3,316.7,498.3,316.6,497.4z M311.4,500c-0.5,0.2-1,0.1-1.5-0.1
		c-0.6-0.3-1-0.7-1.2-1.3c-0.2-0.6-0.2-1.1,0.1-1.7c0.3-0.5,0.7-0.9,1.2-1.1c0.6-0.2,1.1-0.1,1.7,0.1c0.6,0.3,1,0.7,1.1,1.3
		c0.1,0.5,0.1,1.1-0.2,1.7C312.3,499.4,311.9,499.8,311.4,500z"/>
	
		<linearGradient id="SVGID_2_" gradientUnits="userSpaceOnUse" x1="343.3495" y1="104.2012" x2="355.0732" y2="104.2012" gradientTransform="matrix(0.8931 0.4499 -0.4499 0.8931 67.6462 258.6418)">
		<stop  offset="0" style="stop-color:#070FB4"/>
		<stop  offset="6.965739e-02" style="stop-color:#0F16C1"/>
		<stop  offset="0.2032" style="stop-color:#1B1FD3"/>
		<stop  offset="0.3618" style="stop-color:#2425E0"/>
		<stop  offset="0.5684" style="stop-color:#2929E8"/>
		<stop  offset="1" style="stop-color:#2A2AEA"/>
	</linearGradient>
	<path class="st6" d="M338.6,508.4c-0.1-1-0.4-1.8-1-2.6c-0.6-0.8-1.4-1.5-2.5-2c-0.8-0.4-1.7-0.6-2.7-0.6c-1,0-1.9,0.2-2.8,0.7
		c-0.9,0.5-1.6,1.2-2.1,2.2c-0.5,0.9-0.7,1.9-0.6,2.9c0.1,1,0.4,2,0.9,2.9c0.6,0.9,1.3,1.6,2.3,2.1c1,0.5,2,0.7,3,0.6
		c1-0.1,2-0.4,2.8-0.9c0.9-0.6,1.5-1.3,2-2.3C338.4,510.3,338.7,509.3,338.6,508.4z M333.3,511c-0.5,0.2-1,0.1-1.5-0.1
		c-0.6-0.3-1-0.7-1.2-1.3c-0.2-0.6-0.2-1.1,0.1-1.7c0.3-0.5,0.7-0.9,1.2-1.1c0.6-0.2,1.1-0.1,1.7,0.1c0.6,0.3,1,0.7,1.1,1.3
		c0.1,0.5,0.1,1.1-0.2,1.7C334.3,510.4,333.8,510.8,333.3,511z"/>
	
		<linearGradient id="SVGID_3_" gradientUnits="userSpaceOnUse" x1="329.8669" y1="101.7405" x2="344.1569" y2="101.7405" gradientTransform="matrix(0.8931 0.4499 -0.4499 0.8931 67.6462 258.6418)">
		<stop  offset="0" style="stop-color:#070FB4"/>
		<stop  offset="6.965739e-02" style="stop-color:#0F16C1"/>
		<stop  offset="0.2032" style="stop-color:#1B1FD3"/>
		<stop  offset="0.3618" style="stop-color:#2425E0"/>
		<stop  offset="0.5684" style="stop-color:#2929E8"/>
		<stop  offset="1" style="stop-color:#2A2AEA"/>
	</linearGradient>
	<path class="st7" d="M330.7,499.3c0.2-1.7-0.1-3.3-0.7-4.7l-3.4,0.2c0.4,1.3,0.6,2.6,0.5,3.8c-0.1,0.9-0.3,1.8-0.7,2.8
		c-0.2-0.6-0.4-1.1-0.8-1.7c-0.6-0.8-1.4-1.5-2.5-2c-0.8-0.4-1.7-0.6-2.7-0.6c-1,0-1.9,0.2-2.8,0.7c-0.9,0.5-1.6,1.2-2.1,2.2
		c-0.5,0.9-0.7,1.9-0.6,2.9c0.1,1,0.4,2,0.9,2.9c0.6,0.9,1.3,1.6,2.3,2.1c0.8,0.4,1.6,0.6,2.4,0.6l1.5,2.3c1.5-0.5,2.9-1.3,4.2-2.6
		c1.3-1.3,2.4-2.7,3.2-4.3C330.1,502.6,330.5,501,330.7,499.3z M318.5,503.5c-0.2-0.6-0.2-1.1,0.1-1.7c0.3-0.5,0.7-0.9,1.2-1.1
		c0.6-0.2,1.1-0.1,1.7,0.1c0.6,0.3,1,0.7,1.1,1.3c0.1,0.5,0.1,1.1-0.2,1.7c-0.3,0.6-0.7,1-1.2,1.1c-0.5,0.2-1,0.1-1.5-0.1
		C319.1,504.5,318.7,504.1,318.5,503.5z"/>
	
		<linearGradient id="SVGID_4_" gradientUnits="userSpaceOnUse" x1="309.0887" y1="104.68" x2="323.0234" y2="99.6082" gradientTransform="matrix(0.8931 0.4499 -0.4499 0.8931 67.6462 258.6418)">
		<stop  offset="0" style="stop-color:#070FB4"/>
		<stop  offset="6.965739e-02" style="stop-color:#0F16C1"/>
		<stop  offset="0.2032" style="stop-color:#1B1FD3"/>
		<stop  offset="0.3618" style="stop-color:#2425E0"/>
		<stop  offset="0.5684" style="stop-color:#2929E8"/>
		<stop  offset="1" style="stop-color:#2A2AEA"/>
	</linearGradient>
	<path class="st8" d="M308.6,489.7c1.3-0.5,2.3-1.1,3-1.9l0.3-0.3l-2.2-3l-0.8,0.7c-0.4,0.3-0.7,0.6-1.1,0.8c0,0-2.7,2.2-6.9,0
		c-0.4-0.2-0.7-0.4-1.1-0.7l-0.8-0.6l-2.1,3.3l0.4,0.3c0.9,0.7,2,1.3,3.4,1.7c0.8,0.2,1.6,0.4,2.4,0.4c0.1,0.4,0.1,0.8,0.1,1.2
		c0,0.6-0.3,1.3-0.6,2.1c-0.3,0.7-0.8,1.2-1.3,1.7c-0.5,0.5-1.2,0.8-2,1.1l-0.9,0.3l2.2,3.2l0.5-0.1c1-0.3,2-0.9,2.9-1.7
		c0.9-0.8,1.6-1.8,2.1-2.8c0.5-1,0.8-2.1,0.9-3.2c0.1-0.7,0-1.3-0.1-1.9C307.4,490,308,489.9,308.6,489.7z"/>
</g>
<path class="st9" d="M374.4,381.2l-180.6-42.3c-6.8-1.6-11.1-8.4-9.5-15.3l0,0c2.6-11-4.2-22-15.2-24.6l-82.3-19.3
	c-11-2.6-22,4.2-24.6,15.2L19.7,476.7c-2.6,11,4.2,22,15.2,24.6l21.7,5.1l73,17.1l200.5,47c11,2.6,22-4.2,24.6-15.2l35-149.5
	C392.2,394.8,385.4,383.8,374.4,381.2z"/>
<path class="st10" d="M193.5,447.4c-0.6-2.1-1.8-3.9-3.5-5.4c-1.7-1.5-3.9-2.6-6.5-3.2c-2-0.5-4.1-0.5-6.4-0.1c-2.2,0.5-4.2,1.4-6,3
	c-1.8,1.5-3,3.5-3.6,6c-0.6,2.3-0.5,4.6,0.1,6.8c0.6,2.3,1.8,4.3,3.5,6c1.7,1.7,3.7,2.8,6.1,3.4c2.4,0.6,4.7,0.6,7-0.1
	c2.3-0.6,4.2-1.8,5.8-3.5c1.6-1.7,2.7-3.8,3.4-6.2C194.1,451.7,194.1,449.5,193.5,447.4z M183.1,455.7c-1.1,0.6-2.2,0.8-3.5,0.4
	c-1.5-0.4-2.6-1.1-3.3-2.3c-0.7-1.1-0.9-2.4-0.6-3.8c0.3-1.3,1.1-2.4,2.2-3.1c1.1-0.7,2.4-0.9,3.8-0.5c1.6,0.4,2.6,1.2,3.2,2.3
	c0.6,1.2,0.7,2.4,0.3,3.8C184.8,454.1,184.1,455.1,183.1,455.7z"/>
<path class="st10" d="M244.2,460.4c-1-1.9-2.5-3.5-4.5-4.6c-2-1.1-4.3-1.7-7-1.8c-2.1-0.1-4.2,0.3-6.2,1.2c-2.1,0.9-3.8,2.3-5.3,4.1
	c-1.4,1.8-2.2,4.1-2.3,6.6c-0.1,2.3,0.4,4.6,1.5,6.7c1.1,2.1,2.6,3.8,4.6,5.2c2,1.3,4.2,2,6.7,2.1c2.5,0.1,4.7-0.4,6.8-1.5
	c2.1-1.1,3.8-2.6,5-4.6c1.3-2,1.9-4.2,2-6.7C245.7,464.6,245.2,462.4,244.2,460.4z M235.6,470.8c-0.9,0.8-2,1.2-3.3,1.1
	c-1.5-0.1-2.7-0.6-3.7-1.6c-0.9-1-1.4-2.2-1.3-3.6c0.1-1.4,0.6-2.5,1.5-3.4c1-0.9,2.2-1.3,3.6-1.3c1.6,0.1,2.8,0.6,3.6,1.6
	c0.8,1,1.1,2.2,1.1,3.7C237,468.8,236.6,469.9,235.6,470.8z"/>
<path class="st10" d="M222.2,442c-1.3-3.8-3.2-6.8-5.8-9.1l-7,3.6c2.1,2.3,3.6,4.8,4.6,7.4c0.7,1.9,1.1,4.1,1.1,6.5
	c-0.9-1.1-1.9-2-3.2-2.7c-2-1.1-4.3-1.7-7-1.8c-2.1-0.1-4.2,0.3-6.2,1.2c-2.1,0.9-3.8,2.3-5.3,4.1c-1.4,1.8-2.2,4.1-2.3,6.6
	c-0.1,2.3,0.4,4.6,1.5,6.7c1.1,2.1,2.6,3.8,4.6,5.2c2,1.3,4.2,2,6.7,2.1c2,0.1,3.9-0.2,5.7-1l5.4,3.4c2.7-2.3,4.8-5.4,6.3-9.3
	c1.6-3.8,2.4-7.8,2.6-11.8C224.1,449.5,223.5,445.8,222.2,442z M200.9,462.2c-0.9-1-1.4-2.2-1.3-3.6c0.1-1.4,0.6-2.5,1.5-3.4
	c1-0.9,2.2-1.3,3.6-1.3c1.6,0.1,2.8,0.6,3.6,1.6c0.8,1,1.1,2.2,1.1,3.7c-0.1,1.5-0.5,2.6-1.5,3.5c-0.9,0.8-2,1.2-3.3,1.1
	C203.1,463.7,201.8,463.2,200.9,462.2z"/>
<path class="st10" d="M171.8,434.2c2.6-1.7,4.6-3.6,5.8-5.8l0.5-0.9l-6.3-5.5l-1.4,1.9c-0.6,0.9-1.3,1.7-2.1,2.4
	c0,0-4.9,6.3-15.4,3.4c-0.9-0.3-1.9-0.6-2.8-1.1l-2.2-1l-3,8.5l1.1,0.5c2.3,1.2,5.2,1.9,8.4,2c1.8,0.1,3.7,0,5.5-0.2
	c0.4,0.9,0.6,1.8,0.8,2.6c0.2,1.4,0.1,3.1-0.4,5c-0.4,1.7-1.1,3.2-2.1,4.5c-1,1.3-2.3,2.5-3.9,3.5l-1.9,1.2l6.4,6.1l1-0.5
	c2.1-1.2,4-3,5.6-5.3c1.5-2.3,2.7-4.8,3.3-7.4c0.6-2.4,0.7-5,0.4-7.6c-0.2-1.5-0.6-2.9-1.1-4.2C169.3,435.7,170.6,435,171.8,434.2z"
	/>
<g>
	<path class="st11" d="M320.8,574l77.9-123.5c0,0-32.7-18.9-13.8-63.7c0,0-2-31.2-28.4-62.3c-16.5-19.4-1.1-37.1,21.1-23.3
		c19.1,11.8,43.4,47.8,43.4,47.8l44.2-45.1c0,0,42.3,33,48.6,44.8c6.3,11.8-3.3,82.1-43.6,104.2L443.8,574H320.8z"/>
	<g>
		<g>
			<path class="st12" d="M418.8,420.7c0.6-6.5,1.4-12.9,4.8-18.7c4.1-6.9,12.4-11.7,19.6-14.7c1.1-0.5,0.2-2-0.9-1.6
				c-7.8,3.3-15.5,8.2-20.3,15.4c-3.8,5.7-4.5,12.9-5,19.6C416.9,421.9,418.7,421.9,418.8,420.7L418.8,420.7z"/>
		</g>
	</g>
</g>
<polygon class="st13" points="426.1,275.8 412.2,291.7 356.9,242.9 370.7,227 "/>
<polygon class="st14" points="363.8,235 370.7,227 426.1,275.8 419.1,283.7 "/>
<path class="st15" d="M521.9,347.7c8,7,8.9,19.2,1.9,27.2l0,0c-7,8-19.2,8.9-27.2,1.9l-94.4-82.3c-8-7-8.9-19.2-1.9-27.2l0,0
	c7-8,19.2-8.9,27.2-1.9L521.9,347.7z"/>
<g>
	<path class="st15" d="M365,93.7c44.8,39.1,49.5,107.1,10.4,151.9c-39.1,44.8-107.1,49.5-151.9,10.4C178.6,217,174,148.9,213,104.1
		C252.1,59.3,320.1,54.6,365,93.7z M226.8,116.1c-32.4,37.2-28.6,93.7,8.7,126.2c37.2,32.4,93.7,28.6,126.2-8.7
		c32.4-37.2,28.6-93.7-8.7-126.2C315.7,75,259.2,78.9,226.8,116.1z"/>
</g>
<g>
	<path class="st16" d="M362.2,96.8c43.1,37.6,47.6,102.9,10,146c-37.6,43.1-102.9,47.6-146,10c-43.1-37.6-47.6-102.9-10-146
		C253.7,63.8,319.1,59.3,362.2,96.8z M226.8,116.1c-32.4,37.2-28.6,93.7,8.7,126.2c37.2,32.4,93.7,28.6,126.2-8.7
		c32.4-37.2,28.6-93.7-8.7-126.2C315.7,75,259.2,78.9,226.8,116.1z"/>
</g>
<linearGradient id="SVGID_5_" gradientUnits="userSpaceOnUse" x1="1486.917" y1="501.5365" x2="1354.4603" y2="713.8306" gradientTransform="matrix(0.657 -0.7539 0.7539 0.657 -1099.7869 838.5626)">
	<stop  offset="1.482800e-02" style="stop-color:#FFFFFF"/>
	<stop  offset="0.9994" style="stop-color:#E1E7FF"/>
</linearGradient>
<path class="st17" d="M353,107.4c37.2,32.4,41.1,88.9,8.7,126.2c-32.4,37.2-88.9,41.1-126.2,8.7c-37.2-32.4-41.1-88.9-8.7-126.2
	C259.2,78.9,315.7,75,353,107.4z"/>
<g>
	<path class="st18" d="M352.5,226c2.4,1.8,5.8,1.4,7.6-1c13-17.1,18.8-38.3,16.3-59.7c-0.5-4.2-1.3-8.4-2.4-12.5
		c-0.8-2.9-3.8-4.6-6.7-3.8c-0.6,0.2-1.2,0.5-1.7,0.8c-1.8,1.3-2.7,3.6-2.1,5.9c1,3.5,1.7,7.2,2.1,10.8c2.1,18.6-2.9,37-14.2,51.8
		C349.7,220.8,350.2,224.2,352.5,226z"/>
	<path class="st18" d="M352.8,133.1c1.7,2.4,5.1,3,7.6,1.3c2.4-1.7,3-5.1,1.3-7.6c-6.6-9.3-14.9-17-24.6-22.8c-1.9-1.2-4.3-1-6,0.2
		c-0.6,0.4-1.1,1-1.5,1.6c-1.6,2.6-0.7,5.9,1.9,7.5C339.8,118.3,347,125,352.8,133.1z"/>
</g>
<g>
	<path class="st11" d="M482,280.1c-3.5-10.7-16.1-25.3-29.9-17.9c-13.8,7.4-47.4,40.5-42,65.5c3.7,17,22.4,13.1,37.7-3.6
		C463.2,307.4,482,280.1,482,280.1z"/>
	<g>
		<path class="st12" d="M435.2,335.5c-5.7,3.3-11.1,4.5-15.7,3.4c-5-1.2-8.6-5-10.3-11.2c-2.4-8.2,0.8-17.1,3.8-23.2
			c0.2-0.4,0.8-0.6,1.2-0.4c0.4,0.2,0.6,0.8,0.4,1.2c-2.9,5.8-5.9,14.3-3.7,21.9c1.6,5.5,4.7,8.9,9,9.9c7.4,1.7,17.8-3.6,27.2-13.9
			c0.3-0.4,0.9-0.4,1.3-0.1c0.4,0.3,0.4,0.9,0.1,1.3C444,329.3,439.5,333,435.2,335.5z"/>
	</g>
	<path class="st11" d="M502.3,303.8c1.4-12.8-10.8-32.9-28.1-22.9c-13.6,7.8-55.3,47.4-49.9,72.5c3.7,17,20.9,11.4,36.2-5.4
		C475.8,331.2,502.3,303.8,502.3,303.8z"/>
	<g>
		<path class="st12" d="M446.4,360.9c-5.5,3.2-10.6,4.4-14.6,3.3c-3-0.8-6.9-3.3-8.4-10.6c-3-14,8.1-31.4,18-43.5
			c11-13.4,25.1-25.8,32.3-30l0,0c0.4-0.2,1-0.1,1.2,0.3c0.3,0.4,0.1,1-0.3,1.2c-13.9,8-54.7,47.2-49.5,71.5
			c1.1,5.2,3.5,8.3,7.1,9.2c6.8,1.8,17.3-3.9,27.5-15.1c0.3-0.4,0.9-0.4,1.3-0.1c0.4,0.3,0.4,0.9,0.1,1.3
			C456.2,354,451.2,358.1,446.4,360.9z"/>
	</g>
	<path class="st11" d="M500.1,300.5c-4.7,2.7-10.8,7.4-17,13.3c-9.2,8.7-18.5,19.9-23.3,30.9c-2.8,6.3-4.1,12.5-3.2,18.1
		c2.2,13,12,11.5,26,1.8c2.4-1.7,5-3.6,7.7-5.8c9.2-7.4,17.4-17,20.6-20.8l2,1.8l9.1,7.9c1,0.9,1.9,1.8,2.6,2.8
		c2.1-9.5,3.6-21.2,1.9-31.6C524.3,306.2,514,292.5,500.1,300.5z"/>
	<g>
		<path class="st12" d="M510.2,339.9c-2.8,3.4-10.2,12.2-19.4,19.6c-13.7,11-23.1,15.2-29,13c-3.3-1.2-5.4-4.5-6.2-9.6
			c-2.1-12.7,6.8-27,14.7-36.9c9.9-12.3,21.8-22.1,29.2-26.4c0.4-0.3,1-0.1,1.2,0.3c0.3,0.4,0.1,1-0.3,1.2
			c-14.6,8.4-46.8,39.4-43.1,61.4c0.7,4.4,2.5,7.2,5.1,8.2c5.1,1.9,14.3-2.3,27.2-12.7c11.4-9.2,20.1-20.6,20.2-20.7
			c0.2-0.3,0.6-0.4,0.9-0.3c0.3,0.1,0.6,0.3,0.7,0.7L510.2,339.9z"/>
	</g>
</g>
</svg>
