<?xml version="1.0" encoding="utf-8"?>
<!-- Generator: Adobe Illustrator 22.1.0, SVG Export Plug-In . SVG Version: 6.00 Build 0)  -->
<svg version="1.1" id="Layer_1" xmlns="http://www.w3.org/2000/svg" xmlns:xlink="http://www.w3.org/1999/xlink" x="0px" y="0px"
	 viewBox="0 0 250 250" style="enable-background:new 0 0 250 250;" xml:space="preserve">
<style type="text/css">
	.st0{fill:#CEFF00;}
</style>
<g>
	<path class="st0" d="M151.3,38.5l-0.2,0.2c-1.4-0.4-2.7-0.7-3.7-0.9c-0.9-0.2-2.3-0.5-4.1-0.8l-0.2-0.2c0.9-2.9,1.5-5.2,1.9-6.8
		l0.9-3.9c0.7-3.2-0.1-5.1-2.4-5.6c-1.2-0.3-2.3-0.1-3.1,0.6c-0.7,0.6-1.2,1.2-1.3,1.9l-0.8,3.7c-0.8,3.4-1.1,5.6-1.1,6.4
		c0,0.5,0.7,0.9,2.1,1.2l0.2,0.2l-0.3,1.2l-0.2,0.2c-1.1-0.3-2.8-0.7-5-1.2c-2.4-0.5-4.2-0.9-5.5-1.1l-0.2-0.2l0.3-1.2l0.2-0.2
		c1.3,0.2,2.1,0.3,2.4,0.2c0.3-0.1,0.5-0.3,0.6-0.9c0.5-1.7,0.9-3.5,1.4-5.5l0.6-2.8c0.6-2.6,0.8-4.2,0.7-4.6
		c-0.1-0.3-0.3-0.5-0.7-0.7c-0.2-0.1-0.7-0.2-1.7-0.5l-0.2-0.2l0.2-1.1l0.2-0.2c2.4,0.3,5.1,0.3,7.9,0l0.4,0.4l-0.8,3.3l4-2.1
		c1-0.2,2-0.1,3,0.1c2.1,0.5,3.5,1.4,4.3,2.9c0.6,1.2,0.7,2.8,0.3,4.8c0,0.2-0.3,1.1-0.7,2.7s-0.7,2.8-0.8,3.4
		c-0.4,2-0.7,3.3-0.7,3.8c-0.1,0.6,0,0.9,0.2,1.1c0.2,0.2,0.9,0.4,2,0.7l0.1,0.2L151.3,38.5z"/>
	<path class="st0" d="M174.6,39.4c-2.2,4.3-5.1,6.4-8.8,6.4c-1.8,0-3.6-0.5-5.4-1.4c-2.8-1.4-4.5-3.3-5.1-5.7c-0.6-2.4-0.1-5,1.4-8
		c2.1-4.1,5-6.1,8.5-6c1.7,0,3.5,0.5,5.3,1.5c3.8,2,5.7,4.7,5.6,8C176.1,35.7,175.6,37.5,174.6,39.4z M168.8,38.3
		c1.6-3,2.3-5.3,2.4-6.9c0-1.6-0.6-2.8-2-3.5c-2.4-1.2-4.7,0.3-7,4.6c-2.9,5.5-3,9-0.3,10.4c1.7,0.9,3.2,0.5,4.6-1.1
		C167.3,40.9,168,39.8,168.8,38.3z"/>
	<path class="st0" d="M202.8,64.5c-1.3,1.1-2.7,1.9-4.2,2.5c-1.1,0.4-2.2,0.6-3.3,0.6c-0.5,0-1.2-0.1-2.3-0.4
		c-1.1-0.2-2.5-0.5-4.2-0.8c-0.9-0.3-1.8-0.9-2.6-1.8c-0.8-0.9-1.4-1.9-1.8-3.1l-5.8,5c-0.5,0.4-0.7,0.7-0.8,1c0,0.1,0,0.3,0.2,0.6
		c0.1,0.2,0.6,0.9,1.5,2.1l0,0.3l-1,0.8l-0.3,0c-1.1-1.5-2.4-3.1-4-4.8c-1.1-1.3-2.3-2.5-3.5-3.8l0-0.3l0.9-0.8l0.3,0
		c0.9,1,1.5,1.5,1.8,1.6c0.2,0,0.3,0,0.5-0.1c0.2-0.1,0.8-0.5,1.6-1.2c0.6-0.5,1.4-1.2,2.4-2l2.4-2l8.9-7.7c0.1-0.1,0.8-0.8,2.2-2.1
		c0.6-0.6,1-1,1.1-1.3c0.1-0.2,0.1-0.6-0.2-1c-0.1-0.1-0.5-0.6-1.1-1.4l0-0.3l0.9-0.7l0.3,0c1.9,1.8,4,3.4,6.4,4.8l0.1,0.5
		c-0.4,0.4-1.4,1.1-2.8,2.2c1.2,0.2,2.6,0.4,4.4,0.7c0.8,0.2,1.7,0.8,2.6,1.8c2.2,2.5,2.7,5.1,1.6,7.7
		C204.8,62.4,203.9,63.5,202.8,64.5z M197.5,62.2c2.2-1.9,3.2-3.8,3-5.7c-0.1-1-0.5-1.8-1.1-2.5c-1.1-1.3-2.5-1.9-4.3-1.8l-7.6,6.6
		c-0.2,1.8,0.2,3.2,1.2,4.4c1.4,1.7,3.3,2,5.5,1.1C195.3,63.8,196.4,63.1,197.5,62.2z"/>
	<path class="st0" d="M200.2,84.4l-0.3-0.1c-0.5-1.2-1.4-2.8-2.5-5c-1.2-2.1-2.1-3.7-2.8-4.8l0.1-0.3l1.1-0.6l0.3,0.1
		c0.7,1.1,1.1,1.8,1.4,2c0.2,0.2,0.6,0.2,1.1-0.1c1.6-0.8,4.3-2.2,8.2-4.3l6-3.3c2.5-1.4,4.5-2.5,6-3.4c0.4-0.3,0.6-0.6,0.7-0.9
		c0-0.3-0.3-1-0.9-2.2l0.1-0.3l1-0.5l0.3,0.1c1.5,2.2,3.3,4.2,5.3,6.1l0,0.5c-0.3,0.2-0.9,0.5-1.8,0.9c-2.9,1.4-6.1,3.1-9.5,5
		l-4.6,2.5c-3.9,2.1-6.5,3.6-8.1,4.6c-0.5,0.3-0.7,0.6-0.6,0.9c0,0.4,0.3,1.1,0.9,2.3l-0.1,0.3L200.2,84.4z"/>
	<path class="st0" d="M206.9,103.4l-0.3-0.1c-0.3-1.1-0.7-2.4-1.1-3.8c-0.4-1.1-0.7-2.1-1.1-3.1l0.2-0.2l2.7-0.7l-4.1-2.8
		c-0.3-0.2-0.6-0.6-0.8-1.1c-0.1-0.2-0.2-0.5-0.3-0.8c-0.5-1.4-0.4-2.7,0.2-3.7s1.7-1.8,3.2-2.3c2-0.6,3.6-0.5,4.9,0.5
		c1.4,1.1,3.1,3.6,5.2,7.6c2.1-0.7,3.3-1.6,3.6-2.9c0.2-0.8,0.2-1.7-0.1-2.6c-0.3-1-0.8-1.7-1.4-2.2l-2-0.2l-0.2-0.2l-0.1-1.1
		l0.2-0.2l2.3-0.6c2.3,1.6,3.7,2.9,4.2,3.9c0.2,0.4,0.5,1,0.7,1.7c0.8,2.5,0.7,4.6-0.2,6.1c-0.7,1.1-2.1,2-4.1,2.6
		c-0.5,0.2-1.3,0.4-2.4,0.7c-1.8,0.5-3,0.9-3.7,1.1c-1.9,0.6-3.2,1.1-3.7,1.3c-0.5,0.2-0.8,0.5-0.9,0.8c-0.1,0.3,0,0.9,0.3,1.8
		l-0.2,0.3L206.9,103.4z M209.1,94.8l4.8-1.5c-1.1-2-2.1-3.3-2.9-3.8c-0.8-0.6-1.7-0.7-2.8-0.3c-1.8,0.6-2.4,1.6-1.9,3.1
		C206.7,93.6,207.6,94.4,209.1,94.8z"/>
	<path class="st0" d="M214.7,119.7c-2.2,0.2-4-0.4-5.5-2c-1.5-1.5-2.4-3.6-2.6-6.2c-0.2-1.9,0-3.9,0.6-6.1l0.3-0.3
		c1.3,0,2.2,0,2.9-0.1l2.6-0.1l0.2,0.2l0.1,1.2l-0.2,0.3c-1.5,0.2-2.4,0.3-2.7,0.4c-1.4,1.3-2,2.9-1.8,4.7c0.1,1.2,0.5,2.1,1.1,2.8
		c0.6,0.7,1.5,0.9,2.4,0.8c1.2-0.1,2-0.7,2.3-1.9c0.1-0.5,0.3-1.4,0.4-2.8c0.3-2.3,0.7-3.8,1.2-4.6c0.8-1.2,2.1-1.9,3.9-2.1
		c2-0.2,3.6,0.4,4.9,1.7c1.4,1.4,2.2,3.3,2.4,5.9c0.2,2.2,0,4-0.6,5.5l-0.3,0.2c-0.6-0.1-2.2-0.1-4.7,0.1l-0.2-0.2l-0.1-1.2l0.2-0.2
		c1-0.1,1.7-0.3,2.3-0.5c1-1,1.4-2.2,1.3-3.9c-0.1-1.1-0.4-1.9-1-2.5c-0.6-0.6-1.3-0.9-2.1-0.8c-1.1,0.1-1.8,0.8-2.1,1.9
		c-0.1,0.5-0.2,1.5-0.4,3.1c-0.2,2.3-0.6,3.9-1.1,4.6C217.8,118.9,216.5,119.5,214.7,119.7z"/>
	<path class="st0" d="M209.9,134.7c-0.1-0.1-0.4-0.4-0.8-0.9c-0.7-0.9-1.3-1.6-1.9-2.2c-0.2-0.7-0.2-1.4-0.2-2c0.1-1.9,0.8-3.2,2-4
		c0.5-0.3,1.1-0.5,1.7-0.6c0.8-0.1,1.7-0.1,2.9,0l4.8,0.4l5.1,0.4l0-0.5l0-1.1l0.1-0.8l0.2-0.2l0.5,0l0.3,0.2
		c0.1,0.3,0.4,0.7,0.6,1.2c0.3,0.6,0.6,1.1,0.8,1.5l2.8,0.2c1.1,0.1,2.4,0.1,3.7,0.1c0.2,1,0.5,1.9,0.7,2.5c0.2,0.6,0.5,1.6,1,2.8
		l-0.4,0.5c-1.7-0.3-3.2-0.5-4.5-0.7l-3.5-0.5l-0.1,0.7c-0.1,1.5-0.2,2.7-0.2,3.8l-0.2,0.2l-2.3-0.5l-0.2-0.2l0.3-4.2l-6.9-0.5
		c-2.2-0.2-3.5-0.2-3.9-0.2c-0.6,0-1.1,0.2-1.4,0.6c-0.4,0.4-0.6,0.9-0.7,1.6c0,0.6,0.1,1.2,0.3,2L209.9,134.7z"/>
	<path class="st0" d="M204.4,146.6l-0.2-0.2c0.4-1.2,0.9-3,1.4-5.4c0.6-2.4,0.9-4.2,1.1-5.4l0.2-0.2l1.2,0.3l0.2,0.2
		c-0.3,1.3-0.3,2.1-0.3,2.4c0.1,0.3,0.3,0.5,0.8,0.7c1.7,0.5,3.5,1,5.5,1.4l2.8,0.7c2.6,0.6,4.1,0.9,4.6,0.8c0.3,0,0.5-0.3,0.7-0.7
		c0.1-0.2,0.2-0.7,0.5-1.7l0.2-0.2l1.1,0.3l0.2,0.2c-0.4,2.6-0.4,5.3-0.2,8l-0.4,0.4c-2.4-0.7-4.4-1.3-6-1.7l-6.3-1.5
		c-1-0.2-2.3-0.5-4.1-0.8c-0.5-0.1-0.9,0-1.1,0.2c-0.2,0.3-0.5,1-0.8,2.3l-0.3,0.2L204.4,146.6z M230.9,150c-0.8-0.2-1.5-0.7-2-1.4
		s-0.6-1.5-0.4-2.3c0.2-0.8,0.7-1.5,1.4-1.9c0.7-0.5,1.5-0.6,2.4-0.4c0.9,0.2,1.5,0.7,2,1.4c0.5,0.7,0.6,1.5,0.4,2.4
		c-0.2,0.8-0.7,1.5-1.4,1.9C232.6,150,231.8,150.2,230.9,150z"/>
	<path class="st0" d="M199.9,164.1l-1.5-1.6c-0.2-2.1,0.1-3.9,0.8-5.6c1.2-2.8,2.9-4.6,5.1-5.3c2.2-0.8,4.7-0.6,7.5,0.6
		c2.6,1.1,4.3,2.5,5.1,4.2c0.2,0.5,0.5,1.3,0.7,2.4c0.5,2.3,0.7,3.9,0.7,4.6c0,0.7-0.3,1.7-0.8,2.9c-0.7,1.7-1.6,3-2.6,3.9l-0.4,0
		c-0.2-0.1-0.7-0.4-1.6-1l-1.2-0.8c-0.2-0.1-1-0.5-2.4-1.3l-0.1-0.3l0.5-1.1l0.3-0.1c1.1,0.4,1.9,0.7,2.4,0.7c1.2-0.1,2.1-1,2.8-2.5
		c1.1-2.6,0-4.7-3.4-6.2c-2.5-1.1-4.7-1.4-6.6-1c-1.9,0.4-3.3,1.6-4.2,3.6c-0.5,1.2-0.7,2.4-0.6,3.5L199.9,164.1z"/>
	<path class="st0" d="M175.9,189.7l0-0.3c1.1-1,2-1.9,2.7-2.6c0.7-0.7,1.6-1.7,2.8-3.1l0.3,0c2,2.3,3.6,4,4.8,5.1l2.9,2.8
		c2.4,2.3,4.4,2.6,6.1,0.8c0.9-0.9,1.2-1.9,1.1-3c-0.1-0.9-0.4-1.6-1-2.1l-2.8-2.6c-2.5-2.4-4.2-3.8-4.9-4.3
		c-0.4-0.2-1.1,0.1-2.2,1.2l-0.3,0l-0.9-0.9l0-0.3c0.9-0.8,2.1-2,3.7-3.7c1.7-1.8,2.9-3.1,3.7-4.1l0.3,0l0.9,0.9l0,0.3
		c-0.9,1-1.4,1.6-1.4,2c-0.1,0.3,0,0.6,0.4,1c1.2,1.3,2.5,2.6,4,4l2.1,2c2,1.9,3.2,2.9,3.6,3c0.3,0.1,0.6,0,1-0.3
		c0.1-0.1,0.6-0.5,1.3-1.2l0.3,0l0.8,0.8l0,0.3c-1.5,1.9-2.9,4.2-4.1,6.7l-0.5,0.1l-2.4-2.4l-0.3,4.6c-0.4,0.9-0.9,1.7-1.6,2.5
		c-1.5,1.6-3.1,2.3-4.8,2.2c-1.4-0.1-2.8-0.9-4.3-2.3c-0.2-0.2-0.8-0.8-2-2c-1.2-1.2-2-2-2.5-2.5c-1.5-1.4-2.4-2.3-2.9-2.6
		c-0.5-0.3-0.8-0.5-1.1-0.4c-0.3,0.1-0.8,0.5-1.7,1.3l-0.3,0L175.9,189.7z"/>
	<path class="st0" d="M163,209.1c-2.5-4.1-2.8-7.7-0.9-10.8c0.9-1.5,2.2-2.8,4-3.9c2.7-1.6,5.2-2.1,7.5-1.4c2.3,0.7,4.4,2.5,6.1,5.3
		c2.4,4,2.7,7.4,0.8,10.4c-0.9,1.5-2.3,2.7-4,3.8c-3.7,2.3-6.9,2.5-9.7,0.6C165.4,212.3,164.1,211,163,209.1z M167,204.8
		c1.8,2.9,3.3,4.8,4.7,5.6c1.4,0.9,2.7,0.9,4,0.1c2.3-1.4,2.2-4.2-0.3-8.3c-3.3-5.3-6.2-7.2-8.8-5.6c-1.6,1-2.1,2.5-1.5,4.5
		C165.5,202.1,166.1,203.3,167,204.8z"/>
	<path class="st0" d="M126.9,220.2c-0.3-1.6-0.2-3.3,0.1-4.9c0.2-1.2,0.6-2.2,1.2-3.1c0.3-0.4,0.7-1,1.5-1.7
		c0.8-0.9,1.7-1.9,2.9-3.1c0.7-0.7,1.7-1.1,2.9-1.3c1.2-0.2,2.4-0.2,3.6,0.1l-1.3-7.5c-0.1-0.6-0.2-1-0.4-1.2
		c-0.1-0.1-0.3-0.1-0.6-0.2c-0.2,0-1.1,0-2.6,0.2l-0.3-0.2l-0.2-1.2l0.2-0.2c1.8-0.2,3.9-0.5,6.2-0.9c1.7-0.3,3.4-0.6,5-1l0.2,0.2
		l0.2,1.2l-0.2,0.3c-1.3,0.3-2.1,0.5-2.3,0.7c-0.1,0.1-0.2,0.3-0.2,0.4c0,0.3,0,0.9,0.2,2c0.1,0.8,0.2,1.8,0.4,3.1l0.5,3.1l2,11.7
		c0,0.1,0.2,1.1,0.6,2.9c0.2,0.9,0.4,1.4,0.5,1.6c0.1,0.2,0.4,0.3,0.9,0.3c0.2,0,0.8-0.1,1.8-0.2l0.2,0.2l0.2,1.1l-0.2,0.3
		c-2.5,0.7-5,1.7-7.5,3l-0.5-0.2c-0.1-0.6-0.2-1.7-0.4-3.5c-0.8,0.9-1.7,2-2.9,3.4c-0.6,0.6-1.5,1-2.9,1.3c-3.3,0.6-5.8-0.3-7.4-2.7
		C127.7,223,127.2,221.7,126.9,220.2z M131.7,216.9c0.5,2.9,1.6,4.8,3.3,5.5c0.9,0.4,1.8,0.5,2.7,0.4c1.6-0.3,2.9-1.2,3.7-2.7
		l-1.7-9.9c-1.4-1.1-2.9-1.5-4.3-1.2c-2.2,0.4-3.4,1.7-3.8,4.1C131.4,214.2,131.4,215.5,131.7,216.9z"/>
	<path class="st0" d="M111.3,207.7l0.2-0.2c1.3,0.2,3.1,0.3,5.6,0.4s4.3,0.1,5.6,0.1l0.2,0.2l-0.1,1.2l-0.2,0.2
		c-1.3,0-2.1,0-2.4,0.2c-0.3,0.1-0.4,0.4-0.5,1c-0.2,1.8-0.4,4.8-0.6,9.2l-0.3,6.8c-0.1,2.8-0.2,5.1-0.2,6.9c0,0.5,0.1,0.8,0.4,1
		c0.3,0.2,1,0.3,2.3,0.4l0.2,0.2l0,1.1l-0.2,0.2c-2.6,0.2-5.3,0.6-7.9,1.3l-0.4-0.3c0-0.4,0.1-1,0.1-2c0.3-3.2,0.5-6.8,0.7-10.7
		l0.2-5.2c0.2-4.4,0.3-7.5,0.3-9.3c0-0.5-0.1-0.9-0.4-1c-0.3-0.2-1.1-0.3-2.4-0.4l-0.2-0.2L111.3,207.7z"/>
	<path class="st0" d="M91.6,203.6l0.3-0.2c1.1,0.3,2.4,0.7,3.8,1c1.1,0.3,2.2,0.5,3.2,0.7l0.1,0.3l-0.8,2.6l4.5-2
		c0.4-0.2,0.8-0.2,1.4-0.1c0.2,0,0.5,0.1,0.8,0.1c1.5,0.3,2.5,1.1,3.1,2.1s0.7,2.4,0.3,3.9c-0.5,2.1-1.5,3.4-3,3.9
		c-1.6,0.6-4.7,0.8-9.1,0.5c-0.5,2.1-0.3,3.6,0.7,4.6c0.6,0.6,1.3,1,2.3,1.2c1,0.2,1.9,0.2,2.6-0.1l1.2-1.7l0.3-0.1l1,0.5l0.1,0.3
		l-0.7,2.3c-2.6,1.1-4.4,1.6-5.6,1.6c-0.5,0-1.1-0.1-1.8-0.3c-2.6-0.6-4.3-1.7-5.1-3.4c-0.6-1.2-0.6-2.8-0.1-4.8
		c0.1-0.5,0.3-1.3,0.6-2.4c0.5-1.8,0.8-3.1,1-3.7c0.5-2,0.7-3.3,0.8-3.8c0.1-0.6,0-0.9-0.2-1.1s-0.8-0.4-1.7-0.7l-0.1-0.3
		L91.6,203.6z M97.7,209.9l-1.2,4.9c2.3,0,3.9-0.1,4.8-0.5c0.9-0.4,1.5-1.1,1.7-2.2c0.4-1.8-0.1-2.9-1.7-3.3
		C100,208.5,98.8,208.9,97.7,209.9z"/>
	<path class="st0" d="M73.5,201.8c0.9-2,2.5-3.2,4.5-3.7c2.1-0.5,4.3-0.2,6.7,1c1.7,0.8,3.3,2.1,4.9,3.7l0.1,0.4
		c-0.7,1.1-1.1,1.9-1.5,2.5l-1.2,2.3l-0.3,0.1l-1.1-0.5l-0.1-0.3c0.6-1.4,0.9-2.2,1-2.5c-0.4-1.8-1.4-3.2-3.1-4
		c-1.1-0.5-2.1-0.7-3-0.5c-0.9,0.2-1.6,0.8-2,1.6c-0.5,1.1-0.4,2.1,0.4,2.9c0.3,0.4,1.1,1,2.2,1.8c1.8,1.4,2.9,2.5,3.3,3.4
		c0.6,1.3,0.6,2.8-0.2,4.4c-0.9,1.8-2.2,2.9-4,3.3c-1.9,0.5-4,0.2-6.3-0.9c-2-0.9-3.4-2.1-4.4-3.3l0-0.4c0.4-0.5,1.2-1.8,2.3-4.1
		l0.3-0.1l1,0.5l0.1,0.3c-0.4,0.9-0.6,1.7-0.8,2.3c0.3,1.3,1.2,2.4,2.6,3.1c1,0.5,1.8,0.6,2.7,0.4c0.8-0.2,1.4-0.6,1.8-1.4
		c0.5-1,0.3-1.9-0.6-2.8c-0.4-0.4-1.2-1-2.4-1.9c-1.9-1.4-3-2.5-3.4-3.3C72.7,204.9,72.7,203.5,73.5,201.8z"/>
	<path class="st0" d="M63.2,189.9c0.1,0,0.5-0.1,1.2-0.2c1.1-0.1,2.1-0.3,2.9-0.5c0.7,0.2,1.3,0.5,1.8,0.9c1.5,1.1,2.3,2.4,2.4,3.8
		c0,0.6-0.1,1.2-0.4,1.8c-0.3,0.7-0.8,1.5-1.6,2.5l-2.9,3.9l-3,4.1l0.4,0.3l0.9,0.6l0.7,0.5l0.1,0.3l-0.3,0.4l-0.3,0.2
		c-0.3,0-0.7,0-1.4-0.1c-0.7,0-1.3-0.1-1.7,0l-1.6,2.2c-0.7,0.9-1.3,2-2,3.1c-1-0.3-1.9-0.6-2.5-0.7c-0.7-0.2-1.6-0.4-2.9-0.6
		l-0.2-0.6c1.1-1.3,2.1-2.4,2.9-3.5l2.2-2.7l-0.5-0.4c-1.2-0.9-2.3-1.6-3.2-2.1l-0.1-0.3l1.6-1.8l0.3,0l3.4,2.5l4-5.6
		c1.3-1.8,2-2.9,2.2-3.2c0.3-0.5,0.4-1,0.2-1.5c-0.1-0.5-0.5-1-1.1-1.4c-0.5-0.3-1.1-0.6-1.9-0.8L63.2,189.9z"/>
	<path class="st0" d="M39.3,200c0.6-0.6,1.3-0.9,2.2-0.9c0.9,0,1.6,0.3,2.2,0.9c0.6,0.6,0.9,1.3,0.9,2.2c0,0.9-0.3,1.6-0.9,2.2
		c-0.6,0.6-1.4,1-2.2,1c-0.9,0-1.6-0.3-2.2-0.9c-0.6-0.6-0.9-1.3-0.9-2.2C38.3,201.4,38.7,200.6,39.3,200z M55.9,179.1l0.3,0
		c0.9,1,2.1,2.3,3.9,4s3.1,3,4.1,3.8l0,0.3l-0.9,0.9l-0.3,0c-1-0.9-1.6-1.4-1.9-1.5c-0.3-0.1-0.6,0-1,0.4c-1.3,1.2-2.7,2.5-4.1,3.9
		l-2,2.1c-1.8,1.9-2.9,3.1-3.1,3.5c-0.1,0.3,0,0.6,0.3,1c0.1,0.1,0.5,0.6,1.2,1.3l0,0.3l-0.8,0.8l-0.3,0c-2-1.7-4.3-3.1-6.8-4.3
		l-0.1-0.5c1.9-1.6,3.4-3.1,4.6-4.3l4.5-4.6c0.7-0.7,1.6-1.7,2.8-3c0.4-0.4,0.5-0.7,0.4-1c-0.1-0.3-0.6-1-1.5-1.9l0-0.3L55.9,179.1z
		"/>
	<path class="st0" d="M43.2,166.1l2.2-0.4c1.9,0.9,3.3,2.1,4.3,3.6c1.8,2.5,2.4,4.8,1.9,7.2c-0.5,2.3-2,4.3-4.4,6.1
		c-2.3,1.6-4.4,2.3-6.3,2.2c-0.5,0-1.3-0.3-2.4-0.6c-2.3-0.8-3.7-1.4-4.3-1.8c-0.6-0.4-1.3-1.1-2.1-2.2c-1.1-1.5-1.7-2.9-2-4.2
		l0.2-0.4c0.2-0.1,0.7-0.4,1.7-0.9l1.3-0.6c0.2-0.1,1-0.6,2.3-1.4l0.3,0l0.7,1l0,0.3c-0.9,0.8-1.6,1.3-1.9,1.7
		c-0.5,1.1-0.3,2.3,0.7,3.7c1.7,2.3,4,2.4,7.1,0.3c2.2-1.6,3.6-3.3,4.2-5.1c0.6-1.9,0.3-3.7-0.9-5.5c-0.8-1.1-1.6-1.8-2.7-2.3
		L43.2,166.1z"/>
	<path class="st0" d="M33.8,132.3l0.3,0.1c0.3,1.5,0.6,2.7,0.8,3.7c0.2,0.9,0.7,2.2,1.2,4l-0.1,0.3c-3,0.6-5.3,1-6.8,1.5l-3.8,1
		c-3.2,0.9-4.5,2.4-3.9,4.8c0.3,1.2,1,2,2,2.5c0.8,0.4,1.6,0.5,2.3,0.3l3.7-1c3.4-0.9,5.4-1.6,6.2-1.9c0.4-0.2,0.5-1.1,0.1-2.5
		l0.1-0.2l1.2-0.3l0.2,0.1c0.2,1.1,0.6,2.8,1.2,5c0.6,2.3,1.2,4.1,1.6,5.3l-0.1,0.3l-1.2,0.3l-0.2-0.1c-0.4-1.2-0.7-2-0.9-2.3
		c-0.2-0.2-0.5-0.3-1.1-0.2c-1.7,0.4-3.6,0.8-5.5,1.3l-2.8,0.8c-2.6,0.7-4.1,1.2-4.4,1.5c-0.2,0.2-0.3,0.5-0.3,1
		c0,0.2,0.1,0.7,0.4,1.7l-0.1,0.2l-1.1,0.3l-0.3-0.1c-0.9-2.3-2.1-4.6-3.6-7l0.1-0.5l3.3-0.9l-3.7-2.6c-0.6-0.8-1-1.7-1.3-2.7
		c-0.6-2.1-0.4-3.8,0.6-5.2c0.8-1.1,2.2-1.9,4.2-2.5c0.2-0.1,1.1-0.3,2.8-0.7c1.6-0.4,2.8-0.7,3.4-0.8c2-0.5,3.2-0.9,3.8-1.1
		c0.5-0.2,0.8-0.5,0.9-0.7c0.1-0.3,0-1-0.3-2.1l0.1-0.2L33.8,132.3z"/>
	<path class="st0" d="M23.8,111.4c4.8-0.1,8.1,1.5,9.8,4.7c0.9,1.6,1.3,3.3,1.3,5.4c0.1,3.1-0.8,5.5-2.6,7.2
		c-1.8,1.7-4.3,2.5-7.7,2.6c-4.6,0.1-7.8-1.5-9.4-4.6c-0.8-1.5-1.2-3.4-1.2-5.4c-0.1-4.3,1.4-7.2,4.4-8.7
		C19.8,111.8,21.6,111.4,23.8,111.4z M25.5,117c-3.4,0.1-5.8,0.5-7.2,1.2c-1.4,0.8-2.2,1.9-2.1,3.4c0,2.7,2.5,4,7.4,3.9
		c6.2-0.1,9.3-1.7,9.3-4.7c0-1.9-1.1-3.1-3.2-3.5C28.6,117.1,27.2,117,25.5,117z"/>
	<path class="st0" d="M33.1,74.6c1.6,0.6,2.9,1.5,4.1,2.6c0.9,0.8,1.5,1.7,2,2.6c0.2,0.4,0.4,1.1,0.7,2.2c0.3,1.1,0.7,2.5,1.2,4.1
		c0.2,0.9,0.1,2-0.4,3.1c-0.4,1.1-1.1,2.1-1.9,3.1l7.1,2.8c0.6,0.2,1,0.3,1.2,0.2c0.1,0,0.3-0.2,0.4-0.4c0.1-0.2,0.5-1,1.2-2.3
		l0.3-0.1l1.2,0.5l0.1,0.3c-0.8,1.7-1.6,3.6-2.4,5.7c-0.6,1.6-1.2,3.2-1.7,4.8l-0.3,0.1l-1.1-0.4l-0.1-0.3c0.5-1.3,0.7-2.1,0.6-2.3
		c-0.1-0.2-0.2-0.3-0.3-0.4c-0.2-0.1-0.8-0.4-1.8-0.9c-0.7-0.3-1.7-0.7-2.9-1.2l-2.9-1.2l-11-4.3c-0.1,0-1.1-0.4-2.8-1
		c-0.8-0.3-1.4-0.4-1.7-0.4c-0.3,0-0.5,0.2-0.8,0.6c-0.1,0.1-0.3,0.7-0.8,1.6l-0.3,0.1L19,93.3l-0.1-0.3c0.7-2.5,1.2-5.1,1.3-7.9
		l0.4-0.3c0.5,0.2,1.6,0.7,3.2,1.5c-0.4-1.1-0.8-2.5-1.4-4.2c-0.2-0.8-0.1-1.8,0.4-3.1c1.2-3.1,3.3-4.8,6.1-5
		C30.3,73.8,31.7,74.1,33.1,74.6z M33.5,80.4c-2.7-1.1-4.9-1.1-6.4,0c-0.8,0.6-1.4,1.3-1.7,2.1c-0.6,1.6-0.5,3.1,0.4,4.6l9.4,3.7
		c1.7-0.7,2.8-1.7,3.3-3.1c0.8-2.1,0.3-3.9-1.6-5.4C35.9,81.6,34.8,80.9,33.5,80.4z"/>
	<path class="st0" d="M51.9,67.8l0.1,0.3c-0.8,1-1.9,2.5-3.2,4.5c-1.4,2-2.3,3.6-3,4.7l-0.3,0.1l-1-0.7l-0.1-0.3
		c0.7-1.1,1.1-1.8,1.1-2.2c0-0.3-0.1-0.6-0.6-0.9c-1.4-1.1-3.9-2.8-7.6-5.3l-5.7-3.8c-2.4-1.6-4.3-2.8-5.8-3.7
		c-0.4-0.3-0.8-0.3-1.1-0.2c-0.3,0.1-0.8,0.7-1.6,1.8l-0.3,0l-0.9-0.6l-0.1-0.3c1.2-2.3,2.2-4.8,3-7.5l0.4-0.2
		c0.3,0.2,0.9,0.6,1.6,1.2c2.6,1.9,5.6,4,8.8,6.2l4.4,2.9c3.7,2.5,6.2,4.1,7.8,5c0.5,0.3,0.8,0.3,1.1,0.2c0.3-0.2,0.8-0.8,1.6-1.8
		l0.3-0.1L51.9,67.8z"/>
	<path class="st0" d="M65.6,53.1l0,0.3c-0.8,0.8-1.8,1.7-2.8,2.7c-0.8,0.8-1.6,1.6-2.3,2.4l-0.3,0l-1.8-2l-0.6,4.9
		c-0.1,0.4-0.3,0.8-0.6,1.3c-0.1,0.2-0.3,0.4-0.5,0.6c-1.1,1.1-2.2,1.6-3.4,1.5c-1.2-0.1-2.4-0.7-3.5-1.8c-1.5-1.5-2.1-3-1.8-4.6
		c0.3-1.7,1.8-4.4,4.3-8.1c-1.5-1.5-3-2.1-4.3-1.8c-0.8,0.2-1.5,0.6-2.2,1.3c-0.7,0.8-1.2,1.5-1.3,2.2l0.8,1.9l-0.1,0.3l-0.9,0.6
		L44,54.7l-1.6-1.8c0.4-2.8,0.9-4.6,1.5-5.6c0.3-0.4,0.7-0.9,1.2-1.4c1.9-1.9,3.7-2.8,5.5-2.6c1.3,0.1,2.7,0.9,4.2,2.4
		c0.4,0.4,0.9,1,1.7,1.8c1.3,1.4,2.2,2.3,2.6,2.7c1.5,1.4,2.4,2.3,2.9,2.7c0.4,0.3,0.8,0.5,1.1,0.4c0.3-0.1,0.8-0.4,1.5-1.1l0.3,0
		L65.6,53.1z M57,55l-3.6-3.5c-1.2,1.9-1.9,3.4-2.1,4.3c-0.1,1,0.2,1.8,1,2.6c1.3,1.3,2.5,1.4,3.7,0.2C57.1,57.7,57.4,56.5,57,55z"
		/>
	<path class="st0" d="M76.5,38.5c1.2,1.8,1.5,3.8,0.8,5.8S75.2,48,73,49.5c-1.6,1-3.5,1.8-5.7,2.3l-0.4-0.1c-0.6-1.1-1-2-1.4-2.6
		l-1.3-2.2l0-0.3l1-0.7l0.3,0.1c0.9,1.2,1.4,2,1.6,2.1c1.8,0.6,3.4,0.4,5-0.6c1-0.7,1.6-1.4,1.9-2.3c0.3-0.9,0.2-1.7-0.4-2.5
		c-0.7-1-1.6-1.4-2.7-1.2c-0.5,0.1-1.4,0.4-2.7,0.9c-2.1,0.8-3.7,1.2-4.7,1.1c-1.5-0.1-2.7-1-3.7-2.5c-1.1-1.6-1.3-3.4-0.8-5.1
		c0.6-1.9,1.9-3.5,4-4.9c1.8-1.2,3.5-1.9,5.1-2l0.3,0.2c0.2,0.6,1,2,2.3,4.1l-0.1,0.3l-1,0.6l-0.3,0c-0.6-0.8-1.1-1.4-1.5-1.8
		c-1.3-0.4-2.6-0.2-4,0.7c-0.9,0.6-1.5,1.3-1.8,2.1c-0.3,0.8-0.2,1.6,0.3,2.3c0.6,0.9,1.5,1.3,2.7,0.9c0.5-0.1,1.5-0.5,2.9-1.1
		c2.2-0.9,3.7-1.3,4.6-1.2C74.3,36.2,75.5,37,76.5,38.5z"/>
	<path class="st0" d="M92,35.9c0,0.1-0.2,0.5-0.5,1.1c-0.4,1-0.8,1.9-1.1,2.7c-0.5,0.5-1.1,0.8-1.7,1.1c-1.7,0.7-3.2,0.8-4.4,0.1
		c-0.5-0.3-1-0.7-1.3-1.2c-0.4-0.6-0.9-1.5-1.3-2.6l-1.8-4.5l-2-4.7l-0.5,0.2l-1,0.5l-0.8,0.3l-0.3-0.1l-0.2-0.5l0-0.3
		c0.2-0.2,0.4-0.6,0.8-1.1c0.4-0.6,0.7-1.1,0.9-1.4l-1.1-2.5c-0.5-1.1-1-2.2-1.6-3.3c0.8-0.7,1.5-1.3,1.9-1.8s1.1-1.2,2-2.2l0.6,0.2
		c0.5,1.6,1,3,1.4,4.3l1.2,3.3l0.6-0.3c1.4-0.6,2.5-1.1,3.5-1.6l0.3,0.1l0.7,2.3l-0.1,0.3l-3.9,1.7l2.7,6.3c0.9,2,1.4,3.2,1.6,3.6
		c0.3,0.5,0.7,0.8,1.2,1c0.5,0.2,1.1,0.1,1.8-0.2c0.5-0.2,1.1-0.6,1.7-1.2L92,35.9z"/>
	<path class="st0" d="M105.1,35.2l-0.1,0.2c-1.3,0.2-3.1,0.6-5.4,1.2c-2.4,0.6-4.1,1.1-5.3,1.5L93.9,38l-0.3-1.2l0.1-0.2
		c1.3-0.4,2-0.7,2.3-0.9c0.2-0.2,0.3-0.5,0.2-1.1c-0.3-1.7-0.8-3.6-1.3-5.5l-0.7-2.8c-0.6-2.5-1.1-4-1.4-4.5c-0.2-0.2-0.5-0.3-1-0.3
		c-0.2,0-0.7,0.1-1.7,0.3l-0.2-0.1l-0.3-1.1l0.1-0.3c2.5-0.9,4.9-2.1,7.2-3.6l0.5,0.2c0.4,2.4,0.9,4.5,1.3,6.1l1.6,6.3
		c0.2,1,0.6,2.3,1.2,4c0.2,0.5,0.4,0.8,0.7,0.8c0.3,0.1,1.1,0,2.4-0.3l0.3,0.1L105.1,35.2z M95.8,10.2c0.2,0.8,0.1,1.6-0.3,2.4
		c-0.4,0.7-1.1,1.2-1.9,1.4c-0.8,0.2-1.6,0.1-2.4-0.4c-0.7-0.4-1.2-1.1-1.4-1.9c-0.2-0.9-0.1-1.7,0.3-2.4c0.4-0.7,1.1-1.2,1.9-1.4
		c0.8-0.2,1.6-0.1,2.3,0.3C95.1,8.7,95.6,9.3,95.8,10.2z"/>
	<path class="st0" d="M122.7,31.1l-0.7,2.1c-1.8,1.1-3.5,1.7-5.3,1.8c-3,0.2-5.4-0.5-7.1-2.1c-1.7-1.6-2.7-3.9-2.9-6.9
		c-0.2-2.8,0.3-4.9,1.4-6.5c0.3-0.4,0.9-1,1.8-1.7c1.8-1.5,3.1-2.4,3.7-2.8c0.6-0.3,1.6-0.5,3-0.6c1.8-0.1,3.4,0,4.6,0.5l0.2,0.4
		c0,0.2-0.1,0.8-0.1,1.9l-0.1,1.4c0,0.2,0,1.1,0,2.7l-0.2,0.2l-1.2,0.1l-0.2-0.2c-0.2-1.2-0.3-2-0.5-2.5c-0.7-1-1.9-1.5-3.5-1.3
		c-2.9,0.2-4.2,2.2-3.9,5.9c0.2,2.7,0.9,4.8,2.2,6.3c1.3,1.5,3,2.2,5.1,2.1c1.3-0.1,2.4-0.5,3.4-1.1L122.7,31.1z"/>
</g>
</svg>
