<?xml version="1.0" encoding="utf-8"?>
<!-- Generator: Adobe Illustrator 22.1.0, SVG Export Plug-In . SVG Version: 6.00 Build 0)  -->
<svg version="1.1" id="Layer_1" xmlns="http://www.w3.org/2000/svg" xmlns:xlink="http://www.w3.org/1999/xlink" x="0px" y="0px"
	 viewBox="0 0 500 500" style="enable-background:new 0 0 500 500;" xml:space="preserve">
<style type="text/css">
	.st0{fill:#FFFFFF;}
</style>
<g>
	<path class="st0" d="M250,82c44.9,0,87.1,17.5,118.8,49.2C400.6,162.9,418,205.1,418,250s-17.5,87.1-49.2,118.8
		C337.1,400.6,294.9,418,250,418s-87.1-17.5-118.8-49.2C99.4,337.1,82,294.9,82,250s17.5-87.1,49.2-118.8
		C162.9,99.4,205.1,82,250,82 M250,81c-93.4,0-169,75.7-169,169s75.7,169,169,169s169-75.7,169-169S343.4,81,250,81L250,81z"/>
</g>
<g>
	<g>
		<path class="st0" d="M203.4,394.6c-1.6-0.5-3-1.3-4.1-2.3s-1.8-2.3-2.1-3.9c-0.3-1.6-0.2-3.4,0.5-5.5l3.6-11.8l6,1.8l-3.3,10.9
			c-0.5,1.7-0.5,3,0,4c0.5,1,1.4,1.7,2.7,2.1c0.9,0.3,1.9,0.3,2.7,0.2s1.6-0.6,2.3-1.3c0.7-0.7,1.2-1.6,1.6-2.9l3.1-10.2l6,1.8
			l-6.3,20.6l-5.7-1.7l1.7-5.7l0.5,2c-1.2,1.2-2.5,1.9-4.1,2.2C206.8,395.2,205.2,395.1,203.4,394.6z"/>
		<path class="st0" d="M188.5,364.2c2,1.1,3.5,2.5,4.6,4.1c1.1,1.7,1.7,3.5,1.8,5.5c0.1,1.9-0.4,3.9-1.4,5.7c-1,1.9-2.4,3.3-4.1,4.3
			c-1.7,1-3.5,1.5-5.5,1.5c-2,0-4-0.6-6-1.6c-2-1.1-3.6-2.5-4.7-4.2c-1.1-1.7-1.7-3.5-1.8-5.4c-0.1-1.9,0.4-3.9,1.4-5.8
			c1-1.9,2.4-3.3,4.1-4.3c1.7-1,3.5-1.5,5.6-1.5C184.4,362.5,186.4,363.1,188.5,364.2z M186,368.7c-0.9-0.5-1.9-0.7-2.8-0.7
			c-0.9,0-1.8,0.3-2.7,0.9s-1.6,1.4-2.2,2.5c-0.6,1.1-0.9,2.2-0.9,3.2s0.3,1.9,0.8,2.7c0.5,0.8,1.2,1.4,2.1,1.9
			c0.9,0.5,1.8,0.7,2.8,0.7c0.9,0,1.9-0.3,2.7-0.8c0.9-0.5,1.6-1.4,2.2-2.5c0.6-1.1,0.9-2.1,0.9-3.2s-0.3-2-0.8-2.8
			C187.6,369.8,186.9,369.2,186,368.7z"/>
		<path class="st0" d="M158.1,341.5c1.3,1.2,2.1,2.6,2.5,4.2c0.4,1.5,0.3,3.1-0.3,4.8s-1.8,3.5-3.5,5.2c-1.8,1.8-3.5,3-5.1,3.7
			c-1.7,0.7-3.2,0.8-4.8,0.4c-1.5-0.4-3-1.2-4.3-2.5c-1.5-1.4-2.5-3-3-4.8c-0.5-1.8-0.5-3.6,0-5.4c0.5-1.8,1.5-3.6,3.1-5.2
			c1.6-1.6,3.3-2.7,5.1-3.2c1.8-0.5,3.6-0.5,5.4-0.1C155,339.1,156.6,340.1,158.1,341.5z M155.3,345.9c-0.7-0.7-1.6-1.2-2.5-1.4
			c-0.9-0.2-1.9-0.2-2.8,0.1c-1,0.3-1.9,0.9-2.8,1.8c-0.9,0.9-1.4,1.8-1.7,2.8c-0.3,1-0.3,1.9,0,2.8c0.3,0.9,0.8,1.7,1.5,2.4
			c0.7,0.7,1.6,1.2,2.5,1.5c0.9,0.2,1.9,0.2,2.8-0.1c1-0.3,1.9-0.9,2.8-1.8c0.9-0.9,1.4-1.8,1.7-2.8s0.3-1.9,0-2.9
			S156,346.6,155.3,345.9z M172.4,345.1L151.9,366l-4.3-4.2l3.1-3.1l4.6-4.5l4.2-4.8l8.5-8.7L172.4,345.1z"/>
		<path class="st0" d="M148.6,331.4l-23.6,18l-3.8-5l23.6-18L148.6,331.4z"/>
		<path class="st0" d="M135.2,311.1l-3.6,2.1l-0.6,0.8l-6.5,3.7c-1.2,0.7-1.9,1.5-2.1,2.6c-0.2,1.1,0,2.3,0.9,3.8
			c0.6,1,1.3,1.9,2.1,2.7s1.8,1.4,2.7,1.8l-2.7,4.1c-1.3-0.6-2.6-1.5-3.8-2.7c-1.2-1.2-2.2-2.6-3.1-4c-1.6-2.8-2.2-5.4-1.8-7.8
			c0.4-2.3,2.1-4.3,4.9-6l10.7-6.1L135.2,311.1z M138.7,316.7c0.8,1.4,1.3,2.8,1.4,4.1s-0.1,2.5-0.7,3.6c-0.5,1.1-1.3,1.9-2.4,2.5
			c-1.1,0.6-2.2,0.9-3.4,0.8c-1.2-0.1-2.3-0.6-3.4-1.5s-2.3-2.3-3.4-4.3l-2.8-4.9l3.1-1.8l2.5,4.4c0.7,1.3,1.4,2,2.1,2.3
			c0.7,0.2,1.3,0.2,2-0.2c0.7-0.4,1.1-1,1.2-1.8c0.1-0.8-0.1-1.6-0.7-2.6c-0.5-0.9-1.2-1.6-2-2.1c-0.8-0.5-1.8-0.6-2.8-0.5l2.1-2.3
			c1.4-0.3,2.7-0.1,3.9,0.6C136.7,313.9,137.8,315,138.7,316.7z"/>
		<path class="st0" d="M128.3,295c0.6,1.7,1,3.5,1.2,5.2c0.2,1.7,0.1,3.2-0.2,4.4l-4.9-0.4c0.2-1.2,0.3-2.4,0.2-3.8
			c-0.1-1.4-0.4-2.7-0.8-3.9c-0.5-1.4-1-2.3-1.5-2.7c-0.5-0.4-1.1-0.6-1.7-0.4c-0.5,0.2-0.8,0.5-0.8,1c-0.1,0.5,0,1.2,0.1,1.9
			s0.3,1.6,0.5,2.5c0.2,0.9,0.3,1.9,0.4,2.8c0.1,0.9,0.1,1.9-0.1,2.8c-0.1,0.9-0.5,1.7-1.1,2.4s-1.4,1.3-2.6,1.7
			c-1.3,0.5-2.5,0.5-3.8,0.1c-1.3-0.4-2.4-1.2-3.5-2.3c-1.1-1.2-1.9-2.7-2.7-4.7c-0.5-1.4-0.9-2.9-1.1-4.4c-0.2-1.5-0.2-2.9,0-4.1
			l4.9,0.5c-0.2,1.2-0.2,2.3-0.1,3.3c0.1,1.1,0.4,2.1,0.7,3c0.5,1.4,1,2.3,1.6,2.7s1.1,0.6,1.7,0.4c0.5-0.2,0.8-0.5,0.9-1.1
			c0.1-0.5,0.1-1.2-0.1-2c-0.1-0.8-0.3-1.6-0.5-2.5c-0.2-0.9-0.3-1.8-0.4-2.8c-0.1-0.9-0.1-1.8,0.1-2.7c0.1-0.9,0.5-1.7,1.1-2.4
			s1.4-1.3,2.6-1.7c1.2-0.4,2.5-0.5,3.7-0.1c1.2,0.4,2.4,1.2,3.5,2.4C126.7,291.3,127.6,292.9,128.3,295z"/>
		<path class="st0" d="M122.5,274c0.5,2.5,0.3,4.5-0.7,6.2c-1,1.7-2.7,2.7-5.2,3.3l-18.5,3.9l-1.3-6.1l18.4-3.9
			c0.9-0.2,1.5-0.6,1.9-1.1c0.4-0.6,0.5-1.2,0.4-2c-0.2-1-0.6-1.8-1.3-2.3l4-2.5c0.6,0.5,1.1,1.2,1.5,2
			C122,272.2,122.3,273,122.5,274z M108.6,288.5l-4.7,1l-3.1-14.6l4.7-1L108.6,288.5z"/>
		<path class="st0" d="M96.3,265.6c0.1,1.2-0.1,2.1-0.7,2.9c-0.6,0.8-1.4,1.2-2.4,1.3s-1.8-0.2-2.6-0.8c-0.7-0.6-1.2-1.6-1.3-2.7
			c-0.1-1.1,0.1-2.1,0.7-2.9c0.6-0.8,1.3-1.2,2.3-1.3c1-0.1,1.9,0.2,2.7,0.8C95.7,263.6,96.1,264.5,96.3,265.6z M121,266.3
			l-21.4,2.2l-0.6-6.2l21.4-2.2L121,266.3z"/>
		<path class="st0" d="M120.4,244.8c-0.1,2.3-0.6,4.4-1.6,6.1c-1,1.8-2.4,3.1-4.1,4.1c-1.7,1-3.6,1.4-5.8,1.4
			c-2.2-0.1-4-0.6-5.7-1.7c-1.6-1.1-2.9-2.5-3.8-4.4s-1.3-3.9-1.3-6.2c0.1-2.3,0.6-4.2,1.6-5.9c1-1.7,2.4-2.8,4.1-3.5l2.5,4.9
			c-1,0.6-1.8,1.2-2.3,2.1c-0.5,0.8-0.7,1.7-0.8,2.7c0,1,0.2,2,0.6,2.9c0.4,0.9,1.1,1.6,2,2.1c0.9,0.5,1.9,0.8,3.2,0.9
			c1.3,0,2.3-0.2,3.2-0.7c0.9-0.5,1.6-1.1,2.1-2c0.5-0.8,0.8-1.8,0.8-2.8c0-1-0.2-1.9-0.6-2.7c-0.4-0.8-1.2-1.6-2.2-2.2l2.8-4.7
			c1.7,0.8,3,2.1,3.9,3.8C120.1,240.5,120.5,242.5,120.4,244.8z"/>
		<path class="st0" d="M105.5,203.2c0.5-1.6,1.3-3,2.3-4.1c1-1.1,2.4-1.8,3.9-2.1c1.6-0.3,3.4-0.2,5.5,0.5l11.8,3.6l-1.8,6
			l-10.9-3.3c-1.7-0.5-3-0.5-4,0c-1,0.5-1.7,1.4-2.1,2.7c-0.3,0.9-0.3,1.9-0.2,2.7c0.2,0.9,0.6,1.6,1.3,2.3c0.7,0.7,1.6,1.2,2.9,1.6
			l10.2,3.1l-1.8,6l-20.6-6.3l1.8-5.7l5.7,1.8l-2,0.5c-1.1-1.2-1.9-2.5-2.2-4.2C104.8,206.6,105,205,105.5,203.2z"/>
		<path class="st0" d="M135.9,188.3c-1.1,2-2.5,3.5-4.2,4.6c-1.7,1.1-3.5,1.7-5.5,1.8c-1.9,0.1-3.9-0.4-5.7-1.4
			c-1.9-1-3.3-2.4-4.3-4.1c-1-1.7-1.5-3.5-1.5-5.5c0-2,0.6-4,1.6-6c1.1-2,2.5-3.6,4.2-4.7c1.7-1.1,3.5-1.7,5.4-1.8
			c1.9-0.1,3.9,0.4,5.8,1.4c1.9,1,3.3,2.4,4.3,4.1c1,1.7,1.5,3.5,1.4,5.6C137.6,184.3,137,186.3,135.9,188.3z M131.4,185.9
			c0.5-0.9,0.8-1.9,0.7-2.8s-0.3-1.8-0.9-2.7c-0.6-0.9-1.4-1.6-2.5-2.2c-1.1-0.6-2.2-0.9-3.2-0.9s-1.9,0.3-2.7,0.8
			c-0.8,0.5-1.4,1.2-1.9,2.1c-0.5,0.9-0.7,1.8-0.7,2.8c0,0.9,0.3,1.9,0.8,2.7c0.5,0.9,1.4,1.6,2.5,2.2c1.1,0.6,2.1,0.9,3.2,0.9
			c1,0,2-0.3,2.8-0.8C130.3,187.4,130.9,186.7,131.4,185.9z"/>
		<path class="st0" d="M155,172.2l-20.9-20.5l4.2-4.3l3.1,3.1l4.5,4.6l4.8,4.2l8.7,8.5L155,172.2z M158.6,158
			c-1.3,1.3-2.6,2.1-4.2,2.5s-3.1,0.3-4.8-0.3s-3.4-1.8-5.2-3.5c-1.8-1.8-3-3.5-3.7-5.1c-0.7-1.7-0.8-3.2-0.4-4.8
			c0.4-1.5,1.2-3,2.5-4.3c1.4-1.5,3-2.5,4.8-3c1.8-0.5,3.6-0.5,5.4,0c1.8,0.5,3.6,1.5,5.2,3.1c1.6,1.6,2.7,3.3,3.2,5.1
			s0.5,3.6,0.1,5.4C161,154.9,160,156.5,158.6,158z M154.2,155.1c0.7-0.7,1.2-1.6,1.4-2.5s0.2-1.9-0.1-2.8c-0.3-1-0.9-1.9-1.8-2.8
			c-0.9-0.9-1.8-1.4-2.8-1.7c-1-0.3-1.9-0.3-2.8,0c-0.9,0.3-1.7,0.8-2.4,1.5c-0.7,0.7-1.2,1.6-1.5,2.5c-0.2,0.9-0.2,1.9,0.1,2.8
			c0.3,1,0.9,1.9,1.8,2.8c0.9,0.9,1.8,1.4,2.8,1.7c1,0.3,1.9,0.3,2.9,0C152.7,156.4,153.5,155.9,154.2,155.1z"/>
		<path class="st0" d="M168.8,148.5l-18-23.6l5-3.8l18,23.6L168.8,148.5z"/>
		<path class="st0" d="M189.1,135.1l-2.1-3.7l-0.8-0.6l-3.7-6.5c-0.7-1.2-1.5-1.9-2.6-2.1c-1.1-0.2-2.3,0-3.8,0.9
			c-1,0.6-1.9,1.3-2.7,2.1c-0.8,0.9-1.4,1.8-1.8,2.7l-4.1-2.7c0.6-1.3,1.5-2.6,2.7-3.8s2.6-2.2,4.1-3.1c2.9-1.6,5.4-2.2,7.8-1.8
			s4.3,2.1,5.9,4.9l6.1,10.7L189.1,135.1z M183.5,138.6c-1.4,0.8-2.8,1.3-4.1,1.4c-1.3,0.1-2.5-0.1-3.6-0.7
			c-1.1-0.5-1.9-1.3-2.5-2.4c-0.6-1.1-0.9-2.2-0.8-3.4c0.1-1.2,0.6-2.3,1.5-3.4c0.9-1.1,2.3-2.3,4.3-3.3l4.9-2.8l1.8,3.1l-4.4,2.5
			c-1.3,0.7-2,1.4-2.3,2.1s-0.2,1.3,0.2,2c0.4,0.7,1,1.1,1.8,1.2c0.8,0.1,1.6-0.1,2.6-0.6c0.9-0.5,1.6-1.2,2.1-2
			c0.5-0.8,0.6-1.8,0.5-2.8l2.3,2.1c0.3,1.4,0.1,2.7-0.6,3.9C186.3,136.6,185.2,137.7,183.5,138.6z"/>
		<path class="st0" d="M205.2,128.3c-1.7,0.6-3.5,1-5.2,1.2c-1.7,0.2-3.2,0.1-4.4-0.2l0.4-4.9c1.2,0.2,2.4,0.3,3.8,0.2
			c1.4-0.1,2.7-0.4,3.9-0.8c1.4-0.5,2.3-1,2.7-1.5c0.4-0.5,0.6-1.1,0.4-1.7c-0.2-0.5-0.5-0.8-1-0.8c-0.5-0.1-1.2,0-1.9,0.1
			s-1.6,0.3-2.5,0.5c-0.9,0.2-1.9,0.3-2.8,0.4c-0.9,0.1-1.9,0.1-2.8-0.1c-0.9-0.1-1.7-0.5-2.4-1.1c-0.7-0.6-1.3-1.4-1.7-2.6
			c-0.5-1.3-0.5-2.5-0.1-3.8c0.4-1.3,1.2-2.4,2.4-3.5c1.2-1.1,2.7-1.9,4.7-2.6c1.4-0.5,2.9-0.9,4.4-1.1c1.5-0.2,2.9-0.2,4.1,0
			l-0.5,4.9c-1.2-0.2-2.3-0.2-3.3-0.1c-1.1,0.1-2.1,0.4-3,0.7c-1.4,0.5-2.3,1-2.7,1.6c-0.5,0.6-0.6,1.1-0.4,1.7
			c0.2,0.5,0.5,0.8,1.1,0.9c0.5,0.1,1.2,0.1,2-0.1c0.8-0.1,1.6-0.3,2.5-0.5c0.9-0.2,1.9-0.3,2.8-0.4c0.9-0.1,1.8-0.1,2.7,0.1
			c0.9,0.1,1.7,0.5,2.4,1.1c0.7,0.6,1.3,1.4,1.7,2.6c0.4,1.2,0.5,2.5,0.1,3.7s-1.2,2.4-2.4,3.5C208.9,126.6,207.3,127.5,205.2,128.3
			z"/>
		<path class="st0" d="M211.7,108.6l-1-4.7l14.6-3.1l1,4.7L211.7,108.6z M226.2,122.5c-2.5,0.5-4.5,0.3-6.2-0.7
			c-1.6-1-2.7-2.7-3.3-5.2l-3.9-18.5l6.1-1.3l3.8,18.4c0.2,0.9,0.6,1.5,1.1,1.9c0.6,0.4,1.2,0.5,2,0.4c1-0.2,1.8-0.6,2.3-1.3l2.5,4
			c-0.5,0.6-1.2,1.1-2,1.5C228,122,227.1,122.3,226.2,122.5z"/>
		<path class="st0" d="M234.6,96.2c-1.2,0.1-2.1-0.1-2.9-0.7c-0.8-0.6-1.2-1.4-1.3-2.4c-0.1-1,0.2-1.8,0.8-2.6
			c0.7-0.7,1.6-1.2,2.7-1.3c1.1-0.1,2.1,0.1,2.9,0.7c0.8,0.6,1.2,1.3,1.3,2.3c0.1,1-0.2,1.9-0.8,2.7
			C236.7,95.7,235.8,96.1,234.6,96.2z M233.9,120.9l-2.1-21.4l6.2-0.6l2.1,21.4L233.9,120.9z"/>
		<path class="st0" d="M255.4,120.4c-2.3-0.1-4.4-0.6-6.1-1.6s-3.1-2.4-4.1-4.1c-1-1.7-1.4-3.6-1.4-5.8c0.1-2.2,0.6-4,1.7-5.7
			c1.1-1.6,2.5-2.9,4.4-3.8c1.8-0.9,3.9-1.3,6.2-1.3c2.3,0.1,4.2,0.6,5.9,1.6c1.7,1,2.8,2.4,3.5,4.1l-4.9,2.5
			c-0.6-1-1.2-1.8-2.1-2.3c-0.8-0.5-1.7-0.8-2.7-0.8c-1,0-2,0.2-2.9,0.6c-0.9,0.4-1.6,1.1-2.1,2s-0.8,1.9-0.9,3.2
			c0,1.3,0.2,2.3,0.7,3.2c0.5,0.9,1.1,1.6,2,2.1s1.8,0.8,2.8,0.8c1,0,1.9-0.2,2.7-0.6s1.6-1.2,2.2-2.2l4.7,2.8
			c-0.8,1.7-2.1,3-3.8,3.9C259.7,120.1,257.7,120.5,255.4,120.4z"/>
		<path class="st0" d="M297,105.6c1.6,0.5,3,1.3,4.1,2.3c1.1,1,1.8,2.4,2.1,3.9c0.3,1.6,0.2,3.4-0.5,5.5l-3.6,11.8l-6-1.8l3.4-10.9
			c0.5-1.7,0.5-3,0-4c-0.5-1-1.4-1.7-2.7-2.1c-0.9-0.3-1.9-0.4-2.7-0.2s-1.6,0.6-2.3,1.3c-0.7,0.7-1.2,1.6-1.6,2.9l-3.1,10.2l-6-1.8
			l6.4-20.6l5.7,1.8l-1.8,5.7l-0.5-2.1c1.2-1.1,2.5-1.9,4.2-2.2C293.6,104.9,295.3,105,297,105.6z"/>
		<path class="st0" d="M311.9,136c-2-1.1-3.5-2.5-4.6-4.2c-1.1-1.7-1.7-3.5-1.8-5.5s0.4-3.9,1.4-5.7c1-1.9,2.4-3.3,4.1-4.3
			c1.7-1,3.5-1.5,5.5-1.4c2,0,4,0.6,6,1.6c2,1.1,3.6,2.5,4.7,4.2c1.1,1.7,1.7,3.5,1.8,5.5c0.1,1.9-0.4,3.9-1.4,5.8
			c-1,1.9-2.4,3.3-4.1,4.3s-3.5,1.4-5.6,1.4S313.9,137.1,311.9,136z M314.3,131.5c0.9,0.5,1.9,0.8,2.8,0.7c0.9,0,1.8-0.3,2.7-0.9
			c0.9-0.6,1.6-1.4,2.2-2.5c0.6-1.1,0.9-2.2,0.9-3.2c0-1-0.3-1.9-0.8-2.7c-0.5-0.8-1.2-1.4-2.1-1.9s-1.8-0.7-2.8-0.7
			c-0.9,0-1.9,0.3-2.7,0.8c-0.9,0.5-1.6,1.4-2.2,2.5c-0.6,1.1-0.9,2.1-0.9,3.2c0,1,0.3,2,0.8,2.8C312.7,130.4,313.4,131,314.3,131.5
			z"/>
		<path class="st0" d="M327.9,155.2l20.5-20.9l4.3,4.2l-3.1,3.1l-4.6,4.5l-4.2,4.8l-8.5,8.6L327.9,155.2z M342.2,158.7
			c-1.3-1.3-2.1-2.6-2.5-4.2c-0.4-1.5-0.3-3.1,0.3-4.8c0.6-1.7,1.8-3.4,3.5-5.2c1.8-1.8,3.5-3,5.1-3.7c1.7-0.7,3.3-0.8,4.8-0.4
			c1.5,0.4,3,1.2,4.3,2.5c1.5,1.4,2.4,3.1,3,4.8c0.5,1.8,0.5,3.6,0,5.4s-1.5,3.6-3.1,5.2c-1.6,1.6-3.3,2.7-5.1,3.2
			c-1.8,0.5-3.6,0.5-5.4,0C345.3,161.1,343.6,160.2,342.2,158.7z M345,154.4c0.7,0.7,1.6,1.2,2.5,1.4c0.9,0.2,1.9,0.2,2.8-0.1
			c1-0.3,1.9-0.9,2.8-1.7c0.9-0.9,1.5-1.8,1.7-2.8c0.3-1,0.3-1.9,0-2.8c-0.3-0.9-0.8-1.7-1.5-2.4c-0.7-0.7-1.6-1.2-2.5-1.5
			c-0.9-0.2-1.9-0.2-2.8,0.1c-1,0.3-1.9,0.9-2.8,1.8c-0.9,0.9-1.4,1.8-1.7,2.8c-0.3,1-0.3,1.9,0,2.9S344.3,153.6,345,154.4z"/>
		<path class="st0" d="M351.7,168.9l23.6-18l3.8,5l-23.6,18L351.7,168.9z"/>
		<path class="st0" d="M361.5,183.7c-0.8-1.4-1.3-2.8-1.4-4.1c-0.1-1.3,0.1-2.5,0.7-3.6c0.5-1.1,1.3-1.9,2.4-2.5
			c1.1-0.6,2.2-0.9,3.4-0.8c1.2,0.1,2.3,0.6,3.4,1.5c1.1,0.9,2.2,2.3,3.3,4.3l2.8,4.9l-3.1,1.8l-2.5-4.4c-0.7-1.3-1.4-2-2.1-2.3
			c-0.7-0.2-1.3-0.2-2,0.2c-0.7,0.4-1.1,1-1.2,1.8c-0.1,0.8,0.1,1.6,0.6,2.6c0.5,0.9,1.2,1.6,2,2.1c0.8,0.5,1.8,0.6,2.8,0.5
			l-2.1,2.3c-1.4,0.3-2.7,0.1-3.9-0.6C363.5,186.5,362.4,185.3,361.5,183.7z M365,189.2l3.7-2.1l0.6-0.8l6.5-3.7
			c1.2-0.7,1.9-1.5,2.1-2.6c0.2-1.1,0-2.3-0.9-3.8c-0.6-1-1.3-1.9-2.1-2.7c-0.9-0.8-1.8-1.4-2.7-1.8l2.7-4.1
			c1.3,0.6,2.6,1.5,3.8,2.7c1.2,1.2,2.2,2.6,3.1,4.1c1.6,2.9,2.2,5.4,1.8,7.8c-0.5,2.3-2.1,4.3-5,5.9l-10.7,6.1L365,189.2z"/>
		<path class="st0" d="M371.8,205.4c-0.6-1.7-1-3.5-1.2-5.2s-0.1-3.2,0.2-4.4l4.9,0.4c-0.2,1.2-0.3,2.4-0.2,3.8
			c0.1,1.4,0.4,2.7,0.8,3.9c0.5,1.4,1,2.3,1.5,2.7s1.1,0.6,1.7,0.4c0.5-0.2,0.8-0.5,0.8-1c0.1-0.5,0.1-1.2-0.1-1.9
			c-0.1-0.8-0.3-1.6-0.5-2.5c-0.2-0.9-0.3-1.9-0.4-2.8c-0.1-0.9-0.1-1.9,0.1-2.8c0.1-0.9,0.5-1.7,1.1-2.4s1.4-1.3,2.6-1.7
			c1.3-0.5,2.5-0.5,3.8-0.1c1.3,0.4,2.4,1.2,3.5,2.4s1.9,2.7,2.6,4.7c0.5,1.4,0.9,2.9,1.1,4.4c0.2,1.5,0.2,2.9,0,4.1l-4.9-0.5
			c0.2-1.2,0.2-2.3,0.1-3.3s-0.4-2.1-0.7-3c-0.5-1.4-1-2.3-1.6-2.7s-1.1-0.6-1.7-0.4c-0.5,0.2-0.8,0.5-0.9,1.1
			c-0.1,0.5-0.1,1.2,0.1,2c0.1,0.8,0.3,1.6,0.5,2.5c0.2,0.9,0.3,1.9,0.4,2.8c0.1,0.9,0.1,1.8-0.1,2.7c-0.1,0.9-0.5,1.7-1.1,2.4
			c-0.6,0.7-1.4,1.3-2.6,1.7c-1.2,0.4-2.5,0.5-3.7,0.1c-1.2-0.4-2.4-1.2-3.5-2.4C373.4,209.1,372.5,207.4,371.8,205.4z"/>
		<path class="st0" d="M377.6,226.4c-0.5-2.5-0.3-4.5,0.7-6.2s2.7-2.7,5.2-3.3l18.5-3.8l1.3,6.1l-18.4,3.8c-0.9,0.2-1.5,0.6-1.9,1.1
			c-0.4,0.6-0.5,1.2-0.4,2c0.2,1,0.6,1.8,1.3,2.3l-4,2.5c-0.6-0.5-1.1-1.2-1.5-2C378.1,228.2,377.8,227.3,377.6,226.4z M391.5,211.9
			l4.7-1l3,14.6l-4.7,1L391.5,211.9z"/>
		<path class="st0" d="M379.1,234.1l21.4-2.1l0.6,6.2l-21.4,2.1L379.1,234.1z M403.8,234.8c-0.1-1.2,0.1-2.1,0.7-2.9
			s1.4-1.2,2.4-1.3c1-0.1,1.8,0.2,2.6,0.8c0.7,0.7,1.2,1.6,1.3,2.7c0.1,1.1-0.1,2.1-0.7,2.9c-0.6,0.8-1.3,1.2-2.3,1.3
			c-1,0.1-1.9-0.2-2.7-0.8C404.3,236.9,403.9,236,403.8,234.8z"/>
		<path class="st0" d="M379.6,255.6c0.1-2.3,0.6-4.4,1.6-6.1c1-1.8,2.4-3.1,4.1-4.1c1.7-1,3.6-1.4,5.8-1.4c2.2,0.1,4,0.6,5.7,1.7
			c1.6,1.1,2.9,2.5,3.8,4.4c0.9,1.8,1.3,3.9,1.2,6.2c-0.1,2.3-0.6,4.2-1.6,5.9c-1,1.7-2.4,2.8-4.1,3.5l-2.5-4.9c1-0.6,1.8-1.2,2.3-2
			c0.5-0.8,0.8-1.7,0.8-2.7c0-1-0.2-2-0.6-2.9c-0.4-0.9-1.1-1.6-2-2.1s-1.9-0.8-3.2-0.9c-1.3,0-2.3,0.2-3.2,0.7
			c-0.9,0.5-1.6,1.1-2.1,2s-0.8,1.8-0.8,2.8c0,1,0.2,1.9,0.6,2.7c0.4,0.8,1.2,1.6,2.2,2.2l-2.8,4.7c-1.7-0.8-3-2.1-3.9-3.8
			S379.5,257.9,379.6,255.6z"/>
		<path class="st0" d="M394.4,297.2c-0.5,1.6-1.3,3-2.3,4.1c-1,1.1-2.4,1.8-3.9,2.1c-1.6,0.3-3.4,0.2-5.5-0.5l-11.8-3.7l1.9-6
			l10.8,3.4c1.7,0.5,3,0.5,4,0.1c1-0.5,1.7-1.4,2.1-2.7c0.3-0.9,0.4-1.9,0.2-2.7s-0.6-1.6-1.2-2.3s-1.6-1.2-2.9-1.6l-10.2-3.2l1.9-6
			l20.5,6.4l-1.8,5.7l-5.7-1.8l2.1-0.5c1.1,1.2,1.9,2.6,2.2,4.2C395,293.8,394.9,295.5,394.4,297.2z"/>
		<path class="st0" d="M363.9,312c1.1-2,2.5-3.5,4.2-4.6c1.7-1.1,3.5-1.7,5.5-1.8c1.9-0.1,3.9,0.4,5.7,1.4c1.9,1,3.3,2.4,4.3,4.1
			c1,1.7,1.5,3.5,1.4,5.5c0,2-0.6,4-1.7,6c-1.1,2-2.5,3.6-4.2,4.7c-1.7,1.1-3.5,1.7-5.5,1.8c-1.9,0.1-3.9-0.4-5.8-1.4
			c-1.9-1-3.3-2.4-4.3-4.1s-1.4-3.5-1.4-5.6C362.3,316.1,362.8,314,363.9,312z M368.4,314.5c-0.5,0.9-0.8,1.9-0.7,2.8
			c0,0.9,0.3,1.8,0.9,2.7c0.6,0.9,1.4,1.6,2.5,2.2c1.1,0.6,2.2,0.9,3.2,0.9c1,0,1.9-0.3,2.7-0.8c0.8-0.5,1.4-1.2,1.9-2.1
			c0.5-0.9,0.7-1.8,0.7-2.8c0-0.9-0.3-1.9-0.8-2.7c-0.5-0.9-1.4-1.6-2.5-2.2c-1.1-0.6-2.1-0.9-3.2-0.9c-1,0-2,0.2-2.8,0.8
			C369.5,312.9,368.9,313.6,368.4,314.5z"/>
		<path class="st0" d="M341.1,342.3c1.3-1.3,2.6-2.1,4.2-2.5c1.5-0.4,3.1-0.3,4.8,0.3c1.7,0.6,3.4,1.8,5.2,3.6
			c1.8,1.8,3,3.5,3.7,5.2s0.8,3.3,0.4,4.8c-0.4,1.5-1.2,3-2.5,4.3c-1.4,1.5-3.1,2.4-4.8,2.9c-1.8,0.5-3.6,0.5-5.4,0
			c-1.8-0.5-3.6-1.5-5.2-3.1c-1.6-1.6-2.7-3.3-3.2-5.1c-0.5-1.8-0.5-3.6,0-5.4C338.7,345.4,339.7,343.8,341.1,342.3z M344.7,328
			l20.9,20.6l-4.2,4.2l-3.1-3.1l-4.5-4.6L349,341l-8.6-8.5L344.7,328z M345.5,345.1c-0.7,0.7-1.2,1.6-1.4,2.5
			c-0.2,0.9-0.2,1.9,0.1,2.8c0.3,1,0.9,1.9,1.7,2.8c0.9,0.9,1.8,1.5,2.8,1.7c1,0.3,1.9,0.3,2.8,0c0.9-0.3,1.7-0.7,2.5-1.5
			s1.2-1.6,1.5-2.5c0.2-0.9,0.2-1.9,0-2.8s-0.9-1.9-1.8-2.8c-0.9-0.9-1.8-1.4-2.8-1.7c-1-0.3-1.9-0.3-2.9,0
			C347,343.9,346.2,344.4,345.5,345.1z"/>
		<path class="st0" d="M330.9,351.8l17.9,23.7l-5,3.8L326,355.6L330.9,351.8z"/>
		<path class="st0" d="M310.6,365.1l2.1,3.7l0.8,0.6l3.7,6.5c0.7,1.2,1.5,1.9,2.6,2.1c1.1,0.3,2.3,0,3.8-0.9c1-0.6,1.9-1.3,2.7-2.1
			c0.8-0.9,1.4-1.8,1.8-2.7l4.1,2.7c-0.6,1.3-1.5,2.6-2.7,3.8c-1.2,1.2-2.6,2.2-4.1,3.1c-2.9,1.6-5.5,2.2-7.8,1.7
			c-2.3-0.5-4.3-2.1-5.9-5l-6-10.7L310.6,365.1z M316.2,361.6c1.4-0.8,2.8-1.3,4.1-1.4c1.3-0.1,2.5,0.1,3.6,0.7s1.9,1.3,2.5,2.4
			c0.6,1.1,0.9,2.2,0.8,3.4c-0.1,1.2-0.6,2.3-1.5,3.4c-0.9,1.1-2.3,2.2-4.3,3.3l-4.9,2.8l-1.8-3.1l4.4-2.5c1.3-0.7,2-1.4,2.3-2.1
			c0.2-0.7,0.2-1.3-0.2-2c-0.4-0.7-1-1.1-1.8-1.2c-0.8-0.1-1.6,0.1-2.6,0.6c-0.9,0.5-1.6,1.2-2.1,2c-0.5,0.8-0.7,1.8-0.5,2.8
			l-2.3-2.1c-0.3-1.4-0.1-2.7,0.6-3.9C313.3,363.6,314.5,362.5,316.2,361.6z"/>
		<path class="st0" d="M294.4,371.9c1.7-0.6,3.5-1,5.2-1.2s3.2-0.1,4.4,0.2l-0.4,4.9c-1.2-0.2-2.4-0.3-3.8-0.2
			c-1.4,0.1-2.7,0.4-3.9,0.8c-1.4,0.5-2.3,1-2.7,1.5c-0.4,0.5-0.6,1.1-0.4,1.7c0.2,0.5,0.5,0.8,1,0.8c0.5,0.1,1.2,0.1,1.9-0.1
			c0.8-0.1,1.6-0.3,2.5-0.5c0.9-0.2,1.9-0.3,2.8-0.4s1.9-0.1,2.8,0.1c0.9,0.1,1.7,0.5,2.4,1.1c0.7,0.6,1.3,1.4,1.7,2.6
			c0.5,1.3,0.5,2.5,0.1,3.8c-0.4,1.3-1.2,2.4-2.4,3.5c-1.2,1-2.8,1.9-4.7,2.6c-1.4,0.5-2.9,0.9-4.4,1.1c-1.5,0.2-2.9,0.2-4.1,0
			l0.5-4.9c1.2,0.2,2.3,0.2,3.3,0.1c1.1-0.1,2.1-0.4,3-0.7c1.4-0.5,2.3-1,2.7-1.6c0.5-0.6,0.6-1.1,0.4-1.7c-0.2-0.5-0.5-0.8-1.1-0.9
			c-0.5-0.1-1.2-0.1-2,0.1c-0.8,0.1-1.6,0.3-2.5,0.5c-0.9,0.2-1.9,0.3-2.8,0.4c-0.9,0.1-1.8,0-2.7-0.1c-0.9-0.1-1.7-0.5-2.4-1.1
			s-1.3-1.4-1.7-2.6c-0.4-1.2-0.5-2.5-0.1-3.7s1.2-2.4,2.4-3.4C290.8,373.5,292.4,372.6,294.4,371.9z"/>
		<path class="st0" d="M273.4,377.6c2.5-0.5,4.5-0.3,6.2,0.7c1.6,1,2.7,2.7,3.2,5.2l3.8,18.5l-6.2,1.3l-3.8-18.4
			c-0.2-0.9-0.6-1.5-1.1-1.9c-0.6-0.4-1.2-0.5-2-0.4c-1,0.2-1.8,0.6-2.3,1.3l-2.5-4c0.5-0.6,1.2-1.1,2-1.5
			C271.6,378.1,272.5,377.8,273.4,377.6z M287.9,391.5l1,4.7l-14.6,3l-1-4.7L287.9,391.5z"/>
		<path class="st0" d="M265.7,379.1l2.1,21.4l-6.2,0.6l-2.1-21.4L265.7,379.1z M264.9,403.8c1.2-0.1,2.1,0.1,2.9,0.7
			c0.8,0.6,1.2,1.4,1.3,2.4c0.1,1-0.2,1.8-0.8,2.6c-0.7,0.7-1.6,1.2-2.7,1.3c-1.1,0.1-2.1-0.1-2.9-0.7c-0.8-0.6-1.2-1.3-1.3-2.3
			c-0.1-1,0.2-1.9,0.8-2.7C262.9,404.3,263.8,403.9,264.9,403.8z"/>
		<path class="st0" d="M244.2,379.6c2.3,0.1,4.4,0.6,6.1,1.6c1.8,1,3.1,2.4,4.1,4.1s1.4,3.6,1.4,5.8c-0.1,2.2-0.6,4-1.7,5.7
			c-1.1,1.6-2.5,2.9-4.4,3.8s-3.9,1.3-6.2,1.2c-2.3-0.1-4.2-0.6-5.9-1.6c-1.7-1-2.8-2.4-3.5-4.1l4.9-2.5c0.6,1,1.2,1.8,2,2.3
			c0.8,0.5,1.7,0.8,2.7,0.8c1,0,2-0.2,2.9-0.6c0.9-0.4,1.6-1.1,2.1-2c0.5-0.9,0.8-1.9,0.9-3.2s-0.2-2.3-0.7-3.2
			c-0.5-0.9-1.1-1.6-2-2.1c-0.8-0.5-1.8-0.8-2.8-0.8c-1,0-1.9,0.2-2.7,0.6c-0.8,0.4-1.6,1.2-2.2,2.2l-4.7-2.8c0.8-1.7,2.1-3,3.8-3.9
			C239.9,379.9,241.9,379.5,244.2,379.6z"/>
	</g>
</g>
<g>
	<path class="st0" d="M250,135.8c30.5,0,59.2,11.9,80.8,33.4c21.6,21.6,33.4,50.2,33.4,80.8s-11.9,59.2-33.4,80.8
		c-21.6,21.6-50.2,33.4-80.8,33.4s-59.2-11.9-80.8-33.4c-21.6-21.6-33.4-50.2-33.4-80.8s11.9-59.2,33.4-80.8
		C190.8,147.7,219.5,135.8,250,135.8 M250,134.8c-63.6,0-115.2,51.6-115.2,115.2S186.4,365.2,250,365.2S365.2,313.6,365.2,250
		S313.6,134.8,250,134.8L250,134.8z"/>
</g>
</svg>
