<?xml version="1.0" encoding="utf-8"?>
<!-- Generator: Adobe Illustrator 22.1.0, SVG Export Plug-In . SVG Version: 6.00 Build 0)  -->
<svg version="1.1" id="Layer_1" xmlns="http://www.w3.org/2000/svg" xmlns:xlink="http://www.w3.org/1999/xlink" x="0px" y="0px"
	 viewBox="0 0 1500 200" style="enable-background:new 0 0 1500 200;" xml:space="preserve">
<style type="text/css">
	.st0{fill:none;stroke:#CEFF00;stroke-width:2;}
</style>
<g>
	<path class="st0" d="M156.6,77.8c-3.4-1.7-7.2-2.6-11.5-2.6c-4.6,0-8.7,1-12.3,2.9c-2.1,1.1-4,2.6-5.5,4.3V76h-14.9v53.8h15.6
		v-26.6c0-3.4,0.6-6.1,1.7-8.2c1.1-2.1,2.6-3.6,4.6-4.7c2-1.1,4.2-1.6,6.7-1.6c3.5,0,6.1,1,8,3.1c1.9,2.1,2.9,5.3,2.9,9.6v28.4h15.6
		V99c0-5.5-1-10-2.9-13.5C162.6,82.1,160,79.5,156.6,77.8z"/>
	<path class="st0" d="M222.8,78.8c-4.5-2.4-9.6-3.6-15.3-3.6c-5.7,0-10.7,1.2-15.2,3.6c-4.4,2.4-7.9,5.6-10.4,9.8
		c-2.5,4.2-3.8,9-3.8,14.4c0,5.3,1.3,10.1,3.8,14.3c2.5,4.2,6,7.4,10.4,9.9c4.4,2.4,9.5,3.6,15.2,3.6c5.7,0,10.8-1.2,15.3-3.6
		c4.5-2.4,8-5.7,10.5-9.8c2.5-4.1,3.8-8.9,3.8-14.3s-1.3-10.2-3.8-14.4C230.7,84.4,227.2,81.1,222.8,78.8z M219.4,110.9
		c-1.2,2.3-2.9,4-4.9,5.1c-2,1.2-4.4,1.8-7,1.8c-2.5,0-4.8-0.6-6.9-1.8c-2.1-1.2-3.7-2.9-4.9-5.1c-1.2-2.3-1.9-4.9-1.9-8
		c0-3.1,0.6-5.8,1.9-8c1.2-2.2,2.9-3.9,4.9-5.1c2.1-1.2,4.4-1.8,7-1.8c2.6,0,4.9,0.6,7,1.8c2,1.2,3.7,2.9,4.9,5.1
		c1.2,2.2,1.9,4.9,1.9,8C221.3,106,220.6,108.7,219.4,110.9z"/>
	<path class="st0" d="M271.6,118.2c-2,0-3.6-0.6-4.8-1.9c-1.2-1.3-1.8-3-1.8-5.3V89.2h13.3v-12h-13.3V64.1h-15.7v13.1h-8.3v12h8.3
		v22.1c0,6.4,1.8,11.2,5.3,14.5c3.5,3.2,8.5,4.8,14.8,4.8c2.4,0,4.7-0.3,6.9-0.8c2.2-0.6,4.1-1.4,5.6-2.6l-4.1-11
		C276.2,117.6,274.1,118.2,271.6,118.2z"/>
	<path class="st0" d="M364.7,78.7c-4-2.3-8.6-3.5-13.8-3.5c-4.6,0-8.6,1-12,3c-1.8,1.1-3.4,2.4-4.8,4V76h-14.9v73.2h15.6v-25.1
		c1.3,1.4,2.7,2.6,4.3,3.5c3.4,2,7.3,3,11.8,3c5.1,0,9.7-1.1,13.8-3.4c4-2.3,7.2-5.5,9.6-9.6c2.4-4.1,3.5-9,3.5-14.6
		c0-5.6-1.2-10.5-3.5-14.6C371.9,84.2,368.7,81,364.7,78.7z M360.2,110.9c-1.2,2.2-2.9,4-4.9,5.2c-2,1.2-4.4,1.8-7,1.8
		c-2.6,0-4.9-0.6-7-1.8c-2.1-1.2-3.7-2.9-4.9-5.2c-1.2-2.2-1.9-4.9-1.9-7.9c0-3.1,0.6-5.8,1.9-8c1.2-2.2,2.9-3.9,4.9-5.1
		c2.1-1.2,4.4-1.8,7-1.8c2.6,0,4.9,0.6,7,1.8c2,1.2,3.7,2.9,4.9,5.1c1.2,2.2,1.9,4.9,1.9,8C362.1,106,361.4,108.6,360.2,110.9z"/>
	<path class="st0" d="M428.2,81c-4.5-3.9-10.9-5.8-19.1-5.8c-4.3,0-8.5,0.6-12.6,1.6c-4.1,1.1-7.7,2.7-10.6,4.9l5.5,10.9
		c2-1.5,4.4-2.8,7.1-3.6c2.8-0.9,5.6-1.4,8.4-1.4c4.2,0,7.3,0.9,9.4,2.8c2,1.9,3.1,4.5,3.1,7.8v0.1h-12.3c-5.5,0-10,0.7-13.4,2
		c-3.4,1.3-5.9,3.2-7.5,5.6c-1.6,2.4-2.3,5.2-2.3,8.4c0,3.1,0.8,5.8,2.4,8.3c1.6,2.5,4,4.4,7,5.9c3,1.4,6.6,2.1,10.7,2.1
		c4.7,0,8.6-0.9,11.6-2.8c2-1.2,3.6-2.8,4.8-4.8v6.7H435V99.1C435,90.9,432.7,84.9,428.2,81z M414.9,118.3c-2.1,1.2-4.5,1.8-7.1,1.8
		c-2.7,0-4.8-0.6-6.4-1.8c-1.6-1.2-2.4-2.8-2.4-4.8c0-1.8,0.7-3.3,2.1-4.5c1.4-1.2,3.9-1.8,7.5-1.8h10.7v5.5
		C418.5,115.3,417,117.1,414.9,118.3z"/>
	<path class="st0" d="M464,83.1V76h-14.9v53.8h15.6v-25.4c0-5.1,1.3-8.9,3.9-11.4c2.6-2.5,6.1-3.7,10.5-3.7c0.5,0,1.1,0,1.6,0.1
		c0.6,0.1,1.1,0.2,1.8,0.3V75.2c-5.1,0-9.4,1-12.9,3C467.3,79.4,465.4,81.1,464,83.1z"/>
	<path class="st0" d="M517.8,118.2c-2,0-3.6-0.6-4.8-1.9c-1.2-1.3-1.8-3-1.8-5.3V89.2h13.3v-12h-13.3V64.1h-15.7v13.1h-8.3v12h8.3
		v22.1c0,6.4,1.8,11.2,5.3,14.5c3.5,3.2,8.5,4.8,14.8,4.8c2.4,0,4.7-0.3,6.9-0.8c2.2-0.6,4.1-1.4,5.6-2.6l-4.1-11
		C522.4,117.6,520.3,118.2,517.8,118.2z"/>
	<path class="st0" d="M606.3,78.8c-4.5-2.4-9.6-3.6-15.3-3.6c-5.7,0-10.7,1.2-15.2,3.6c-4.4,2.4-7.9,5.6-10.4,9.8
		c-2.5,4.2-3.8,9-3.8,14.4c0,5.3,1.3,10.1,3.8,14.3c2.5,4.2,6,7.4,10.4,9.9c4.4,2.4,9.5,3.6,15.2,3.6c5.7,0,10.8-1.2,15.3-3.6
		c4.5-2.4,8-5.7,10.5-9.8c2.5-4.1,3.8-8.9,3.8-14.3s-1.3-10.2-3.8-14.4C614.2,84.4,610.7,81.1,606.3,78.8z M602.9,110.9
		c-1.2,2.3-2.9,4-4.9,5.1c-2,1.2-4.4,1.8-7,1.8c-2.5,0-4.8-0.6-6.9-1.8c-2.1-1.2-3.7-2.9-4.9-5.1c-1.2-2.3-1.9-4.9-1.9-8
		c0-3.1,0.6-5.8,1.9-8c1.2-2.2,2.9-3.9,4.9-5.1c2.1-1.2,4.4-1.8,7-1.8c2.6,0,4.9,0.6,7,1.8c2,1.2,3.7,2.9,4.9,5.1
		c1.2,2.2,1.9,4.9,1.9,8C604.8,106,604.1,108.7,602.9,110.9z"/>
	<path class="st0" d="M649.9,69c1.2-1.3,3-1.9,5.3-1.9c1.2,0,2.3,0.2,3.4,0.5c1.1,0.3,2,0.8,2.9,1.4l4.1-11.4
		c-1.5-0.9-3.3-1.6-5.4-2.1c-2.1-0.5-4.3-0.7-6.5-0.7c-6.7,0-11.8,1.8-15.4,5.4s-5.4,8.5-5.4,14.6v2.4h-8.3v12h8.3v40.6h15.7V89.2
		h13.3v-12h-13.8V75C648.1,72.3,648.7,70.3,649.9,69z"/>
	<path class="st0" d="M722.1,118.2c-2,0-3.6-0.6-4.8-1.9c-1.2-1.3-1.8-3-1.8-5.3V89.2h13.3v-12h-13.3V64.1h-15.7v13.1h-8.3v12h8.3
		v22.1c0,6.4,1.8,11.2,5.3,14.5c3.5,3.2,8.5,4.8,14.8,4.8c2.4,0,4.7-0.3,7-0.8c2.2-0.6,4.1-1.4,5.6-2.6l-4.1-11
		C726.7,117.6,724.6,118.2,722.1,118.2z"/>
	<path class="st0" d="M785.6,77.8c-3.4-1.7-7.2-2.6-11.4-2.6c-4.6,0-8.7,1-12.3,2.9c-1.8,1-3.4,2.2-4.8,3.6V55.6h-15.6v74.2h15.6
		v-26.6c0-3.4,0.5-6.1,1.7-8.2c1.1-2.1,2.6-3.6,4.6-4.7c2-1.1,4.2-1.6,6.7-1.6c3.5,0,6.1,1,8,3.1c1.9,2.1,2.8,5.3,2.8,9.6v28.4h15.6
		V99c0-5.5-1-10-2.9-13.5C791.6,82.1,789,79.5,785.6,77.8z"/>
	<path class="st0" d="M849.9,78.6c-4.2-2.3-9-3.4-14.3-3.4c-5.5,0-10.4,1.2-14.8,3.6c-4.4,2.4-7.8,5.6-10.2,9.8
		c-2.4,4.2-3.7,9-3.7,14.3c0,5.3,1.3,10.1,3.8,14.3c2.5,4.2,6.1,7.4,10.7,9.9c4.6,2.4,10,3.6,16.1,3.6c4.9,0,9.2-0.8,12.9-2.3
		c3.7-1.5,6.8-3.6,9.3-6.4l-8.3-9c-1.8,1.7-3.8,3-6,3.9c-2.2,0.9-4.6,1.3-7.4,1.3c-3.3,0-6.1-0.6-8.4-1.8c-2.3-1.2-4.2-2.8-5.5-5
		c-0.7-1.2-1.3-2.5-1.6-4h40.7c0.1-0.7,0.1-1.4,0.2-2.1c0.1-0.8,0.1-1.5,0.1-2.1c0-5.8-1.2-10.8-3.7-14.9
		C857.5,84.1,854.1,80.9,849.9,78.6z M828.7,88.8c2-1.2,4.4-1.8,7-1.8c2.7,0,5,0.6,7,1.8c2,1.2,3.6,2.8,4.7,4.8
		c0.7,1.4,1.2,2.9,1.4,4.6h-26.4c0.3-1.7,0.7-3.2,1.5-4.5C825.1,91.6,826.7,89.9,828.7,88.8z"/>
	<path class="st0" d="M947.8,78.7c-4-2.3-8.6-3.5-13.8-3.5c-4.6,0-8.6,1-12.1,3c-1.8,1.1-3.4,2.4-4.8,4V76h-14.9v73.2H918v-25.1
		c1.3,1.4,2.7,2.6,4.3,3.5c3.4,2,7.3,3,11.8,3c5.1,0,9.7-1.1,13.8-3.4c4-2.3,7.2-5.5,9.6-9.6c2.4-4.1,3.5-9,3.5-14.6
		c0-5.6-1.2-10.5-3.5-14.6C955,84.2,951.8,81,947.8,78.7z M943.3,110.9c-1.2,2.2-2.9,4-4.9,5.2c-2,1.2-4.3,1.8-7,1.8
		c-2.6,0-4.9-0.6-7-1.8c-2.1-1.2-3.7-2.9-5-5.2c-1.2-2.2-1.8-4.9-1.8-7.9c0-3.1,0.6-5.8,1.8-8c1.2-2.2,2.9-3.9,5-5.1
		c2.1-1.2,4.4-1.8,7-1.8c2.6,0,4.9,0.6,7,1.8c2,1.2,3.7,2.9,4.9,5.1c1.2,2.2,1.8,4.9,1.8,8C945.2,106,944.5,108.6,943.3,110.9z"/>
	<path class="st0" d="M1012.1,78.8c-4.5-2.4-9.6-3.6-15.3-3.6c-5.7,0-10.7,1.2-15.2,3.6c-4.4,2.4-7.9,5.6-10.5,9.8
		c-2.5,4.2-3.8,9-3.8,14.4c0,5.3,1.3,10.1,3.8,14.3c2.5,4.2,6,7.4,10.5,9.9c4.4,2.4,9.5,3.6,15.2,3.6c5.7,0,10.8-1.2,15.3-3.6
		c4.5-2.4,8-5.7,10.5-9.8c2.5-4.1,3.8-8.9,3.8-14.3s-1.3-10.2-3.8-14.4C1020.1,84.4,1016.6,81.1,1012.1,78.8z M1008.8,110.9
		c-1.2,2.3-2.9,4-4.9,5.1c-2,1.2-4.4,1.8-7,1.8c-2.5,0-4.8-0.6-6.9-1.8c-2.1-1.2-3.7-2.9-5-5.1c-1.2-2.3-1.8-4.9-1.8-8
		c0-3.1,0.6-5.8,1.8-8c1.2-2.2,2.9-3.9,5-5.1c2.1-1.2,4.4-1.8,7-1.8c2.6,0,4.9,0.6,7,1.8c2,1.2,3.7,2.9,4.9,5.1
		c1.2,2.2,1.8,4.9,1.8,8C1010.6,106,1010,108.7,1008.8,110.9z"/>
	<rect x="1036.8" y="55.6" class="st0" width="15.6" height="74.2"/>
	<rect x="1066.9" y="55.6" class="st0" width="15.6" height="74.2"/>
	<path class="st0" d="M1135.7,102.7c0,3.2-0.6,5.9-1.7,8c-1.1,2.1-2.6,3.7-4.5,4.8c-1.9,1.1-4,1.6-6.4,1.6c-3.5,0-6.2-1-8.1-3.1
		c-1.9-2.1-2.8-5.4-2.8-9.9V76h-15.6v30.4c0,5.5,1,10,2.9,13.6c1.9,3.6,4.6,6.3,8.1,8c3.5,1.7,7.5,2.6,12,2.6
		c4.1,0,7.9-0.9,11.4-2.8c2-1.1,3.8-2.6,5.3-4.3v6.4h14.8V76h-15.5V102.7z"/>
	<path class="st0" d="M1189.8,118.2c-2,0-3.6-0.6-4.8-1.9c-1.2-1.3-1.8-3-1.8-5.3V89.2h13.3v-12h-13.3V64.1h-15.7v13.1h-8.3v12h8.3
		v22.1c0,6.4,1.8,11.2,5.3,14.5c3.5,3.2,8.5,4.8,14.8,4.8c2.4,0,4.7-0.3,7-0.8c2.2-0.6,4.1-1.4,5.6-2.6l-4.1-11
		C1194.5,117.6,1192.4,118.2,1189.8,118.2z"/>
	<rect x="1209.2" y="76" class="st0" width="15.6" height="53.8"/>
	<path class="st0" d="M1224.1,53.5c-1.8-1.6-4.2-2.4-7-2.4c-2.9,0-5.3,0.8-7.1,2.5c-1.8,1.7-2.7,3.7-2.7,6.2c0,2.5,0.9,4.5,2.7,6.2
		c1.8,1.7,4.2,2.5,7.1,2.5c2.9,0,5.3-0.9,7.1-2.6c1.8-1.7,2.7-3.9,2.7-6.4C1226.8,57.1,1225.9,55,1224.1,53.5z"/>
	<path class="st0" d="M1280.1,78.8c-4.5-2.4-9.6-3.6-15.3-3.6c-5.7,0-10.7,1.2-15.2,3.6c-4.4,2.4-7.9,5.6-10.5,9.8
		c-2.5,4.2-3.8,9-3.8,14.4c0,5.3,1.3,10.1,3.8,14.3c2.5,4.2,6,7.4,10.5,9.9c4.4,2.4,9.5,3.6,15.2,3.6c5.7,0,10.8-1.2,15.3-3.6
		c4.5-2.4,8-5.7,10.5-9.8c2.5-4.1,3.8-8.9,3.8-14.3s-1.3-10.2-3.8-14.4C1288.1,84.4,1284.6,81.1,1280.1,78.8z M1276.8,110.9
		c-1.2,2.3-2.9,4-4.9,5.1c-2,1.2-4.4,1.8-7,1.8c-2.5,0-4.8-0.6-6.9-1.8c-2.1-1.2-3.7-2.9-5-5.1c-1.2-2.3-1.8-4.9-1.8-8
		c0-3.1,0.6-5.8,1.8-8c1.2-2.2,2.9-3.9,5-5.1c2.1-1.2,4.4-1.8,7-1.8c2.6,0,4.9,0.6,7,1.8c2,1.2,3.7,2.9,4.9,5.1
		c1.2,2.2,1.8,4.9,1.8,8C1278.6,106,1278,108.7,1276.8,110.9z"/>
	<path class="st0" d="M1349,77.8c-3.4-1.7-7.2-2.6-11.4-2.6c-4.6,0-8.7,1-12.3,2.9c-2.1,1.1-4,2.6-5.5,4.3V76h-14.9v53.8h15.6v-26.6
		c0-3.4,0.5-6.1,1.7-8.2c1.1-2.1,2.6-3.6,4.6-4.7c2-1.1,4.2-1.6,6.7-1.6c3.5,0,6.1,1,8,3.1c1.9,2.1,2.8,5.3,2.8,9.6v28.4h15.6V99
		c0-5.5-1-10-2.9-13.5C1355,82.1,1352.4,79.5,1349,77.8z"/>
	<path class="st0" d="M1386.7,113.8c-1.9-1.8-4.2-2.7-6.9-2.7c-2.7,0-4.9,0.9-6.8,2.7s-2.8,4.2-2.8,7.1c0,2.8,0.9,5.1,2.8,6.9
		c1.9,1.8,4.2,2.8,6.8,2.8c2.7,0,5-0.9,6.9-2.8c1.9-1.8,2.8-4.1,2.8-6.9C1389.5,118,1388.6,115.6,1386.7,113.8z"/>
</g>
</svg>
