<?xml version="1.0" encoding="utf-8"?>
<!-- Generator: Adobe Illustrator 22.1.0, SVG Export Plug-In . SVG Version: 6.00 Build 0)  -->
<svg version="1.1" id="Layer_1" xmlns="http://www.w3.org/2000/svg" xmlns:xlink="http://www.w3.org/1999/xlink" x="0px" y="0px"
	 viewBox="0 0 800 80" style="enable-background:new 0 0 800 80;" xml:space="preserve">
<style type="text/css">
	.st0{fill:none;stroke:#FFFFFF;stroke-width:2;stroke-miterlimit:10;}
</style>
<g>
	<path class="st0" d="M48.8,24c-2.3-1-5.1-1.5-8.3-1.5h-16v35h9.9v-9.2h6c3.2,0,6-0.5,8.3-1.6c2.3-1,4.1-2.5,5.4-4.5
		c1.3-1.9,1.9-4.2,1.9-6.9c0-2.6-0.6-4.9-1.9-6.9C53,26.6,51.2,25.1,48.8,24z M44.6,39.2c-1,0.9-2.6,1.3-4.6,1.3h-5.4V30.3h5.4
		c2.1,0,3.6,0.5,4.6,1.4c1,0.9,1.6,2.2,1.6,3.7C46.1,37,45.6,38.3,44.6,39.2z"/>
	<rect x="60.9" y="20.4" class="st0" width="9.5" height="37.1"/>
	<path class="st0" d="M97.1,31.6c-2.2-1.1-4.6-1.7-7.3-1.7c-2.9,0-5.4,0.6-7.7,1.8c-2.3,1.2-4,2.9-5.3,5c-1.3,2.1-1.9,4.5-1.9,7.3
		c0,2.7,0.7,5.1,2,7.2c1.3,2.1,3.2,3.8,5.5,5c2.4,1.2,5.2,1.8,8.4,1.8c2.6,0,4.8-0.4,6.7-1.1s3.5-1.8,4.8-3.2l-5-5.3
		c-0.9,0.8-1.9,1.4-2.8,1.8c-0.9,0.4-2.1,0.6-3.5,0.6c-1.4,0-2.7-0.3-3.7-0.8c-1-0.5-1.8-1.3-2.4-2.2c-0.2-0.4-0.4-0.9-0.5-1.3h19.7
		c0-0.4,0.1-0.8,0.1-1.2c0-0.4,0-0.8,0-1.1c0-3-0.7-5.5-2-7.6C101,34.3,99.3,32.7,97.1,31.6z M86.8,37.4c0.9-0.5,1.9-0.8,3.1-0.8
		c1.1,0,2.1,0.3,2.9,0.8c0.8,0.5,1.5,1.2,2,2.1c0.3,0.5,0.5,1.1,0.6,1.8H84.3c0.1-0.6,0.3-1.2,0.5-1.8C85.3,38.6,86,37.9,86.8,37.4z
		"/>
	<path class="st0" d="M132,31.2c-1.7-0.9-3.6-1.3-5.7-1.3c-2.3,0-4.3,0.5-6.1,1.5c-0.9,0.5-1.7,1.2-2.5,1.9v-3h-9.1v27.2h9.5V44.4
		c0-1.5,0.2-2.8,0.7-3.7c0.5-0.9,1.1-1.6,2-2.1c0.8-0.4,1.8-0.7,2.8-0.7c1.3,0,2.4,0.4,3.2,1.3c0.8,0.9,1.2,2.3,1.2,4.2v14h9.5V42
		c0-2.8-0.5-5.1-1.5-6.9C135.1,33.4,133.7,32,132,31.2z"/>
	<path class="st0" d="M159.8,49.7c-0.8,0.6-1.8,0.8-2.9,0.8c-0.9,0-1.6-0.3-2.1-0.8c-0.5-0.5-0.8-1.3-0.8-2.3v-8.9h6.2v-7.1h-6.2
		v-7.1h-9.5v7.1h-3.9v7.1h3.9v9.1c0,3.5,1,6.1,2.9,7.8c1.9,1.7,4.6,2.6,8.1,2.6c1.3,0,2.5-0.1,3.6-0.4s2.2-0.7,3-1.2L159.8,49.7z"/>
	<path class="st0" d="M178.2,46.9l-6.7-16.6h-9.8l11.6,27.5c-0.4,0.7-0.8,1.3-1.2,1.6c-0.6,0.5-1.4,0.7-2.5,0.7
		c-0.7,0-1.5-0.1-2.2-0.4s-1.4-0.7-2-1.1l-3.4,6.6c0.9,0.7,2.1,1.3,3.6,1.8c1.5,0.4,2.9,0.7,4.3,0.7c1.8,0,3.4-0.3,4.9-0.8
		c1.5-0.5,2.8-1.5,4-2.8c1.2-1.3,2.3-3.1,3.3-5.5l11.6-28.3h-9L178.2,46.9z"/>
	<path class="st0" d="M251.8,31.2c-1.6-0.9-3.5-1.3-5.6-1.3c-2.5,0-4.8,0.6-6.7,1.9c-1,0.7-1.9,1.5-2.7,2.4c-0.6-1-1.4-1.8-2.3-2.4
		c-1.8-1.3-4-1.9-6.4-1.9c-2.1,0-4.1,0.5-5.8,1.5c-0.8,0.5-1.6,1.1-2.3,1.8v-2.8h-9.1v27.2h9.5V44.1c0-1.4,0.2-2.6,0.6-3.5
		c0.4-0.9,1-1.5,1.7-2c0.7-0.4,1.6-0.6,2.5-0.6c1.3,0,2.3,0.4,3,1.3c0.7,0.9,1.1,2.3,1.1,4.2v14h9.5V44.1c0-1.4,0.2-2.6,0.6-3.5
		c0.4-0.9,1-1.5,1.7-2c0.7-0.4,1.5-0.6,2.5-0.6c1.3,0,2.3,0.4,3,1.3c0.7,0.9,1.1,2.3,1.1,4.2v14h9.5V42c0-2.8-0.5-5.1-1.4-6.9
		C254.8,33.4,253.5,32,251.8,31.2z"/>
	<path class="st0" d="M285,31.7c-2.3-1.2-5-1.8-7.9-1.8c-3,0-5.6,0.6-7.9,1.8c-2.3,1.2-4.1,2.9-5.4,5c-1.3,2.1-2,4.5-2,7.3
		c0,2.7,0.7,5.1,2,7.2c1.3,2.1,3.1,3.8,5.4,5s4.9,1.8,7.9,1.8c3,0,5.6-0.6,7.9-1.8c2.3-1.2,4.1-2.9,5.4-5c1.3-2.1,2-4.5,2-7.2
		c0-2.7-0.7-5.2-2-7.3C289.2,34.5,287.3,32.9,285,31.7z M282,47.4c-0.5,1-1.2,1.7-2.1,2.2s-1.8,0.8-2.9,0.8c-1.1,0-2-0.3-2.9-0.8
		s-1.5-1.2-2-2.2c-0.5-1-0.8-2.2-0.8-3.5c0-1.4,0.3-2.6,0.8-3.5c0.5-0.9,1.2-1.6,2-2.1s1.8-0.8,2.9-0.8c1.1,0,2,0.3,2.9,0.8
		s1.5,1.2,2.1,2.1c0.5,0.9,0.8,2.1,0.8,3.5C282.8,45.2,282.5,46.4,282,47.4z"/>
	<path class="st0" d="M305.9,33.6v-3.3h-9.1v27.2h9.5V45c0-2.4,0.6-4.1,1.8-5.1c1.2-1,2.8-1.6,4.7-1.6c0.3,0,0.7,0,1,0
		c0.3,0,0.7,0.1,1.2,0.1v-8.6c-2.6,0-4.7,0.5-6.5,1.6C307.4,32,306.6,32.8,305.9,33.6z"/>
	<path class="st0" d="M339.1,31.6c-2.2-1.1-4.6-1.7-7.3-1.7c-2.9,0-5.4,0.6-7.7,1.8c-2.3,1.2-4,2.9-5.3,5c-1.3,2.1-1.9,4.5-1.9,7.3
		c0,2.7,0.7,5.1,2,7.2c1.3,2.1,3.2,3.8,5.5,5c2.4,1.2,5.2,1.8,8.4,1.8c2.6,0,4.8-0.4,6.7-1.1s3.5-1.8,4.8-3.2l-4.9-5.3
		c-0.9,0.8-1.9,1.4-2.8,1.8s-2.1,0.6-3.4,0.6c-1.4,0-2.7-0.3-3.7-0.8c-1-0.5-1.8-1.3-2.4-2.2c-0.2-0.4-0.4-0.9-0.5-1.3h19.7
		c0-0.4,0.1-0.8,0.1-1.2c0-0.4,0-0.8,0-1.1c0-3-0.7-5.5-2-7.6C343,34.3,341.3,32.7,339.1,31.6z M328.8,37.4c0.9-0.5,1.9-0.8,3.1-0.8
		c1.1,0,2.1,0.3,3,0.8c0.8,0.5,1.5,1.2,2,2.1c0.3,0.5,0.5,1.1,0.6,1.8h-11.1c0.1-0.6,0.3-1.2,0.5-1.8
		C327.3,38.6,328,37.9,328.8,37.4z"/>
	<path class="st0" d="M376.4,28.1c0.6-0.6,1.3-0.9,2.3-0.9c0.6,0,1.1,0.1,1.6,0.2c0.5,0.1,0.9,0.3,1.3,0.6l2.3-6.7
		c-0.8-0.5-1.7-0.8-2.9-1.1c-1.2-0.2-2.3-0.3-3.4-0.3c-3.6,0-6.4,1-8.4,2.9s-2.9,4.6-2.9,7.9v0.6h-4v7.1h4v19h9.5v-19h6.2v-7.1h-6.5
		v-0.5C375.5,29.6,375.8,28.7,376.4,28.1z"/>
	<path class="st0" d="M391.2,17.3c-1.8,0-3.2,0.5-4.2,1.4c-1.1,1-1.6,2.1-1.6,3.6c0,1.4,0.5,2.6,1.6,3.6c1,1,2.5,1.4,4.2,1.4
		c1.8,0,3.2-0.5,4.2-1.5c1.1-1,1.6-2.3,1.6-3.8c0-1.4-0.5-2.5-1.6-3.4C394.3,17.8,392.9,17.3,391.2,17.3z"/>
	<rect x="386.4" y="30.3" class="st0" width="9.5" height="27.2"/>
	<path class="st0" d="M422.1,42.9c-0.9-0.6-2-1-3.1-1.3c-1.1-0.3-2.3-0.5-3.4-0.7s-2.2-0.3-3.1-0.4c-0.9-0.1-1.7-0.4-2.3-0.6
		c-0.6-0.3-0.9-0.7-0.9-1.2c0-0.5,0.3-1,1-1.3c0.7-0.4,1.8-0.5,3.4-0.5c1.2,0,2.4,0.1,3.8,0.4c1.3,0.3,2.7,0.8,4,1.6l2.8-6.5
		c-1.3-0.8-3-1.4-4.9-1.8s-3.9-0.6-5.8-0.6c-2.9,0-5.3,0.4-7.2,1.2c-2,0.8-3.4,1.9-4.5,3.2c-1,1.3-1.5,2.9-1.5,4.6
		c0,1.5,0.3,2.8,0.8,3.8c0.6,1,1.3,1.8,2.3,2.3s2,1,3.2,1.3c1.2,0.3,2.3,0.6,3.4,0.7c1.1,0.1,2.2,0.3,3.1,0.4c1,0.1,1.7,0.3,2.3,0.6
		c0.6,0.3,0.9,0.7,0.9,1.2c0,0.6-0.3,1.1-0.9,1.4c-0.6,0.4-1.7,0.5-3.3,0.5c-1.6,0-3.3-0.2-5-0.7s-3.2-1.1-4.5-1.9l-2.8,6.5
		c1.3,0.8,3.1,1.5,5.3,2c2.2,0.5,4.4,0.8,6.7,0.8c2.9,0,5.4-0.4,7.4-1.2c2-0.8,3.5-1.9,4.5-3.2c1-1.3,1.5-2.8,1.5-4.4
		c0-1.6-0.3-2.8-0.9-3.8S423.1,43.5,422.1,42.9z"/>
	<path class="st0" d="M452.7,31.2c-1.7-0.9-3.6-1.3-5.7-1.3c-2.3,0-4.3,0.5-6.1,1.5c-0.8,0.4-1.4,1-2,1.5V20.4h-9.5v37.1h9.5V44.4
		c0-1.5,0.2-2.8,0.7-3.7c0.5-0.9,1.1-1.6,2-2.1c0.8-0.4,1.8-0.7,2.8-0.7c1.3,0,2.4,0.4,3.2,1.3c0.8,0.9,1.2,2.3,1.2,4.2v14h9.6V42
		c0-2.8-0.5-5.1-1.5-6.9C455.8,33.4,454.4,32,452.7,31.2z"/>
	<path class="st0" d="M483.5,17.3c-1.8,0-3.2,0.5-4.2,1.4c-1,1-1.6,2.1-1.6,3.6c0,1.4,0.5,2.6,1.6,3.6s2.5,1.4,4.2,1.4
		s3.2-0.5,4.2-1.5c1-1,1.6-2.3,1.6-3.8c0-1.4-0.5-2.5-1.6-3.4C486.6,17.8,485.2,17.3,483.5,17.3z"/>
	<rect x="478.7" y="30.3" class="st0" width="9.5" height="27.2"/>
	<path class="st0" d="M517.7,31.2c-1.7-0.9-3.6-1.3-5.7-1.3c-2.3,0-4.3,0.5-6.1,1.5c-0.9,0.5-1.7,1.2-2.4,1.9v-3h-9.1v27.2h9.5V44.4
		c0-1.5,0.2-2.8,0.7-3.7c0.5-0.9,1.1-1.6,2-2.1c0.8-0.4,1.8-0.7,2.8-0.7c1.3,0,2.4,0.4,3.2,1.3c0.8,0.9,1.2,2.3,1.2,4.2v14h9.6V42
		c0-2.8-0.5-5.1-1.5-6.9C520.8,33.4,519.4,32,517.7,31.2z"/>
	<path class="st0" d="M557.2,50.6c-0.9,0-1.6-0.3-2.1-0.8c-0.5-0.5-0.8-1.3-0.8-2.3v-8.9h6.2v-7.1h-6.2v-7.1h-9.5v7.1h-4v7.1h4v9.1
		c0,3.5,1,6.1,2.9,7.8c1.9,1.7,4.6,2.6,8.1,2.6c1.3,0,2.5-0.1,3.6-0.4c1.1-0.3,2.2-0.7,3-1.2l-2.4-6.6
		C559.3,50.3,558.3,50.6,557.2,50.6z"/>
	<path class="st0" d="M589.4,31.2c-1.7-0.9-3.6-1.3-5.7-1.3c-2.3,0-4.3,0.5-6.1,1.5c-0.8,0.4-1.4,1-2,1.5V20.4h-9.5v37.1h9.5V44.4
		c0-1.5,0.2-2.8,0.7-3.7c0.5-0.9,1.1-1.6,2-2.1c0.8-0.4,1.8-0.7,2.8-0.7c1.3,0,2.4,0.4,3.2,1.3c0.8,0.9,1.2,2.3,1.2,4.2v14h9.6V42
		c0-2.8-0.5-5.1-1.5-6.9C592.5,33.4,591.1,32,589.4,31.2z"/>
	<path class="st0" d="M621.7,31.6c-2.2-1.1-4.6-1.7-7.3-1.7c-2.9,0-5.4,0.6-7.7,1.8c-2.3,1.2-4,2.9-5.3,5c-1.3,2.1-1.9,4.5-1.9,7.3
		c0,2.7,0.7,5.1,2,7.2c1.3,2.1,3.2,3.8,5.5,5c2.4,1.2,5.2,1.8,8.4,1.8c2.6,0,4.8-0.4,6.7-1.1s3.5-1.8,4.8-3.2l-5-5.3
		c-0.9,0.8-1.9,1.4-2.8,1.8c-0.9,0.4-2.1,0.6-3.5,0.6c-1.4,0-2.7-0.3-3.7-0.8c-1-0.5-1.8-1.3-2.4-2.2c-0.2-0.4-0.4-0.9-0.5-1.3h19.7
		c0-0.4,0.1-0.8,0.1-1.2c0-0.4,0-0.8,0-1.1c0-3-0.7-5.5-2-7.6C625.6,34.3,623.9,32.7,621.7,31.6z M611.5,37.4c0.9-0.5,1.9-0.8,3-0.8
		c1.1,0,2.1,0.3,3,0.8s1.5,1.2,2,2.1c0.3,0.5,0.5,1.1,0.6,1.8H609c0.1-0.6,0.3-1.2,0.5-1.8C610,38.6,610.6,37.9,611.5,37.4z"/>
	<path class="st0" d="M668,42.9c-0.9-0.6-2-1-3.1-1.3c-1.1-0.3-2.3-0.5-3.4-0.7s-2.2-0.3-3.1-0.4c-0.9-0.1-1.7-0.4-2.3-0.6
		c-0.6-0.3-0.9-0.7-0.9-1.2c0-0.5,0.3-1,1-1.3c0.7-0.4,1.8-0.5,3.4-0.5c1.2,0,2.4,0.1,3.8,0.4c1.3,0.3,2.7,0.8,4,1.6l2.8-6.5
		c-1.3-0.8-3-1.4-4.9-1.8s-3.9-0.6-5.8-0.6c-2.9,0-5.3,0.4-7.2,1.2c-2,0.8-3.4,1.9-4.5,3.2c-1,1.3-1.5,2.9-1.5,4.6
		c0,1.5,0.3,2.8,0.8,3.8c0.6,1,1.3,1.8,2.3,2.3s2,1,3.2,1.3c1.2,0.3,2.3,0.6,3.4,0.7c1.1,0.1,2.2,0.3,3.1,0.4c1,0.1,1.7,0.3,2.3,0.6
		c0.6,0.3,0.9,0.7,0.9,1.2c0,0.6-0.3,1.1-0.9,1.4c-0.6,0.4-1.7,0.5-3.3,0.5c-1.6,0-3.3-0.2-5-0.7s-3.2-1.1-4.5-1.9l-2.8,6.5
		c1.3,0.8,3.1,1.5,5.3,2c2.2,0.5,4.4,0.8,6.7,0.8c2.9,0,5.4-0.4,7.4-1.2c2-0.8,3.5-1.9,4.5-3.2c1-1.3,1.5-2.8,1.5-4.4
		c0-1.6-0.3-2.8-0.9-3.8S668.9,43.5,668,42.9z"/>
	<path class="st0" d="M695.7,31.6c-2.2-1.1-4.6-1.7-7.3-1.7c-2.9,0-5.4,0.6-7.7,1.8c-2.3,1.2-4,2.9-5.3,5c-1.3,2.1-1.9,4.5-1.9,7.3
		c0,2.7,0.7,5.1,2,7.2c1.3,2.1,3.2,3.8,5.5,5c2.4,1.2,5.2,1.8,8.4,1.8c2.6,0,4.8-0.4,6.7-1.1s3.5-1.8,4.8-3.2l-5-5.3
		c-0.9,0.8-1.9,1.4-2.8,1.8c-0.9,0.4-2.1,0.6-3.5,0.6c-1.4,0-2.7-0.3-3.7-0.8c-1-0.5-1.8-1.3-2.4-2.2c-0.2-0.4-0.4-0.9-0.5-1.3h19.7
		c0-0.4,0.1-0.8,0.1-1.2c0-0.4,0-0.8,0-1.1c0-3-0.7-5.5-2-7.6C699.6,34.3,697.9,32.7,695.7,31.6z M685.5,37.4c0.9-0.5,1.9-0.8,3-0.8
		c1.1,0,2.1,0.3,3,0.8s1.5,1.2,2,2.1c0.3,0.5,0.5,1.1,0.6,1.8H683c0.1-0.6,0.3-1.2,0.5-1.8C684,38.6,684.6,37.9,685.5,37.4z"/>
	<path class="st0" d="M728.4,32.9c-2.4-2-5.8-3.1-10.2-3.1c-2.1,0-4.3,0.3-6.4,0.9c-2.1,0.6-4,1.4-5.5,2.4l3.1,6.4
		c0.9-0.7,2.1-1.2,3.4-1.6c1.4-0.4,2.7-0.6,4-0.6c2,0,3.5,0.4,4.4,1.2c0.8,0.7,1.3,1.8,1.3,3.1h-5.4c-2.8,0-5,0.3-6.8,1
		s-3.1,1.6-3.9,2.8c-0.9,1.2-1.3,2.7-1.3,4.4c0,1.5,0.4,2.9,1.2,4.2c0.8,1.3,1.9,2.3,3.5,3c1.5,0.7,3.3,1.1,5.5,1.1
		c2.4,0,4.3-0.5,5.7-1.4c1-0.6,1.7-1.5,2.3-2.6v3.6h8.9V42.4C732,38.1,730.8,35,728.4,32.9z M720.7,51.2c-0.8,0.5-1.8,0.8-2.9,0.8
		c-1.1,0-2-0.3-2.6-0.8c-0.6-0.5-1-1.2-1-2c0-0.9,0.3-1.5,0.9-2c0.6-0.5,1.7-0.7,3.2-0.7h4.1v2.3C722.1,49.8,721.5,50.6,720.7,51.2z
		"/>
	<path class="st0" d="M775.5,26c-1.1-1.4-2.7-2.5-4.7-3.2c-2-0.7-4.2-1.1-6.8-1.1c-3.7,0-6.8,0.7-9.3,2c-2.4,1.3-4.3,3.1-5.6,5.4
		l7.4,3.9c0.7-1.1,1.5-2,2.6-2.6c1.1-0.6,2.3-0.9,3.6-0.9c1.3,0,2.4,0.3,3.2,0.9c0.8,0.6,1.2,1.4,1.2,2.3c0,0.6-0.2,1.2-0.5,1.7
		c-0.3,0.6-0.8,1.1-1.3,1.6c-0.5,0.5-1.1,1-1.7,1.6c-0.6,0.6-1.2,1.2-1.7,1.9c-0.5,0.7-1,1.4-1.3,2.3c-0.3,0.8-0.5,1.8-0.5,2.9h8.9
		c0-0.8,0.2-1.5,0.6-2.1c0.4-0.6,0.9-1.2,1.5-1.7c0.7-0.6,1.3-1.2,2-1.8c0.7-0.6,1.3-1.3,2-2c0.6-0.7,1.2-1.6,1.5-2.5
		c0.4-1,0.6-2.1,0.6-3.4C777.2,29.1,776.6,27.4,775.5,26z"/>
	<path class="st0" d="M764.5,47.5c-1.7,0-3,0.5-4.1,1.5c-1,1-1.6,2.2-1.6,3.7c0,1.4,0.5,2.7,1.6,3.7c1.1,1,2.4,1.5,4.1,1.5
		c1.7,0,3.1-0.5,4.1-1.5c1-1,1.6-2.3,1.6-3.7c0-1.5-0.5-2.7-1.6-3.7S766.2,47.5,764.5,47.5z"/>
</g>
</svg>
