<?xml version="1.0" encoding="utf-8"?>
<!-- Generator: Adobe Illustrator 22.1.0, SVG Export Plug-In . SVG Version: 6.00 Build 0)  -->
<svg version="1.1" id="Layer_1" xmlns="http://www.w3.org/2000/svg" xmlns:xlink="http://www.w3.org/1999/xlink" x="0px" y="0px"
	 viewBox="0 0 1500 200" style="enable-background:new 0 0 1500 200;" xml:space="preserve">
<style type="text/css">
	.st0{fill:none;stroke:#CEFF00;stroke-width:2;stroke-miterlimit:10;}
</style>
<g>
	<path class="st0" d="M177.9,99.1c-0.6-0.3-1.2-0.5-1.8-0.7c2.7-1.4,4.9-3.3,6.5-5.8c1.8-2.7,2.7-5.9,2.7-9.5
		c0-5.5-2.2-9.9-6.6-13.2c-4.4-3.3-11.1-5-19.9-5h-34.2v70h36.2c9.2,0,16.2-1.7,20.9-5c4.7-3.4,7.1-8,7.1-14c0-4.1-1-7.5-2.9-10.3
		C183.9,102.7,181.3,100.5,177.9,99.1z M140.7,77.1h16.1c3.9,0,7,0.7,9,2c2.1,1.3,3.2,3.4,3.2,6.2c0,2.8-1.1,4.9-3.2,6.3
		c-2.1,1.4-5.1,2-9,2h-16.1V77.1z M169.2,120.6c-2.2,1.4-5.4,2.1-9.5,2.1h-19v-17.3h19c4.1,0,7.3,0.7,9.5,2.1
		c2.2,1.4,3.3,3.6,3.3,6.6C172.5,117,171.4,119.2,169.2,120.6z"/>
	<path class="st0" d="M238.9,83.7c-4.2-2.3-9-3.4-14.3-3.4c-5.5,0-10.4,1.2-14.8,3.5c-4.4,2.4-7.8,5.6-10.2,9.8
		c-2.4,4.2-3.7,9-3.7,14.3c0,5.3,1.3,10.1,3.8,14.3c2.5,4.2,6.1,7.5,10.7,9.9c4.6,2.4,10,3.6,16.1,3.6c4.9,0,9.2-0.8,12.9-2.3
		c3.7-1.5,6.8-3.6,9.3-6.5l-8.3-9c-1.8,1.7-3.8,3-5.9,3.9c-2.2,0.9-4.6,1.3-7.5,1.3c-3.3,0-6.1-0.6-8.4-1.8c-2.3-1.2-4.2-2.8-5.5-5
		c-0.7-1.2-1.3-2.5-1.6-4h40.7c0.1-0.7,0.1-1.4,0.2-2.2c0.1-0.8,0.1-1.4,0.1-2c0-5.8-1.2-10.8-3.7-14.9
		C246.5,89.1,243.1,85.9,238.9,83.7z M211.5,103.3c0.3-1.7,0.7-3.2,1.5-4.6c1.1-2.1,2.7-3.7,4.8-4.9c2-1.2,4.4-1.8,7-1.8
		c2.7,0,5,0.6,7,1.8c2,1.2,3.6,2.8,4.7,4.8c0.7,1.4,1.2,2.9,1.4,4.6H211.5z"/>
	<path class="st0" d="M332.2,86.1c-4.5-3.9-10.9-5.8-19.1-5.8c-4.3,0-8.5,0.5-12.6,1.6c-4.1,1.1-7.7,2.7-10.6,4.9l5.5,10.9
		c2-1.5,4.4-2.8,7.1-3.6c2.8-0.9,5.6-1.4,8.4-1.4c4.2,0,7.3,0.9,9.4,2.8c2,1.9,3.1,4.5,3.1,7.8v0.1h-12.3c-5.5,0-10,0.7-13.4,2
		c-3.4,1.3-5.9,3.2-7.5,5.7c-1.6,2.4-2.3,5.2-2.3,8.3c0,3.1,0.8,5.8,2.4,8.3c1.6,2.5,4,4.4,7,5.9c3,1.4,6.6,2.1,10.7,2.1
		c4.7,0,8.6-0.9,11.6-2.8c2-1.2,3.6-2.8,4.8-4.8v6.7H339v-30.7C339,96,336.7,89.9,332.2,86.1z M318.9,123.4
		c-2.1,1.2-4.5,1.8-7.1,1.8c-2.7,0-4.8-0.6-6.4-1.8c-1.6-1.2-2.4-2.8-2.4-4.8c0-1.8,0.7-3.3,2.1-4.5c1.4-1.2,3.9-1.8,7.5-1.8h10.7
		v5.5C322.5,120.3,321,122.2,318.9,123.4z"/>
	<path class="st0" d="M426.8,83.7c-4-2.3-8.6-3.4-13.8-3.4c-4.6,0-8.6,1-12,3c-1.8,1.1-3.4,2.4-4.8,4v-6.2h-14.9v73.2H397v-25.1
		c1.3,1.4,2.7,2.6,4.3,3.5c3.4,2,7.3,3,11.8,3c5.1,0,9.7-1.1,13.8-3.5c4-2.3,7.2-5.5,9.6-9.6c2.4-4.1,3.5-9,3.5-14.7
		c0-5.6-1.2-10.5-3.5-14.6C434,89.2,430.8,86,426.8,83.7z M422.3,115.9c-1.2,2.2-2.9,4-4.9,5.2c-2,1.2-4.4,1.8-7,1.8
		c-2.6,0-4.9-0.6-7-1.8c-2.1-1.2-3.7-2.9-4.9-5.2c-1.2-2.2-1.9-4.9-1.9-8c0-3.1,0.6-5.8,1.9-8c1.2-2.2,2.9-3.9,4.9-5
		c2.1-1.2,4.4-1.8,7-1.8c2.6,0,4.9,0.6,7,1.8c2,1.2,3.7,2.9,4.9,5c1.2,2.2,1.9,4.9,1.9,8C424.2,111,423.5,113.7,422.3,115.9z"/>
	<path class="st0" d="M490.3,86.1c-4.5-3.9-10.9-5.8-19.1-5.8c-4.3,0-8.5,0.5-12.6,1.6c-4.1,1.1-7.7,2.7-10.6,4.9l5.5,10.9
		c2-1.5,4.4-2.8,7.1-3.6c2.8-0.9,5.6-1.4,8.4-1.4c4.2,0,7.3,0.9,9.4,2.8c2,1.9,3.1,4.5,3.1,7.8v0.1h-12.3c-5.5,0-10,0.7-13.4,2
		c-3.4,1.3-5.9,3.2-7.5,5.7c-1.6,2.4-2.3,5.2-2.3,8.3c0,3.1,0.8,5.8,2.4,8.3c1.6,2.5,4,4.4,7,5.9c3,1.4,6.6,2.1,10.7,2.1
		c4.7,0,8.6-0.9,11.6-2.8c2-1.2,3.6-2.8,4.8-4.8v6.7h14.6v-30.7C497.1,96,494.8,89.9,490.3,86.1z M477,123.4
		c-2.1,1.2-4.5,1.8-7.1,1.8c-2.7,0-4.8-0.6-6.4-1.8c-1.6-1.2-2.4-2.8-2.4-4.8c0-1.8,0.7-3.3,2.1-4.5c1.4-1.2,3.9-1.8,7.5-1.8h10.7
		v5.5C480.6,120.3,479.1,122.2,477,123.4z"/>
	<path class="st0" d="M526,88.1v-7.1h-14.9v53.8h15.6v-25.4c0-5.1,1.3-8.9,3.9-11.4c2.6-2.5,6.1-3.7,10.5-3.7c0.5,0,1.1,0,1.6,0.1
		c0.6,0.1,1.1,0.2,1.8,0.3V80.3c-5.1,0-9.4,1-12.9,2.9C529.4,84.5,527.5,86.1,526,88.1z"/>
	<path class="st0" d="M579.8,123.3c-2,0-3.6-0.6-4.8-1.9c-1.2-1.3-1.8-3-1.8-5.3V94.3h13.3v-12h-13.3V69.2h-15.7v13.1h-8.3v12h8.3
		v22.1c0,6.4,1.8,11.2,5.3,14.5c3.5,3.2,8.5,4.8,14.8,4.8c2.4,0,4.7-0.3,6.9-0.8c2.2-0.6,4.1-1.4,5.6-2.5l-4.1-11
		C584.5,122.6,582.4,123.3,579.8,123.3z"/>
	<path class="st0" d="M668.3,83.8c-4.5-2.4-9.6-3.5-15.3-3.5c-5.7,0-10.7,1.2-15.2,3.5c-4.4,2.4-7.9,5.6-10.4,9.8
		c-2.5,4.2-3.8,9-3.8,14.3c0,5.3,1.3,10.1,3.8,14.3c2.5,4.2,6,7.5,10.4,9.9c4.4,2.4,9.5,3.6,15.2,3.6c5.7,0,10.8-1.2,15.3-3.6
		c4.5-2.4,8-5.7,10.5-9.8c2.5-4.1,3.8-8.9,3.8-14.3c0-5.4-1.3-10.2-3.8-14.3C676.3,89.4,672.8,86.2,668.3,83.8z M665,116
		c-1.2,2.3-2.9,4-4.9,5.2c-2,1.2-4.4,1.8-7,1.8c-2.5,0-4.8-0.6-6.9-1.8c-2.1-1.2-3.7-2.9-4.9-5.2c-1.2-2.3-1.9-4.9-1.9-8
		c0-3.1,0.6-5.8,1.9-8c1.2-2.2,2.9-3.9,4.9-5c2.1-1.2,4.4-1.8,7-1.8c2.6,0,4.9,0.6,7,1.8c2,1.2,3.7,2.9,4.9,5c1.2,2.2,1.9,4.9,1.9,8
		C666.8,111,666.2,113.7,665,116z"/>
	<path class="st0" d="M712,74.1c1.2-1.3,3-1.9,5.3-1.9c1.2,0,2.3,0.2,3.4,0.5c1.1,0.3,2,0.8,2.9,1.4l4.1-11.4
		c-1.5-0.9-3.3-1.6-5.4-2.1c-2.1-0.5-4.3-0.7-6.5-0.7c-6.7,0-11.8,1.8-15.4,5.4c-3.6,3.6-5.4,8.5-5.4,14.6v2.4h-8.3v12h8.3v40.6
		h15.7V94.3h13.3v-12h-13.8v-2.2C710.1,77.3,710.8,75.3,712,74.1z"/>
	<path class="st0" d="M784.1,123.3c-2,0-3.6-0.6-4.8-1.9c-1.2-1.3-1.8-3-1.8-5.3V94.3h13.3v-12h-13.3V69.2h-15.7v13.1h-8.3v12h8.3
		v22.1c0,6.4,1.8,11.2,5.3,14.5c3.5,3.2,8.5,4.8,14.8,4.8c2.4,0,4.7-0.3,7-0.8c2.2-0.6,4.1-1.4,5.6-2.5l-4.1-11
		C788.8,122.6,786.7,123.3,784.1,123.3z"/>
	<path class="st0" d="M847.7,82.8c-3.4-1.7-7.2-2.5-11.4-2.5c-4.6,0-8.7,1-12.3,2.9c-1.8,1-3.4,2.2-4.8,3.6V60.7h-15.6v74.2h15.6
		v-26.6c0-3.4,0.5-6.1,1.7-8.2c1.1-2.1,2.6-3.6,4.6-4.7c2-1.1,4.2-1.6,6.7-1.6c3.5,0,6.1,1,8,3.1c1.9,2.1,2.8,5.3,2.8,9.6v28.4h15.6
		v-30.8c0-5.5-1-10-2.9-13.5C853.7,87.1,851.1,84.5,847.7,82.8z"/>
	<path class="st0" d="M912,83.7c-4.2-2.3-9-3.4-14.3-3.4c-5.5,0-10.4,1.2-14.8,3.5c-4.4,2.4-7.8,5.6-10.2,9.8
		c-2.4,4.2-3.7,9-3.7,14.3c0,5.3,1.3,10.1,3.8,14.3c2.5,4.2,6.1,7.5,10.7,9.9c4.6,2.4,10,3.6,16.1,3.6c4.9,0,9.2-0.8,12.9-2.3
		c3.7-1.5,6.8-3.6,9.3-6.5l-8.3-9c-1.8,1.7-3.8,3-6,3.9c-2.2,0.9-4.6,1.3-7.4,1.3c-3.3,0-6.1-0.6-8.4-1.8c-2.3-1.2-4.2-2.8-5.5-5
		c-0.7-1.2-1.3-2.5-1.6-4h40.7c0.1-0.7,0.1-1.4,0.2-2.2c0.1-0.8,0.1-1.4,0.1-2c0-5.8-1.2-10.8-3.7-14.9
		C919.6,89.1,916.2,85.9,912,83.7z M890.8,93.8c2-1.2,4.4-1.8,7-1.8c2.7,0,5,0.6,7,1.8c2,1.2,3.6,2.8,4.7,4.8
		c0.7,1.4,1.2,2.9,1.4,4.6h-26.4c0.3-1.7,0.7-3.2,1.5-4.6C887.2,96.6,888.8,95,890.8,93.8z"/>
	<path class="st0" d="M1001.5,106.6c-2-1.1-4.1-2-6.3-2.5c-2.3-0.6-4.6-1.1-6.9-1.4c-2.3-0.3-4.5-0.7-6.4-1
		c-1.9-0.3-3.5-0.8-4.7-1.5c-1.2-0.7-1.8-1.7-1.8-3c0-1.5,0.8-2.7,2.4-3.6c1.6-0.9,4.2-1.4,7.8-1.4c2.4,0,4.9,0.3,7.5,0.9
		c2.6,0.6,5.2,1.6,7.8,3.1l5.3-11.1c-2.6-1.5-5.8-2.6-9.6-3.4c-3.8-0.8-7.5-1.3-11.3-1.3c-5.2,0-9.6,0.7-13.3,2.2
		c-3.7,1.5-6.5,3.5-8.5,6.2c-2,2.6-3,5.7-3,9c0,3.1,0.6,5.6,1.8,7.5c1.2,1.9,2.7,3.5,4.7,4.5c2,1.1,4.1,2,6.4,2.6
		c2.3,0.6,4.6,1.1,6.9,1.4c2.3,0.3,4.5,0.7,6.4,1c1.9,0.3,3.4,0.8,4.6,1.5c1.2,0.6,1.8,1.6,1.8,2.8c0,1.5-0.8,2.7-2.3,3.6
		c-1.5,0.9-4,1.3-7.6,1.3c-3.3,0-6.6-0.5-10-1.5c-3.4-1-6.3-2.2-8.9-3.6l-5.1,11.1c2.5,1.7,5.9,3,10.1,4.2c4.2,1.1,8.6,1.6,13.2,1.6
		c5.4,0,10-0.7,13.8-2.2c3.8-1.5,6.7-3.5,8.7-6c2-2.6,3-5.5,3-8.8c0-3.1-0.6-5.6-1.8-7.5C1005,109.2,1003.5,107.7,1001.5,106.6z"/>
	<path class="st0" d="M1058.3,83.8c-4.5-2.4-9.6-3.5-15.3-3.5c-5.7,0-10.7,1.2-15.2,3.5c-4.4,2.4-7.9,5.6-10.5,9.8
		c-2.5,4.2-3.8,9-3.8,14.3c0,5.3,1.3,10.1,3.8,14.3c2.5,4.2,6,7.5,10.5,9.9c4.4,2.4,9.5,3.6,15.2,3.6c5.7,0,10.8-1.2,15.3-3.6
		c4.5-2.4,8-5.7,10.5-9.8c2.5-4.1,3.8-8.9,3.8-14.3c0-5.4-1.3-10.2-3.8-14.3C1066.3,89.4,1062.8,86.2,1058.3,83.8z M1055,116
		c-1.2,2.3-2.9,4-4.9,5.2c-2,1.2-4.4,1.8-7,1.8c-2.5,0-4.8-0.6-6.9-1.8c-2.1-1.2-3.7-2.9-5-5.2c-1.2-2.3-1.8-4.9-1.8-8
		c0-3.1,0.6-5.8,1.8-8c1.2-2.2,2.9-3.9,5-5c2.1-1.2,4.4-1.8,7-1.8c2.6,0,4.9,0.6,7,1.8c2,1.2,3.7,2.9,4.9,5c1.2,2.2,1.8,4.9,1.8,8
		C1056.8,111,1056.2,113.7,1055,116z"/>
	<rect x="1083" y="60.7" class="st0" width="15.6" height="74.2"/>
	<path class="st0" d="M1151.8,107.8c0,3.2-0.6,5.9-1.7,8c-1.1,2.1-2.6,3.7-4.5,4.8c-1.9,1.1-4,1.6-6.4,1.6c-3.5,0-6.2-1-8.1-3.1
		c-1.9-2.1-2.8-5.4-2.8-10v-28h-15.6v30.4c0,5.5,1,10,2.9,13.6c1.9,3.6,4.6,6.3,8.1,8c3.5,1.7,7.5,2.6,12,2.6c4.1,0,7.9-1,11.4-2.8
		c2-1.1,3.8-2.6,5.3-4.3v6.4h14.8V81.1h-15.5V107.8z"/>
	<path class="st0" d="M1205.9,123.3c-2,0-3.6-0.6-4.8-1.9c-1.2-1.3-1.8-3-1.8-5.3V94.3h13.3v-12h-13.3V69.2h-15.7v13.1h-8.3v12h8.3
		v22.1c0,6.4,1.8,11.2,5.3,14.5c3.5,3.2,8.5,4.8,14.8,4.8c2.4,0,4.7-0.3,7-0.8c2.2-0.6,4.1-1.4,5.6-2.5l-4.1-11
		C1210.6,122.6,1208.5,123.3,1205.9,123.3z"/>
	<rect x="1225.3" y="81.1" class="st0" width="15.6" height="53.8"/>
	<path class="st0" d="M1240.2,58.5c-1.8-1.6-4.2-2.4-7-2.4c-2.9,0-5.3,0.8-7.1,2.5c-1.8,1.7-2.7,3.7-2.7,6.2c0,2.5,0.9,4.5,2.7,6.2
		c1.8,1.7,4.2,2.5,7.1,2.5c2.9,0,5.3-0.9,7.1-2.5c1.8-1.7,2.7-3.9,2.7-6.5C1242.9,62.1,1242,60.1,1240.2,58.5z"/>
	<path class="st0" d="M1296.2,83.8c-4.5-2.4-9.6-3.5-15.3-3.5c-5.7,0-10.7,1.2-15.2,3.5c-4.4,2.4-7.9,5.6-10.5,9.8
		c-2.5,4.2-3.8,9-3.8,14.3c0,5.3,1.3,10.1,3.8,14.3c2.5,4.2,6,7.5,10.5,9.9c4.4,2.4,9.5,3.6,15.2,3.6c5.7,0,10.8-1.2,15.3-3.6
		c4.5-2.4,8-5.7,10.5-9.8c2.5-4.1,3.8-8.9,3.8-14.3c0-5.4-1.3-10.2-3.8-14.3C1304.2,89.4,1300.7,86.2,1296.2,83.8z M1292.9,116
		c-1.2,2.3-2.9,4-4.9,5.2c-2,1.2-4.4,1.8-7,1.8c-2.5,0-4.8-0.6-6.9-1.8c-2.1-1.2-3.7-2.9-5-5.2c-1.2-2.3-1.8-4.9-1.8-8
		c0-3.1,0.6-5.8,1.8-8c1.2-2.2,2.9-3.9,5-5c2.1-1.2,4.4-1.8,7-1.8c2.6,0,4.9,0.6,7,1.8c2,1.2,3.7,2.9,4.9,5c1.2,2.2,1.8,4.9,1.8,8
		C1294.7,111,1294.1,113.7,1292.9,116z"/>
	<path class="st0" d="M1373,90.6c-1.9-3.5-4.6-6.1-8-7.8c-3.4-1.7-7.2-2.5-11.4-2.5c-4.6,0-8.7,1-12.3,2.9c-2.1,1.1-4,2.6-5.5,4.3
		v-6.4h-14.9v53.8h15.6v-26.6c0-3.4,0.5-6.1,1.7-8.2c1.1-2.1,2.6-3.6,4.6-4.7c2-1.1,4.2-1.6,6.7-1.6c3.5,0,6.1,1,8,3.1
		c1.9,2.1,2.8,5.3,2.8,9.6v28.4h15.6v-30.8C1375.9,98.6,1375,94.1,1373,90.6z"/>
</g>
</svg>
