<?xml version="1.0" encoding="utf-8"?>
<!-- Generator: Adobe Illustrator 22.1.0, SVG Export Plug-In . SVG Version: 6.00 Build 0)  -->
<svg version="1.1" id="Layer_1" xmlns="http://www.w3.org/2000/svg" xmlns:xlink="http://www.w3.org/1999/xlink" x="0px" y="0px"
	 viewBox="0 0 300 150" style="enable-background:new 0 0 300 150;" xml:space="preserve">
<style type="text/css">
	.st0{fill:none;stroke:#CEFF00;stroke-width:2;stroke-miterlimit:10;}
</style>
<g>
	<polygon class="st0" points="70.4,35.3 7.7,35.3 7.7,51 29.2,51 29.2,105.3 49,105.3 49,51 70.4,51 	"/>
	<path class="st0" d="M114.5,53.7c-4.6-2.4-9.9-3.6-15.9-3.6c-5.9,0-11.2,1.2-15.8,3.6s-8.2,5.7-10.9,10c-2.6,4.2-3.9,9.1-3.9,14.5
		c0,5.4,1.3,10.2,3.9,14.5c2.6,4.2,6.3,7.6,10.9,10c4.6,2.4,9.9,3.6,15.8,3.6c5.9,0,11.2-1.2,15.9-3.6c4.6-2.4,8.3-5.7,10.9-10
		c2.6-4.2,4-9,4-14.5c0-5.5-1.3-10.3-4-14.5C122.8,59.5,119.1,56.1,114.5,53.7z M108.5,85.2c-1,2-2.4,3.4-4.1,4.4
		c-1.7,1-3.6,1.5-5.7,1.5c-2.1,0-4-0.5-5.8-1.5c-1.7-1-3.1-2.5-4.1-4.4c-1-2-1.6-4.3-1.6-7.1c0-2.8,0.5-5.1,1.6-7
		c1-1.9,2.4-3.3,4.1-4.3c1.7-1,3.6-1.5,5.8-1.5c2.1,0,4.1,0.5,5.7,1.5c1.7,1,3.1,2.4,4.1,4.3c1,1.9,1.5,4.2,1.5,7
		C110,80.9,109.5,83.2,108.5,85.2z"/>
	<path class="st0" d="M185.6,53.6c-4-2.3-8.5-3.5-13.5-3.5c-4.9,0-8.9,1-12.2,3.1c-1.4,0.9-2.7,2-3.8,3.3V51H138v73.7h19v-24.2
		c1,1,2.1,1.9,3.3,2.7c3.3,2,7.2,3.1,11.8,3.1c4.9,0,9.4-1.1,13.5-3.4c4-2.3,7.2-5.5,9.6-9.7c2.4-4.2,3.5-9.1,3.5-14.8
		c0-5.8-1.2-10.8-3.5-15C192.8,59.2,189.6,56,185.6,53.6z M178,85.2c-1,1.9-2.4,3.4-4.1,4.4s-3.6,1.5-5.8,1.5c-2.1,0-4-0.5-5.8-1.5
		s-3.1-2.5-4.1-4.4c-1-1.9-1.5-4.2-1.5-6.9c0-2.9,0.5-5.3,1.5-7.1c1-1.9,2.4-3.4,4.1-4.4s3.6-1.5,5.8-1.5c2.1,0,4,0.5,5.8,1.5
		s3.1,2.5,4.1,4.4c1,1.9,1.5,4.3,1.5,7.1C179.5,81,179,83.3,178,85.2z"/>
	<rect x="207.5" y="51" class="st0" width="19" height="54.3"/>
	<path class="st0" d="M225.4,27.7c-2.1-1.8-4.9-2.7-8.4-2.7c-3.5,0-6.3,0.9-8.4,2.8c-2.1,1.9-3.2,4.3-3.2,7.2c0,2.9,1,5.3,3.2,7.2
		c2.1,1.9,4.9,2.9,8.4,2.9c3.5,0,6.4-1,8.5-3c2.1-2,3.2-4.5,3.2-7.5C228.6,31.8,227.6,29.5,225.4,27.7z"/>
	<path class="st0" d="M272.5,89.4c-1.9,1.2-3.9,1.8-6.1,1.8s-4.2-0.5-6-1.5c-1.8-1-3.2-2.5-4.3-4.4c-1.1-1.9-1.6-4.3-1.6-7
		c0-2.9,0.5-5.2,1.6-7.1c1.1-1.9,2.5-3.3,4.3-4.3c1.8-1,3.8-1.5,6-1.5s4.2,0.6,6.1,1.8c1.9,1.2,3.4,3,4.7,5.5l14.7-7.6
		c-1.9-4.7-5-8.3-9.5-11c-4.5-2.6-9.8-4-15.9-4c-6.1,0-11.4,1.2-16.1,3.7c-4.7,2.4-8.3,5.8-11,9.9c-2.7,4.2-4,9-4,14.5
		c0,5.4,1.3,10.2,4,14.5c2.7,4.2,6.3,7.6,11,10c4.7,2.4,10,3.6,16.1,3.6c6.1,0,11.4-1.3,15.9-4c4.5-2.6,7.6-6.3,9.5-11l-14.7-7.5
		C276,86.4,274.4,88.2,272.5,89.4z"/>
</g>
</svg>
