<?xml version="1.0" encoding="utf-8"?>
<!-- Generator: Adobe Illustrator 22.1.0, SVG Export Plug-In . SVG Version: 6.00 Build 0)  -->
<svg version="1.1" id="Layer_1" xmlns="http://www.w3.org/2000/svg" xmlns:xlink="http://www.w3.org/1999/xlink" x="0px" y="0px"
	 viewBox="0 0 1000 200" style="enable-background:new 0 0 1000 200;" xml:space="preserve">
<style type="text/css">
	.st0{fill:none;stroke:#2A2AEA;stroke-miterlimit:10;}
</style>
<g>
	<polygon class="st0" points="112.7,102.8 67.8,48.4 44,48.4 44,150.6 72.2,150.6 72.2,96.1 117.2,150.6 141,150.6 141,48.4 
		112.7,48.4 	"/>
	<path class="st0" d="M253.5,61.4c-5.1-4.8-11-8.5-17.9-11.1c-6.9-2.6-14.4-3.9-22.6-3.9c-8.2,0-15.7,1.3-22.6,3.9
		c-6.9,2.6-12.9,6.3-17.9,11.2c-5.1,4.8-9,10.4-11.9,16.8c-2.9,6.4-4.3,13.4-4.3,21c0,7.7,1.4,14.8,4.3,21.2
		c2.9,6.5,6.8,12.1,11.9,16.9c5.1,4.8,11.1,8.5,18,11.2c7,2.6,14.5,3.9,22.5,3.9c8.2,0,15.7-1.3,22.6-3.9c6.9-2.6,12.9-6.3,18-11.1
		c5.1-4.8,9.1-10.4,11.9-16.8c2.8-6.5,4.2-13.6,4.2-21.4c0-7.7-1.4-14.7-4.3-21.2C262.5,71.8,258.5,66.2,253.5,61.4z M238.4,111.5
		c-1.4,3.6-3.4,6.6-5.8,9.2c-2.5,2.6-5.4,4.5-8.8,5.9c-3.4,1.4-7,2-10.9,2c-3.9,0-7.5-0.7-10.9-2c-3.4-1.4-6.3-3.3-8.8-5.9
		c-2.5-2.6-4.5-5.6-5.8-9.2c-1.4-3.5-2-7.6-2-12c0-4.5,0.7-8.5,2-12c1.4-3.5,3.3-6.6,5.8-9.2c2.5-2.6,5.5-4.5,8.8-5.9
		c3.4-1.4,7-2,10.9-2c3.9,0,7.5,0.7,10.9,2c3.4,1.4,6.3,3.3,8.8,5.9c2.5,2.6,4.4,5.6,5.8,9.2c1.4,3.6,2.1,7.6,2.1,12
		C240.5,104,239.8,108,238.4,111.5z"/>
	<path class="st0" d="M398.2,53c-6.8-3-14.9-4.5-24.2-4.5h-46.5v102.1h28.9v-26.7h17.6c9.3,0,17.4-1.5,24.2-4.6
		c6.8-3.1,12-7.4,15.7-13c3.6-5.6,5.5-12.3,5.5-20.2c0-7.7-1.8-14.4-5.5-20.1S405,56,398.2,53z M385.8,97.1c-3,2.6-7.5,3.9-13.6,3.9
		h-15.9V71.2h15.9c6,0,10.5,1.3,13.6,4c3,2.7,4.5,6.3,4.5,10.9C390.3,90.8,388.8,94.5,385.8,97.1z"/>
	<polygon class="st0" points="462.3,48.4 433.5,48.4 433.5,150.6 510.9,150.6 510.9,127.7 462.3,127.7 	"/>
	<path class="st0" d="M556.1,48.4L511,150.6h29.5l8-20h43.2l8,20h30L584.6,48.4H556.1z M557,109.4l13.1-32.6l13.1,32.6H557z"/>
	<path class="st0" d="M707.6,97.7c-3.5-2.2-7.2-3.9-11.3-5.3c-4.1-1.3-8.2-2.4-12.3-3.3c-4.1-0.9-7.9-1.7-11.3-2.6
		c-3.4-0.8-6.2-1.9-8.3-3.2c-2.1-1.3-3.2-3.1-3.2-5.5c0-1.6,0.5-3,1.6-4.4c1.1-1.4,2.8-2.5,5.3-3.4c2.4-0.9,5.6-1.3,9.6-1.3
		c4.5,0,9.1,0.6,13.9,1.9c4.8,1.3,9.6,3.3,14.4,6l8.8-21.3c-5-3-10.7-5.3-17.1-6.8c-6.5-1.5-13.1-2.3-19.8-2.3
		c-10,0-18.4,1.5-25.1,4.5c-6.7,3-11.7,7-15,12c-3.3,5-5,10.5-5,16.5c0,5.4,1,10,3.1,13.6c2.1,3.6,4.8,6.5,8.2,8.8
		c3.4,2.2,7.2,4,11.4,5.4c4.2,1.4,8.3,2.5,12.3,3.3c4,0.8,7.8,1.7,11.2,2.6c3.5,0.9,6.2,2,8.4,3.4c2.1,1.3,3.2,3.1,3.2,5.3
		c0,1.8-0.6,3.3-1.7,4.5c-1.1,1.3-2.9,2.2-5.3,2.9c-2.4,0.7-5.6,1-9.7,1c-5.9,0-11.9-0.9-17.9-2.8c-6-1.9-11.3-4.3-15.8-7.2
		l-9.5,21.4c4.8,3.2,11,5.9,18.7,8c7.7,2.1,15.8,3.1,24.3,3.1c10.1,0,18.5-1.5,25.2-4.5c6.7-3,11.7-7,15.1-12c3.4-5,5-10.5,5-16.4
		c0-5.3-1.1-9.8-3.2-13.3C713.8,102.7,711,99.9,707.6,97.7z"/>
	<polygon class="st0" points="721.2,71.3 752.6,71.3 752.6,150.6 781.5,150.6 781.5,71.3 812.7,71.3 812.7,48.4 721.2,48.4 	"/>
	<rect x="823.6" y="48.4" class="st0" width="28.9" height="102.1"/>
	<path class="st0" d="M938.4,125.6c-4,2-8.4,3.1-13.1,3.1c-4.2,0-8-0.7-11.5-2c-3.5-1.4-6.5-3.3-9-5.9c-2.5-2.6-4.4-5.7-5.8-9.3
		c-1.4-3.6-2.1-7.6-2.1-12c0-4.4,0.7-8.4,2.1-12c1.4-3.6,3.4-6.7,5.8-9.3c2.5-2.6,5.5-4.5,9-5.9c3.5-1.4,7.3-2,11.5-2
		c4.8,0,9.1,1,13.1,3.1c4,2,7.6,5,10.9,8.9l18.4-16.6c-5-6.3-11.2-11.1-18.6-14.4c-7.4-3.3-15.9-4.9-25.3-4.9
		c-8.1,0-15.5,1.3-22.3,3.9c-6.8,2.6-12.7,6.2-17.8,10.9c-5.1,4.7-9,10.3-11.8,16.8c-2.8,6.5-4.2,13.7-4.2,21.4
		c0,7.8,1.4,14.9,4.2,21.4c2.8,6.5,6.8,12.1,11.8,16.8c5.1,4.7,11,8.4,17.8,10.9c6.8,2.6,14.2,3.9,22.3,3.9c9.4,0,17.9-1.7,25.3-5
		c7.4-3.3,13.6-8.1,18.6-14.4l-18.4-16.6C946.1,120.6,942.4,123.6,938.4,125.6z"/>
</g>
</svg>
