<?xml version="1.0" encoding="utf-8"?>
<!-- Generator: Adobe Illustrator 22.1.0, SVG Export Plug-In . SVG Version: 6.00 Build 0)  -->
<svg version="1.1" id="Layer_1" xmlns="http://www.w3.org/2000/svg" xmlns:xlink="http://www.w3.org/1999/xlink" x="0px" y="0px"
	 viewBox="0 0 595.3 841.9" style="enable-background:new 0 0 595.3 841.9;" xml:space="preserve">
<style type="text/css">
	.st0{fill:#2A2AEA;}
</style>
<g>
	<path class="st0" d="M276.1,157.1c-2.3-1.5-5.5-2-9.6-1.6c-4.1,0.4-7,1.5-8.9,3.1c-1.9,1.6-2.7,3.6-2.4,6.1c0.2,2.3,1.5,4,3.8,5.2
		c2.3,1.2,5.7,2,10.2,2.4l8,1c10.1,1.1,17.8,3.7,23.1,8c5.3,4.3,8.4,10.1,9.2,17.4c0.6,6.1-0.4,11.5-2.9,16.1
		c-2.6,4.6-6.6,8.4-12,11.2c-5.4,2.9-12.1,4.7-20,5.5c-12.5,1.3-22.6-0.5-30.3-5.3c-7.7-4.8-12.2-12.9-13.5-24.1l23.6-2.5
		c0.6,4.3,2.5,7.4,5.6,9.4c3.1,2,7.1,2.7,12.1,2.2c4.1-0.4,7.3-1.6,9.4-3.3c2.1-1.8,3-3.9,2.8-6.5c-0.3-2.3-1.6-4-3.9-5.2
		c-2.3-1.2-6.2-2.1-11.5-2.7l-9.7-1.1c-18.2-2-28-9.8-29.4-23.5c-0.7-5.8,0.4-11.2,3.1-16c2.7-4.8,6.8-8.8,12.2-11.9
		c5.4-3.1,11.8-5,19.1-5.8c7.4-0.8,14-0.2,19.8,1.7c5.8,1.9,10.5,5,14,9.2c3.5,4.3,5.6,9.4,6.3,15.4l-23.7,2.5
		C279.9,160.9,278.4,158.6,276.1,157.1z"/>
	<path class="st0" d="M366.7,186.2l-12.1-2.6l-6.2,29.6c-0.4,1.7-0.2,3,0.6,3.9c0.8,0.9,2.1,1.6,4.1,2c1.7,0.4,4.2,0.7,7.3,1.1
		l-3.8,18c-2.8,0-6.7-0.5-11.7-1.5c-8.5-1.8-14.6-4.9-18.2-9.2c-3.6-4.3-4.6-9.9-3-17l6.7-32l-8.9-1.9l3.7-17.5l8.9,1.9l3.5-16.6
		l24.1,5.1l-3.5,16.6l12.1,2.5L366.7,186.2z"/>
	<path class="st0" d="M372.9,241.4c-3.3-5.3-4.9-11.1-4.8-17.3c0.1-6.2,2-12.5,5.5-18.8c3.5-6.3,7.9-11.2,13.2-14.5
		c5.2-3.4,11-5,17.3-5c6.3,0,12.7,1.9,19.2,5.5c6.5,3.6,11.4,8.1,14.8,13.5c3.3,5.3,4.9,11.1,4.7,17.3c-0.2,6.2-2,12.5-5.5,18.8
		c-3.5,6.3-7.9,11.2-13.1,14.6c-5.2,3.4-10.9,5.1-17.2,5c-6.3,0-12.7-1.9-19.2-5.5C381.1,251.2,376.2,246.7,372.9,241.4z
		 M391.8,230.5c0.1,3.8,1.8,6.7,4.9,8.5c3,1.6,6.2,1.5,9.5-0.3c3.3-1.9,6.3-5.2,9-10.1c2.8-5,4.2-9.5,4.1-13.4
		c-0.1-3.9-1.6-6.6-4.7-8.3c-3.1-1.8-6.4-1.8-9.7,0.1c-3.3,1.9-6.4,5.3-9.3,10.3C392.9,222.3,391.6,226.7,391.8,230.5z"/>
	<path class="st0" d="M476.1,228l15.4,18.9l-9.5,7.8l0.4,0.5c3.9-1.3,7.9-1.4,11.9-0.3c4.1,1.1,7.7,3.5,10.9,7.4
		c3.1,3.8,5,8.2,5.7,13.1c0.7,4.9-0.3,10.1-2.9,15.5c-2.6,5.4-7,10.7-13.3,15.9c-6.1,5-12,8.2-17.8,9.8c-5.8,1.5-11.1,1.5-15.9,0
		c-4.8-1.6-8.8-4.4-12.1-8.5c-3.1-3.7-4.8-7.6-5.2-11.7c-0.4-4.1,0.4-7.9,2.4-11.5l-0.2-0.3l-29.5,24.2l-15.6-19.1L476.1,228z
		 M456.2,279.6c-1.1,3.6-0.5,6.8,1.8,9.6c2.3,2.8,5.4,4,9,3.6c3.7-0.4,7.6-2.3,11.8-5.7c4.1-3.4,6.8-6.9,7.8-10.4
		c1.1-3.5,0.5-6.7-1.9-9.4c-2.3-2.9-5.3-4.2-9-3.8c-3.7,0.4-7.7,2.3-11.9,5.8C459.8,272.6,457.2,276,456.2,279.6z"/>
	<path class="st0" d="M511.5,434.7c-7.7-3.1-13.9-7.8-18.5-14.1c-4.6-6.4-7.5-13.8-8.5-22.4c-1.1-8.6-0.2-16.6,2.7-23.9
		c2.9-7.3,7.7-13.4,14.5-18.3c6.7-4.9,15.1-7.9,25.2-9.2c10.1-1.3,19-0.4,26.7,2.7c7.7,3.1,13.9,7.8,18.5,14.1
		c4.6,6.4,7.5,13.9,8.5,22.5c1.1,8.5,0.2,16.5-2.7,23.8c-2.9,7.3-7.7,13.4-14.4,18.3c-6.7,4.9-15.2,8-25.2,9.2
		C528.2,438.6,519.3,437.7,511.5,434.7z M511,379.7c-4.1,4-5.8,9.3-5,15.7c0.9,6.4,3.8,11.1,8.8,13.9c5,2.9,11.8,3.7,20.4,2.6
		c8.6-1,15-3.6,19.1-7.6c4.1-4,5.8-9.2,5-15.7c-0.8-6.5-3.7-11.1-8.7-14s-11.8-3.8-20.4-2.7C521.5,373.1,515.1,375.7,511,379.7z"/>
	<path class="st0" d="M487.7,460.6c4.5-4.4,9.7-7.2,15.8-8.4c6.1-1.2,12.6-0.9,19.6,1.2c7,2,12.7,5.3,17.1,9.6
		c4.4,4.4,7.3,9.6,8.7,15.7c1.4,6.1,1,12.8-1.1,19.9c-1.9,6.5-4.7,11.8-8.5,15.9c-3.8,4.2-8.2,6.9-13.4,8.3
		c-5.1,1.4-10.6,1.3-16.4-0.4l6.5-22c3.6,0.7,6.7,0.5,9.1-0.7s4-3.2,4.8-6c1.1-3.4,0.4-6.6-1.9-9.5c-2.3-2.9-6.3-5.1-11.8-6.8
		c-5.6-1.6-10.2-1.8-13.7-0.7c-3.5,1.1-5.8,3.4-6.9,6.9c-0.8,2.8-0.5,5.4,0.9,7.8c1.4,2.4,3.8,4.2,7.2,5.5l-6.5,22
		c-5.8-1.9-10.6-4.8-14.1-8.7c-3.6-3.9-5.9-8.7-6.9-14.2c-1-5.5-0.5-11.5,1.4-18.1C479.9,470.8,483.2,465,487.7,460.6z"/>
	<path class="st0" d="M462,525.6c5.6-2.6,11.5-3.4,17.6-2.5c6.1,1,12.2,3.7,18.3,8.3c5.8,4.4,10,9.4,12.6,15.1
		c2.6,5.7,3.5,11.6,2.7,17.7c-0.8,6.1-3.4,12.1-7.8,17.8c-4.2,5.6-9,9.6-14.5,12.1c-5.5,2.5-11.2,3.2-17.3,2.2
		c-6.1-1-12.1-3.7-18.1-8.2l-4.7-3.5l27.9-37l-0.7-0.5c-3-2.2-6.1-3.2-9.2-2.8c-3.2,0.4-5.9,2.1-8.3,5.2c-1.6,2.2-2.6,4.4-2.9,6.6
		c-0.3,2.2,0.1,4.3,1.3,6.1l-13.6,18c-3.4-3.6-5.7-7.6-6.7-12.1c-1.1-4.5-0.9-9.3,0.5-14.4c1.4-5,4-10.1,7.8-15.2
		C451.4,532.5,456.4,528.2,462,525.6z M475.6,574.6c1.7,1.3,3.5,2,5.4,2.1c1.9,0.2,3.8-0.2,5.6-1c1.8-0.8,3.3-2.1,4.6-3.8
		c1.3-1.8,2.2-3.7,2.6-5.7c0.4-2,0.2-3.9-0.4-5.8c-0.6-1.8-1.8-3.4-3.5-4.7L475.6,574.6z"/>
	<path class="st0" d="M441.4,600c-2,5.6-6.2,10.7-12.6,15.4l-9.2,6.5l-4.3,3l3.1,4.8c1.1,1.6,2.5,2.4,4.3,2.6
		c1.8,0.1,3.7-0.5,5.8-1.8c2.2-1.4,3.6-3,4.3-4.7c0.7-1.8,0.6-3.7-0.3-5.7l19.2-12.3c2.1,3.9,3.1,8,3,12.4c-0.2,4.4-1.7,8.7-4.5,13
		c-2.8,4.3-7.1,8.3-12.7,11.9c-5.4,3.5-10.7,5.7-15.9,6.7c-5.2,1-9.8,0.7-14-0.8c-4.2-1.5-7.5-4.2-9.9-8l-26.2-40.6l19.4-12.5
		l5.4,8.3l0.4-0.3c-0.3-4.3,0.5-8.1,2.4-11.5c1.9-3.3,4.9-6.3,8.9-9c5.9-3.8,11.6-5.3,17-4.7c5.4,0.7,9.9,3.9,13.6,9.6
		C442.5,588.5,443.5,594.4,441.4,600z M415.4,593.3c-1.8-0.1-3.7,0.4-5.7,1.7c-1.8,1.1-3.1,2.5-4.2,4.2c-1,1.7-1.5,3.5-1.6,5.4
		c0,1.9,0.5,3.7,1.7,5.5l2,3.2c4.3-2.9,7.6-5.3,9.9-7.2c1.7-1.5,2.7-3.1,3.1-4.9c0.4-1.8,0.1-3.5-0.9-5.2
		C418.6,594.4,417.2,593.5,415.4,593.3z"/>
	<path class="st0" d="M343.8,609.3l24.1-5l14.4,69.3l-22.8,4.8l-2.7-13l-0.8,0.2c-0.6,4.6-2.5,8.5-5.8,11.8
		c-3.2,3.3-7.4,5.4-12.5,6.5c-4.8,1-9.3,0.8-13.4-0.7c-4.1-1.4-7.6-3.9-10.4-7.4c-2.8-3.5-4.7-7.8-5.7-12.9l-9.2-44.1l24.1-5
		l8.2,39.2c0.7,3.5,2.1,6.1,4.3,7.8c2.2,1.6,4.9,2.1,8.2,1.5c3.2-0.7,5.6-2.2,7.1-4.6c1.5-2.4,1.9-5.4,1.1-8.9L343.8,609.3z"/>
	<path class="st0" d="M240.5,707.1l-38.2-12.3c-6.6-2.1-12-5.3-16.2-9.5c-4.2-4.2-6.9-9.2-8.1-14.8c-1.2-5.6-0.8-11.6,1.2-17.8
		c2-6.3,5.2-11.4,9.5-15.2c4.3-3.8,9.5-6.2,15.4-7.1c5.9-0.9,12.3-0.2,19.1,2l13.9,4.5l8.7-27l23.6,7.6L240.5,707.1z M222.1,652.1
		c-4.4-1.4-8.3-1.3-11.5,0.2c-3.2,1.5-5.4,4.2-6.7,8.2c-1.3,3.9-1.1,7.4,0.7,10.4c1.8,3,4.8,5.3,9.3,6.7l9.2,2.9l8.2-25.6
		L222.1,652.1z"/>
	<path class="st0" d="M185.3,587c2.3,5.8,2.9,11.8,1.7,17.9c-1.2,6.1-4.1,12-8.7,17.6c-4.6,5.6-9.7,9.6-15.5,12
		c-5.7,2.4-11.7,3.1-17.9,1.9c-6.2-1.1-12.2-4-18-8.7c-5.8-4.7-9.9-10-12.2-15.8c-2.3-5.8-2.9-11.8-1.7-17.9
		c1.2-6.1,4.1-11.9,8.7-17.6c4.6-5.6,9.7-9.7,15.4-12.1c5.7-2.4,11.7-3.1,17.8-2c6.2,1.1,12.2,4,18,8.7
		C178.9,575.9,183,581.1,185.3,587z M164.9,594.4c0.5-3.8-0.6-6.9-3.4-9.2c-2.7-2.1-5.8-2.6-9.4-1.3c-3.6,1.3-7.1,4-10.6,8.4
		c-3.6,4.5-5.8,8.6-6.4,12.5c-0.6,3.8,0.5,6.8,3.2,9c2.8,2.3,6,2.8,9.6,1.5c3.6-1.3,7.3-4.1,10.9-8.5
		C162.3,602.3,164.4,598.2,164.9,594.4z"/>
	<path class="st0" d="M129.5,523.9l14.3,20.1l-76.9,54.6l-14.3-20.1L129.5,523.9z"/>
	<path class="st0" d="M114.4,494.1l10.6,22.2l-85.2,40.6l-10.6-22.2L114.4,494.1z"/>
	<path class="st0" d="M32.2,455.5l-4-24.3l69.8-11.6l3.8,23l-13.2,2.2l0.1,0.8c4.7,0.8,8.6,2.9,11.7,6.2c3.1,3.4,5.1,7.6,6,12.9
		c0.8,4.8,0.4,9.2-1.2,13.2c-1.6,4-4.2,7.4-7.9,10.1c-3.6,2.7-8,4.4-13.1,5.3l-44.5,7.4l-4-24.3l39.5-6.6c3.6-0.6,6.2-2,7.9-4.1
		c1.7-2.1,2.3-4.8,1.8-8.1c-0.5-3.2-2-5.6-4.4-7.2c-2.4-1.6-5.4-2.1-9-1.4L32.2,455.5z"/>
	<path class="st0" d="M53.9,365.1l-1.8,12.3l29.9,4.3c1.7,0.2,3,0,3.9-0.9c0.9-0.8,1.4-2.2,1.7-4.3c0.2-1.7,0.5-4.2,0.7-7.4
		l18.2,2.6c0.2,2.8-0.1,6.7-0.8,11.7c-1.3,8.6-3.9,14.9-8,18.8c-4,3.9-9.6,5.2-16.8,4.1l-32.4-4.7l-1.3,9l-17.7-2.6l1.3-9l-16.8-2.4
		l3.5-24.4l16.8,2.4l1.8-12.3L53.9,365.1z"/>
	<path class="st0" d="M35.6,334.5c-1.6,1.4-3.4,2.4-5.4,2.8c-2,0.4-4,0.3-5.9-0.4c-1.9-0.7-3.5-1.9-4.8-3.5c-1.3-1.6-2-3.5-2.4-5.6
		c-0.3-2.1-0.1-4.2,0.7-6.3c0.8-2.1,1.9-3.8,3.5-5.2c1.6-1.4,3.4-2.3,5.4-2.8c2-0.4,4-0.3,5.9,0.4c2,0.7,3.6,1.9,4.8,3.5
		c1.3,1.6,2,3.5,2.3,5.6c0.3,2.1,0.1,4.2-0.7,6.3C38.3,331.3,37.2,333.1,35.6,334.5z M42.1,343.4l8.4-23.1l66.5,24.3l-8.4,23.1
		L42.1,343.4z"/>
	<path class="st0" d="M123.2,323.9c-5.7,2.7-11.6,3.6-17.8,2.8c-6.2-0.8-12.2-3.3-18.1-7.6c-5.9-4.2-10.2-9.1-13-14.7
		c-2.8-5.6-3.8-11.5-3.1-17.7c0.7-6.2,3.3-12.4,7.6-18.5c4.3-6.1,9.4-10.5,15-13.2c5.7-2.7,11.6-3.6,17.7-2.8
		c6.1,0.9,12.2,3.4,18.1,7.6c5.9,4.2,10.2,9.1,13,14.7c2.8,5.5,3.8,11.4,3.1,17.7c-0.7,6.2-3.3,12.4-7.6,18.5
		C133.9,316.8,128.8,321.2,123.2,323.9z M114.5,303.9c3.8,0.3,6.8-1,8.9-3.9c2-2.8,2.2-6,0.7-9.5c-1.5-3.5-4.5-6.9-9-10.1
		c-4.7-3.4-9-5.2-12.8-5.6c-3.9-0.4-6.8,0.9-8.8,3.7c-2.1,2.9-2.5,6.1-0.9,9.7c1.5,3.5,4.6,7,9.2,10.4
		C106.5,301.9,110.7,303.7,114.5,303.9z"/>
	<path class="st0" d="M180.6,265.9l-20.7,13.4l-38.5-59.4l19.6-12.7l7.2,11.1l0.7-0.4c-1.1-4.5-0.7-8.9,1.1-13.1
		c1.8-4.2,5-7.8,9.3-10.6c4.1-2.7,8.4-4.1,12.7-4.2c4.4-0.1,8.5,0.9,12.4,3.2c3.9,2.3,7.2,5.6,10,9.9l24.5,37.8l-20.7,13.4
		l-21.8-33.6c-1.9-3.1-4.2-5-6.8-5.7s-5.4-0.2-8.1,1.6c-2.8,1.8-4.4,4.1-4.9,6.9c-0.5,2.8,0.2,5.7,2.2,8.7L180.6,265.9z"/>
</g>
</svg>
