<?xml version="1.0" encoding="utf-8"?>
<!-- Generator: Adobe Illustrator 22.1.0, SVG Export Plug-In . SVG Version: 6.00 Build 0)  -->
<svg version="1.1" id="Layer_1" xmlns="http://www.w3.org/2000/svg" xmlns:xlink="http://www.w3.org/1999/xlink" x="0px" y="0px"
	 viewBox="0 0 16 16" style="enable-background:new 0 0 16 16;" xml:space="preserve">
<style type="text/css">
	.st0{fill:url(#SVGID_1_);}
	.st1{fill:url(#SVGID_2_);}
</style>
<g>
	<linearGradient id="SVGID_1_" gradientUnits="userSpaceOnUse" x1="5.4997" y1="10.009" x2="14.8952" y2="10.009">
		<stop  offset="0" style="stop-color:#00087B"/>
		<stop  offset="1.857650e-02" style="stop-color:#020981"/>
		<stop  offset="0.1203" style="stop-color:#0A0FA0"/>
		<stop  offset="0.2322" style="stop-color:#1114B9"/>
		<stop  offset="0.3562" style="stop-color:#1617CD"/>
		<stop  offset="0.4989" style="stop-color:#1A1ADB"/>
		<stop  offset="0.6769" style="stop-color:#1C1CE3"/>
		<stop  offset="1" style="stop-color:#1D1CE5"/>
	</linearGradient>
	<path class="st0" d="M7.9,14c-0.7-0.4-1.3-1-1.7-1.7c-0.4-0.7-0.7-1.5-0.7-2.3s0.2-1.6,0.7-2.3C6.6,7,7.2,6.4,7.9,6
		c0.7-0.4,1.5-0.6,2.3-0.6c0.8,0,1.6,0.2,2.3,0.6c0.7,0.4,1.3,1,1.7,1.7c0.4,0.7,0.6,1.5,0.6,2.3c0,0.8-0.2,1.6-0.6,2.3
		c-0.4,0.7-1,1.3-1.7,1.7c-0.7,0.4-1.5,0.6-2.3,0.6C9.4,14.6,8.6,14.4,7.9,14z M11.3,11.9c0.4-0.2,0.6-0.5,0.9-0.8s0.3-0.7,0.3-1.2
		c0-0.4-0.1-0.8-0.3-1.1s-0.5-0.6-0.9-0.8c-0.4-0.2-0.8-0.3-1.2-0.3C9.7,7.8,9.3,7.9,9,8.1C8.6,8.2,8.4,8.5,8.2,8.8
		C8,9.2,7.9,9.5,7.9,10c0,0.4,0.1,0.8,0.3,1.2c0.2,0.3,0.5,0.6,0.8,0.8c0.3,0.2,0.7,0.3,1.2,0.3C10.6,12.2,11,12.1,11.3,11.9z"/>
	<linearGradient id="SVGID_2_" gradientUnits="userSpaceOnUse" x1="1.1048" y1="6.0031" x2="8.9535" y2="6.0031">
		<stop  offset="0" style="stop-color:#00087B"/>
		<stop  offset="1.857650e-02" style="stop-color:#020981"/>
		<stop  offset="0.1203" style="stop-color:#0A0FA0"/>
		<stop  offset="0.2322" style="stop-color:#1114B9"/>
		<stop  offset="0.3562" style="stop-color:#1617CD"/>
		<stop  offset="0.4989" style="stop-color:#1A1ADB"/>
		<stop  offset="0.6769" style="stop-color:#1C1CE3"/>
		<stop  offset="1" style="stop-color:#1D1CE5"/>
	</linearGradient>
	<path class="st1" d="M6,2c0.9,0.4,1.6,1,2.1,1.8C8.7,4.6,9,5.4,9,6.4c0,1.4-0.5,2.5-1.6,3.2c-1,0.7-2.4,1.1-4.2,1.1
		c-0.7,0-1.4,0-2.1-0.1l0.1-8.7c0.4-0.2,0.7-0.3,1-0.3s0.7-0.1,1-0.1C4.2,1.4,5.2,1.6,6,2z M6.3,6c0-0.4-0.1-0.8-0.3-1.1
		C5.8,4.6,5.5,4.4,5.1,4.2S4.4,4,4,4C3.8,4,3.6,4,3.5,4v4.1C5.4,8.1,6.3,7.4,6.3,6z"/>
</g>
</svg>
