<?xml version="1.0" encoding="utf-8"?>
<!-- Generator: Adobe Illustrator 22.1.0, SVG Export Plug-In . SVG Version: 6.00 Build 0)  -->
<svg version="1.1" id="Layer_1" xmlns="http://www.w3.org/2000/svg" xmlns:xlink="http://www.w3.org/1999/xlink" x="0px" y="0px"
	 viewBox="0 0 100 40" style="enable-background:new 0 0 100 40;" xml:space="preserve">
<style type="text/css">
	.st0{fill:url(#SVGID_1_);}
	.st1{fill:url(#SVGID_2_);}
	.st2{fill:url(#SVGID_3_);}
	.st3{fill:url(#SVGID_4_);}
</style>
<g>
	<linearGradient id="SVGID_1_" gradientUnits="userSpaceOnUse" x1="23.3116" y1="25.3084" x2="47.8671" y2="25.3084">
		<stop  offset="0" style="stop-color:#070FB4"/>
		<stop  offset="6.965739e-02" style="stop-color:#0F16C1"/>
		<stop  offset="0.2032" style="stop-color:#1B1FD3"/>
		<stop  offset="0.3618" style="stop-color:#2425E0"/>
		<stop  offset="0.5684" style="stop-color:#2929E8"/>
		<stop  offset="1" style="stop-color:#2A2AEA"/>
	</linearGradient>
	<path class="st0" d="M46.3,18.8c-1-1.7-2.5-3.1-4.3-4c-1.9-0.9-4-1.4-6.5-1.4c-1.9,0-3.8,0.5-5.7,1.3c-1.9,0.9-3.4,2.2-4.7,4
		c-1.2,1.7-1.9,3.8-1.9,6.2c0,2.1,0.5,4.2,1.6,6.1c1.1,1.9,2.6,3.4,4.5,4.5c1.9,1.1,4,1.7,6.2,1.7c2.3,0,4.3-0.5,6.2-1.6
		c1.9-1.1,3.3-2.5,4.4-4.4c1.1-1.9,1.6-4,1.6-6.2C47.9,22.6,47.4,20.6,46.3,18.8z M38.9,28.6c-0.8,0.8-1.8,1.2-3,1.2
		c-1.4,0-2.5-0.4-3.4-1.3c-0.9-0.9-1.3-1.9-1.3-3.2c0-1.3,0.4-2.4,1.3-3.2c0.9-0.9,1.9-1.3,3.2-1.3c1.5,0,2.6,0.5,3.4,1.3
		c0.8,0.9,1.1,2,1.1,3.3C40.1,26.8,39.7,27.9,38.9,28.6z"/>
	<linearGradient id="SVGID_2_" gradientUnits="userSpaceOnUse" x1="74.8019" y1="25.1538" x2="99.3575" y2="25.1538">
		<stop  offset="0" style="stop-color:#070FB4"/>
		<stop  offset="6.965739e-02" style="stop-color:#0F16C1"/>
		<stop  offset="0.2032" style="stop-color:#1B1FD3"/>
		<stop  offset="0.3618" style="stop-color:#2425E0"/>
		<stop  offset="0.5684" style="stop-color:#2929E8"/>
		<stop  offset="1" style="stop-color:#2A2AEA"/>
	</linearGradient>
	<path class="st1" d="M97.8,18.7c-1-1.7-2.5-3.1-4.3-4c-1.9-0.9-4-1.4-6.5-1.4c-1.9,0-3.8,0.5-5.7,1.3c-1.9,0.9-3.4,2.2-4.7,4
		c-1.2,1.7-1.9,3.8-1.9,6.2c0,2.1,0.5,4.2,1.6,6.1c1.1,1.9,2.6,3.4,4.5,4.5c1.9,1.1,4,1.7,6.2,1.7c2.3,0,4.3-0.5,6.2-1.6
		c1.9-1.1,3.3-2.5,4.4-4.4c1.1-1.9,1.6-4,1.6-6.2C99.4,22.5,98.8,20.4,97.8,18.7z M90.4,28.5c-0.8,0.8-1.8,1.2-3,1.2
		c-1.4,0-2.5-0.4-3.4-1.3c-0.9-0.9-1.3-1.9-1.3-3.2c0-1.3,0.4-2.4,1.3-3.2c0.9-0.9,1.9-1.3,3.2-1.3c1.5,0,2.6,0.5,3.4,1.3
		c0.8,0.9,1.1,2,1.1,3.3C91.6,26.6,91.2,27.7,90.4,28.5z"/>
	<linearGradient id="SVGID_3_" gradientUnits="userSpaceOnUse" x1="46.5624" y1="20" x2="76.493" y2="20">
		<stop  offset="0" style="stop-color:#070FB4"/>
		<stop  offset="6.965739e-02" style="stop-color:#0F16C1"/>
		<stop  offset="0.2032" style="stop-color:#1B1FD3"/>
		<stop  offset="0.3618" style="stop-color:#2425E0"/>
		<stop  offset="0.5684" style="stop-color:#2929E8"/>
		<stop  offset="1" style="stop-color:#2A2AEA"/>
	</linearGradient>
	<path class="st2" d="M74.5,9.1C73.2,5.7,71.3,3,68.8,1l-6.3,3.6c2,2.1,3.5,4.3,4.5,6.6c0.7,1.7,1.1,3.7,1.3,6
		c-0.8-0.9-1.9-1.7-3.1-2.4c-1.9-0.9-4-1.4-6.5-1.4c-1.9,0-3.8,0.5-5.7,1.3c-1.9,0.9-3.4,2.2-4.7,4c-1.2,1.7-1.9,3.8-1.9,6.2
		c0,2.1,0.5,4.2,1.6,6.1c1.1,1.9,2.6,3.4,4.5,4.5c1.9,1.1,4,1.7,6.2,1.7c1.9,0,3.6-0.4,5.2-1.1l5.1,2.9c2.3-2.2,4.2-5.2,5.4-8.7
		c1.3-3.6,1.9-7.2,1.9-11C76.5,15.9,75.8,12.6,74.5,9.1z M55.7,28.5c-0.9-0.9-1.3-1.9-1.3-3.2c0-1.3,0.4-2.4,1.3-3.2
		c0.9-0.9,1.9-1.3,3.2-1.3c1.5,0,2.6,0.5,3.4,1.3c0.8,0.9,1.1,2,1.1,3.3c0,1.4-0.4,2.4-1.2,3.2c-0.8,0.8-1.8,1.2-3,1.2
		C57.8,29.8,56.6,29.4,55.7,28.5z"/>
	<linearGradient id="SVGID_4_" gradientUnits="userSpaceOnUse" x1="3.0417" y1="26.1569" x2="32.2285" y2="15.5337">
		<stop  offset="0" style="stop-color:#070FB4"/>
		<stop  offset="6.965739e-02" style="stop-color:#0F16C1"/>
		<stop  offset="0.2032" style="stop-color:#1B1FD3"/>
		<stop  offset="0.3618" style="stop-color:#2425E0"/>
		<stop  offset="0.5684" style="stop-color:#2929E8"/>
		<stop  offset="1" style="stop-color:#2A2AEA"/>
	</linearGradient>
	<path class="st3" d="M24.1,12c2-2.1,3.3-4.3,3.9-6.5l0.3-1L21.4,1l-0.8,2c-0.4,0.9-0.8,1.8-1.3,2.6c0,0-3,6.7-12.9,6.5
		c-0.9,0-1.8-0.1-2.8-0.3l-2.2-0.4l-0.7,8.2l1.1,0.3c2.3,0.6,5,0.5,7.9,0c1.7-0.3,3.3-0.8,4.8-1.4c0.5,0.7,1,1.4,1.3,2.2
		c0.5,1.2,0.8,2.8,0.8,4.5c0,1.6-0.3,3.1-0.8,4.5c-0.6,1.4-1.5,2.7-2.7,4L11.5,35l7.1,4l0.7-0.7c1.6-1.5,2.9-3.6,3.8-6
		c0.9-2.4,1.3-4.9,1.3-7.3c0-2.3-0.5-4.6-1.4-6.9c-0.5-1.3-1.2-2.4-1.9-3.5C22.2,13.8,23.2,12.9,24.1,12z"/>
</g>
</svg>
