<?xml version="1.0" encoding="utf-8"?>
<!-- Generator: Adobe Illustrator 22.1.0, SVG Export Plug-In . SVG Version: 6.00 Build 0)  -->
<svg version="1.1" id="Layer_1" xmlns="http://www.w3.org/2000/svg" xmlns:xlink="http://www.w3.org/1999/xlink" x="0px" y="0px"
	 viewBox="0 0 120 50" style="enable-background:new 0 0 120 50;" xml:space="preserve">
<style type="text/css">
	.st0{fill:#FFFFFF;stroke:#000000;stroke-width:0.75;stroke-miterlimit:10;}
</style>
<g>
	<path class="st0" d="M56,23.4c-1.2-2-2.8-3.5-4.9-4.6c-2.1-1.1-4.6-1.6-7.5-1.6c-2.2,0-4.4,0.5-6.5,1.5c-2.1,1-3.9,2.5-5.3,4.5
		c-1.4,2-2.1,4.3-2.1,7.1c0,2.5,0.6,4.8,1.9,6.9c1.2,2.2,2.9,3.9,5.1,5.2c2.2,1.3,4.5,1.9,7.1,1.9c2.6,0,5-0.6,7.1-1.8
		c2.1-1.2,3.8-2.9,5.1-5.1c1.2-2.1,1.8-4.5,1.8-7.1C57.7,27.7,57.1,25.4,56,23.4z M47.5,34.6C46.6,35.5,45.4,36,44,36
		c-1.6,0-2.9-0.5-3.9-1.5c-1-1-1.5-2.2-1.5-3.7c0-1.5,0.5-2.7,1.5-3.7c1-1,2.2-1.5,3.7-1.5c1.7,0,3,0.5,3.8,1.5
		c0.9,1,1.3,2.3,1.3,3.8C48.9,32.5,48.4,33.7,47.5,34.6z"/>
	<path class="st0" d="M114.8,23.2c-1.2-2-2.8-3.5-4.9-4.6c-2.1-1.1-4.6-1.6-7.5-1.6c-2.2,0-4.4,0.5-6.5,1.5c-2.1,1-3.9,2.5-5.3,4.5
		c-1.4,2-2.1,4.3-2.1,7.1c0,2.5,0.6,4.8,1.9,6.9c1.2,2.2,2.9,3.9,5.1,5.2c2.2,1.3,4.5,1.9,7.1,1.9c2.6,0,5-0.6,7.1-1.8
		c2.1-1.2,3.8-2.9,5.1-5.1c1.2-2.1,1.8-4.5,1.8-7.1C116.6,27.5,116,25.2,114.8,23.2z M106.3,34.4c-0.9,0.9-2.1,1.3-3.5,1.3
		c-1.6,0-2.9-0.5-3.9-1.5c-1-1-1.5-2.2-1.5-3.7c0-1.5,0.5-2.7,1.5-3.7c1-1,2.2-1.5,3.7-1.5c1.7,0,3,0.5,3.8,1.5
		c0.9,1,1.3,2.3,1.3,3.8C107.7,32.3,107.3,33.5,106.3,34.4z"/>
	<path class="st0" d="M88.1,12.3c-1.5-3.9-3.7-7-6.5-9.3l-7.2,4.1c2.3,2.4,4,4.9,5.1,7.5c0.8,2,1.3,4.2,1.5,6.8
		c-1-1.1-2.1-2-3.5-2.7c-2.1-1.1-4.6-1.6-7.5-1.6c-2.2,0-4.4,0.5-6.5,1.5c-2.1,1-3.9,2.5-5.3,4.5c-1.4,2-2.1,4.3-2.1,7.1
		c0,2.5,0.6,4.8,1.9,6.9c1.2,2.2,2.9,3.9,5.1,5.2c2.2,1.3,4.5,1.9,7.1,1.9c2.1,0,4.1-0.4,5.9-1.3l5.8,3.3c2.7-2.6,4.7-5.9,6.2-10
		c1.5-4.1,2.2-8.3,2.2-12.5C90.4,20.1,89.7,16.2,88.1,12.3z M66.7,34.4c-1-1-1.5-2.2-1.5-3.7c0-1.5,0.5-2.7,1.5-3.7
		c1-1,2.2-1.5,3.7-1.5c1.7,0,3,0.5,3.8,1.5c0.9,1,1.3,2.3,1.3,3.8c0,1.6-0.5,2.8-1.4,3.7c-0.9,0.9-2.1,1.3-3.5,1.3
		C69,35.9,67.7,35.4,66.7,34.4z"/>
	<path class="st0" d="M30.5,15.5c2.2-2.4,3.7-4.9,4.4-7.4L35.3,7l-7.8-4l-0.9,2.3c-0.4,1.1-0.9,2.1-1.5,3c0,0-3.4,7.7-14.8,7.4
		c-1,0-2.1-0.1-3.2-0.4l-2.5-0.5l-0.9,9.4L5,24.5c2.7,0.6,5.7,0.6,9,0c1.9-0.4,3.7-0.9,5.5-1.6c0.6,0.8,1.1,1.6,1.5,2.5
		c0.6,1.4,0.9,3.1,0.9,5.2c0,1.8-0.3,3.5-1,5.1c-0.6,1.6-1.7,3.1-3.1,4.6l-1.6,1.7l8.1,4.6l0.9-0.8c1.9-1.8,3.3-4.1,4.4-6.9
		c1-2.7,1.5-5.5,1.5-8.4c0-2.6-0.5-5.3-1.6-7.9c-0.6-1.5-1.3-2.8-2.2-3.9C28.4,17.7,29.5,16.6,30.5,15.5z"/>
</g>
</svg>
